<svg width="176" height="119" viewBox="0 0 176 119" fill="none" xmlns="http://www.w3.org/2000/svg">
<rect x="0.52731" y="0.331998" width="174.945" height="33.2445" rx="7.97532" fill="white" stroke="#D9D9D9" stroke-width="0.167901"/>
<path d="M1.75439 4.44558C1.75439 2.12735 3.63369 0.248047 5.95193 0.248047H170.236C172.554 0.248047 174.433 2.12735 174.433 4.44558H1.75439Z" fill="#4A9A8C"/>
<rect x="6.81104" y="9.65039" width="81.2826" height="7.21976" rx="3.60988" fill="#D9D9D9"/>
<rect x="6.81104" y="22.0752" width="162.378" height="3.86173" rx="1.93087" fill="#D9D9D9"/>
<rect x="0.52731" y="36.6054" width="174.945" height="25.15" rx="7.97532" fill="white"/>
<rect x="11.8867" y="42.2432" width="124.804" height="5.72165" rx="2.86083" fill="#D9D9D9"/>
<rect x="11.8867" y="52.2559" width="128.077" height="3.86173" rx="1.93087" fill="white"/>
<rect x="11.8867" y="52.2559" width="11.73" height="3.86173" rx="1.93087" fill="#D9D9D9"/>
<rect x="29.8686" y="52.5077" width="3.35803" height="3.35803" rx="1.67901" fill="white" stroke="#D9D9D9" stroke-width="0.503704"/>
<rect x="39.7304" y="52.5077" width="3.35803" height="3.35803" rx="1.67901" fill="white" stroke="#D9D9D9" stroke-width="0.503704"/>
<rect x="49.5922" y="52.5077" width="3.35803" height="3.35803" rx="1.67901" fill="white" stroke="#D9D9D9" stroke-width="0.503704"/>
<rect x="59.454" y="52.5077" width="3.35803" height="3.35803" rx="1.67901" fill="white" stroke="#D9D9D9" stroke-width="0.503704"/>
<rect x="69.3153" y="52.5077" width="3.35803" height="3.35803" rx="1.67901" fill="white" stroke="#D9D9D9" stroke-width="0.503704"/>
<rect x="79.1771" y="52.5077" width="3.35803" height="3.35803" rx="1.67901" fill="white" stroke="#D9D9D9" stroke-width="0.503704"/>
<rect x="89.039" y="52.5077" width="3.35803" height="3.35803" rx="1.67901" fill="white" stroke="#4A9A8C" stroke-width="0.503704"/>
<rect x="89.7944" y="53.2637" width="1.84692" height="1.84692" rx="0.923458" fill="#4A9A8C"/>
<rect x="98.9008" y="52.5077" width="3.35803" height="3.35803" rx="1.67901" fill="white" stroke="#D9D9D9" stroke-width="0.503704"/>
<rect x="108.763" y="52.5077" width="3.35803" height="3.35803" rx="1.67901" fill="white" stroke="#D9D9D9" stroke-width="0.503704"/>
<rect x="118.624" y="52.5077" width="3.35803" height="3.35803" rx="1.67901" fill="white" stroke="#D9D9D9" stroke-width="0.503704"/>
<rect x="128.234" y="52.2559" width="11.73" height="3.86173" rx="1.93087" fill="#D9D9D9"/>
<rect x="0.52731" y="36.6054" width="174.945" height="25.15" rx="7.97532" stroke="#D9D9D9" stroke-width="0.167901"/>
<rect x="0.52731" y="64.7841" width="174.945" height="25.15" rx="7.97532" fill="white"/>
<rect x="11.8867" y="70.4219" width="124.804" height="5.72165" rx="2.86083" fill="#D9D9D9"/>
<rect x="11.8867" y="80.4346" width="128.077" height="3.86173" rx="1.93087" fill="white"/>
<rect x="11.8867" y="80.4346" width="11.73" height="3.86173" rx="1.93087" fill="#D9D9D9"/>
<rect x="29.8686" y="80.6864" width="3.35803" height="3.35803" rx="1.67901" fill="white" stroke="#D9D9D9" stroke-width="0.503704"/>
<rect x="39.7304" y="80.6864" width="3.35803" height="3.35803" rx="1.67901" fill="white" stroke="#D9D9D9" stroke-width="0.503704"/>
<rect x="49.5922" y="80.6864" width="3.35803" height="3.35803" rx="1.67901" fill="white" stroke="#4A9A8C" stroke-width="0.503704"/>
<rect x="50.3477" y="81.4424" width="1.84692" height="1.84692" rx="0.923458" fill="#4A9A8C"/>
<rect x="59.454" y="80.6864" width="3.35803" height="3.35803" rx="1.67901" fill="white" stroke="#D9D9D9" stroke-width="0.503704"/>
<rect x="69.3153" y="80.6864" width="3.35803" height="3.35803" rx="1.67901" fill="white" stroke="#D9D9D9" stroke-width="0.503704"/>
<rect x="79.1771" y="80.6864" width="3.35803" height="3.35803" rx="1.67901" fill="white" stroke="#D9D9D9" stroke-width="0.503704"/>
<rect x="89.039" y="80.6864" width="3.35803" height="3.35803" rx="1.67901" fill="white" stroke="#D9D9D9" stroke-width="0.503704"/>
<rect x="98.9008" y="80.6864" width="3.35803" height="3.35803" rx="1.67901" fill="white" stroke="#D9D9D9" stroke-width="0.503704"/>
<rect x="108.763" y="80.6864" width="3.35803" height="3.35803" rx="1.67901" fill="white" stroke="#D9D9D9" stroke-width="0.503704"/>
<rect x="118.624" y="80.6864" width="3.35803" height="3.35803" rx="1.67901" fill="white" stroke="#D9D9D9" stroke-width="0.503704"/>
<rect x="128.234" y="80.4346" width="11.73" height="3.86173" rx="1.93087" fill="#D9D9D9"/>
<rect x="0.52731" y="64.7841" width="174.945" height="25.15" rx="7.97532" stroke="#D9D9D9" stroke-width="0.167901"/>
<rect x="0.52731" y="92.9629" width="174.945" height="25.15" rx="7.97532" fill="white"/>
<rect x="11.8867" y="98.6006" width="124.804" height="5.72165" rx="2.86083" fill="#D9D9D9"/>
<rect x="11.8867" y="108.613" width="128.077" height="3.86173" rx="1.93087" fill="white"/>
<rect x="11.8867" y="108.613" width="11.73" height="3.86173" rx="1.93087" fill="#D9D9D9"/>
<rect x="29.8686" y="108.865" width="3.35803" height="3.35803" rx="1.67901" fill="white" stroke="#D9D9D9" stroke-width="0.503704"/>
<rect x="39.7304" y="108.865" width="3.35803" height="3.35803" rx="1.67901" fill="white" stroke="#D9D9D9" stroke-width="0.503704"/>
<rect x="49.5922" y="108.865" width="3.35803" height="3.35803" rx="1.67901" fill="white" stroke="#D9D9D9" stroke-width="0.503704"/>
<rect x="59.454" y="108.865" width="3.35803" height="3.35803" rx="1.67901" fill="white" stroke="#D9D9D9" stroke-width="0.503704"/>
<rect x="69.3153" y="108.865" width="3.35803" height="3.35803" rx="1.67901" fill="white" stroke="#D9D9D9" stroke-width="0.503704"/>
<rect x="79.1771" y="108.865" width="3.35803" height="3.35803" rx="1.67901" fill="white" stroke="#D9D9D9" stroke-width="0.503704"/>
<rect x="89.039" y="108.865" width="3.35803" height="3.35803" rx="1.67901" fill="white" stroke="#D9D9D9" stroke-width="0.503704"/>
<rect x="98.9008" y="108.865" width="3.35803" height="3.35803" rx="1.67901" fill="white" stroke="#D9D9D9" stroke-width="0.503704"/>
<rect x="108.763" y="108.865" width="3.35803" height="3.35803" rx="1.67901" fill="white" stroke="#D9D9D9" stroke-width="0.503704"/>
<rect x="118.624" y="108.865" width="3.35803" height="3.35803" rx="1.67901" fill="white" stroke="#4A9A8C" stroke-width="0.503704"/>
<rect x="119.379" y="109.621" width="1.84692" height="1.84692" rx="0.923458" fill="#4A9A8C"/>
<rect x="128.234" y="108.613" width="11.73" height="3.86173" rx="1.93087" fill="#D9D9D9"/>
<rect x="0.52731" y="92.9629" width="174.945" height="25.15" rx="7.97532" stroke="#D9D9D9" stroke-width="0.167901"/>
</svg>
