<?xml version="1.0" standalone="no"?>
<!DOCTYPE svg PUBLIC "-//W3C//DTD SVG 20010904//EN"
 "http://www.w3.org/TR/2001/REC-SVG-20010904/DTD/svg10.dtd">
<svg version="1.0" xmlns="http://www.w3.org/2000/svg"
 width="832.000000pt" height="832.000000pt" viewBox="0 0 832.000000 832.000000"
 preserveAspectRatio="xMidYMid meet">
<metadata>
Created by potrace 1.14, written by Peter Selinger 2001-2017
</metadata>
<g transform="translate(0.000000,832.000000) scale(0.100000,-0.100000)"
fill="#000000" stroke="none">
<path d="M3871 7978 c-128 -8 -151 -13 -201 -38 -31 -16 -110 -41 -176 -55
-972 -217 -1694 -936 -2541 -2530 -185 -347 -178 -330 -375 -900 -126 -364
-200 -642 -276 -1035 -54 -277 -99 -589 -106 -735 -6 -122 -22 -235 -95 -655
-59 -343 -73 -503 -50 -583 15 -56 74 -116 144 -147 70 -32 141 -49 353 -85
370 -62 531 -123 737 -278 238 -178 401 -235 900 -312 280 -43 349 -59 585
-136 343 -112 552 -151 810 -152 191 -1 281 12 605 83 300 66 402 80 675 90
254 10 385 25 568 66 695 155 1469 610 2037 1195 135 139 203 226 306 391 160
257 257 520 335 908 14 69 45 189 69 268 57 184 68 250 68 402 -1 69 -2 260
-3 425 -1 347 -9 409 -91 738 -158 631 -456 1334 -795 1876 -125 200 -189 284
-294 390 -441 444 -1162 706 -2205 801 -164 15 -807 21 -984 8z m804 -318
c1084 -64 1884 -356 2254 -824 58 -74 192 -285 288 -456 273 -485 498 -1053
633 -1600 64 -263 73 -331 66 -525 -34 -864 -182 -1572 -396 -1885 -56 -82
-273 -314 -413 -441 -334 -305 -625 -500 -864 -577 -121 -40 -133 -39 -613 42
-807 136 -1120 205 -1446 316 -235 81 -364 158 -617 370 -416 349 -1075 1012
-1363 1371 -108 135 -159 215 -240 374 -204 404 -290 821 -239 1157 64 426
675 1619 1013 1980 104 109 416 315 909 597 l161 93 114 7 c170 12 561 12 753
1z m-2485 -902 c-256 -401 -579 -1052 -705 -1423 -64 -187 -85 -301 -92 -490
-6 -182 3 -298 38 -470 73 -362 256 -779 461 -1048 154 -202 350 -419 688
-760 550 -558 980 -926 1222 -1048 309 -156 829 -286 1763 -439 209 -35 384
-66 388 -70 10 -8 -215 -98 -348 -138 -270 -82 -436 -109 -752 -122 -329 -13
-344 -15 -883 -129 -385 -82 -653 -58 -1135 99 -233 76 -300 92 -535 130 -466
75 -540 93 -695 170 -55 27 -130 74 -168 104 -59 47 -97 73 -196 134 -23 14
-23 15 -5 24 50 27 59 84 19 123 -32 33 -78 33 -110 1 l-24 -25 -32 30 c-17
16 -26 29 -20 29 6 0 20 9 31 20 28 28 26 75 -5 105 l-24 25 24 25 c33 32 33
78 0 110 -32 33 -78 33 -110 0 l-25 -24 -25 25 -26 26 26 25 c33 33 33 76 0
108 -32 33 -78 33 -110 1 l-24 -25 -32 30 c-17 16 -26 29 -20 29 22 0 51 40
51 70 0 70 -86 105 -135 55 l-25 -24 -25 24 -24 25 24 25 c33 32 33 78 0 111
l-26 26 26 25 c35 36 33 77 -6 114 -17 16 -26 29 -20 29 22 0 51 40 51 70 0
41 -39 80 -80 80 -41 0 -80 -39 -80 -80 0 -30 29 -70 51 -70 6 0 -3 -13 -20
-29 l-32 -30 -22 23 c-13 13 -29 25 -37 28 -11 3 -11 18 -1 84 6 43 14 131 17
194 13 267 118 849 225 1245 88 325 301 929 391 1108 309 617 690 1235 990
1605 72 88 217 252 223 252 2 0 -31 -55 -75 -122z m-1694 -4493 c3 -8 15 -17
25 -20 18 -6 17 -9 -11 -35 l-31 -29 -25 25 -25 26 23 24 c27 28 36 30 44 9z
m8 -170 l25 -25 -24 -25 -25 -24 -25 25 -26 26 23 24 c13 13 24 24 25 24 1 0
13 -11 27 -25z m-134 -25 c0 -5 -4 -10 -10 -10 -5 0 -10 5 -10 10 0 6 5 10 10
10 6 0 10 -4 10 -10z m120 -120 c0 -6 11 -15 25 -22 l24 -11 -29 -27 -30 -28
-30 28 -29 27 24 11 c14 7 25 16 25 22 0 5 5 10 10 10 6 0 10 -5 10 -10z m160
0 c0 -6 11 -15 25 -22 l24 -11 -29 -27 -30 -28 -30 28 -29 27 24 11 c14 7 25
16 25 22 0 5 5 10 10 10 6 0 10 -5 10 -10z m-300 -60 c-46 -43 -40 -99 12
-126 35 -18 70 -12 97 17 l19 20 25 -25 26 -26 -24 -25 c-31 -30 -33 -77 -5
-105 11 -11 25 -20 31 -20 6 0 -3 -14 -21 -30 -27 -25 -32 -36 -28 -65 4 -36
1 -39 -26 -29 -13 5 -12 11 6 45 25 48 21 117 -9 158 -30 40 -82 71 -119 71
-19 0 -34 3 -34 8 0 11 20 134 25 159 5 20 8 21 30 11 l24 -11 -29 -27z m315
-114 l26 -24 -26 -26 -25 -25 -26 25 -25 26 23 23 c13 13 24 23 25 24 1 1 14
-10 28 -23z m160 0 l26 -24 -26 -26 -25 -25 -26 25 -25 26 23 23 c13 13 24 23
25 24 1 1 14 -10 28 -23z m-157 -160 l23 -24 -25 -26 -25 -25 -30 28 -30 28
24 11 c14 7 25 16 25 22 0 16 13 11 38 -14z m157 0 l26 -24 -26 -26 -25 -25
-26 25 -25 26 23 23 c13 13 24 23 25 24 1 1 14 -10 28 -23z m159 -1 l25 -25
-24 -25 -25 -24 -25 25 -26 26 23 24 c13 13 24 24 25 24 1 0 13 -11 27 -25z
m-324 -155 c15 -15 16 -20 6 -20 -27 0 -45 12 -39 26 7 18 9 18 33 -6z m150
10 c0 -5 12 -16 27 -23 26 -14 26 -14 5 -26 -22 -12 -102 -5 -102 9 0 4 11 12
25 18 14 6 25 16 25 22 0 5 5 10 10 10 6 0 10 -4 10 -10z m160 0 c0 -6 11 -15
25 -22 l24 -11 -29 -27 -30 -28 -30 28 -29 27 24 11 c14 7 25 16 25 22 0 5 5
10 10 10 6 0 10 -5 10 -10z"/>
<path d="M4800 7304 c-443 -38 -764 -111 -992 -224 -105 -52 -156 -88 -273
-193 -55 -50 -198 -168 -319 -264 -360 -288 -563 -477 -712 -664 -181 -227
-302 -471 -356 -722 -18 -82 -22 -133 -21 -257 0 -147 2 -163 37 -286 88 -319
213 -647 357 -939 147 -300 262 -473 434 -655 50 -52 120 -131 157 -175 262
-319 859 -728 1333 -914 205 -80 227 -82 560 -35 691 97 1285 268 1546 444 56
38 169 153 169 171 0 6 17 17 37 25 130 55 285 214 416 430 262 430 448 1057
384 1294 l-15 54 28 32 c68 78 95 218 87 454 -19 577 -275 1201 -551 1346 -47
24 -56 33 -61 64 -3 19 -17 59 -31 89 -30 68 -168 207 -274 278 -298 198 -812
413 -1415 590 -188 55 -191 56 -335 58 -80 1 -165 1 -190 -1z m149 -261 c82
-200 75 -965 -15 -1631 -22 -166 -59 -382 -66 -387 -2 -1 -18 -12 -36 -24 -19
-13 -37 -20 -42 -15 -16 18 -360 483 -459 623 -132 184 -347 510 -446 676 -89
149 -205 366 -205 384 0 17 78 99 126 132 187 129 542 224 964 258 173 14 166
14 179 -16z m488 -83 c466 -146 908 -334 1141 -486 96 -63 212 -169 212 -193
-1 -23 -112 -119 -215 -186 -182 -117 -379 -275 -719 -574 -213 -188 -272
-236 -482 -387 -96 -69 -138 -94 -146 -86 -7 7 -7 42 1 119 24 234 33 497 33
923 0 397 -12 788 -28 893 -3 20 -2 37 4 37 5 0 95 -27 199 -60z m-1926 -502
c156 -310 441 -747 847 -1296 90 -123 163 -225 161 -227 -2 -2 -29 3 -59 11
-197 52 -548 97 -900 115 -219 11 -736 8 -1052 -7 l-138 -7 0 36 c0 20 7 68
15 107 69 328 280 644 645 965 88 78 440 365 447 365 2 0 17 -28 34 -62z
m3550 -505 c201 -208 376 -796 356 -1197 -6 -137 -19 -176 -55 -176 -100 1
-560 44 -907 86 -383 46 -990 133 -1033 149 -8 3 29 38 87 85 54 44 218 185
363 313 572 505 761 653 981 762 125 63 127 63 208 -22z m-3621 -1152 c376
-44 766 -106 1034 -166 188 -42 211 -49 211 -61 0 -5 -147 -108 -327 -229
-597 -403 -911 -659 -1168 -955 -41 -47 -79 -86 -85 -88 -16 -4 -125 136 -208
266 -170 268 -394 795 -496 1170 l-20 72 87 1 c48 1 175 5 282 9 275 11 476 5
690 -19z m2197 -296 c109 -14 383 -55 608 -91 555 -88 710 -111 914 -131 l174
-17 -6 -85 c-24 -358 -288 -979 -525 -1232 -55 -59 -125 -110 -135 -99 -3 3
-24 43 -47 90 -175 349 -472 723 -1011 1275 l-198 201 6 57 c3 31 10 57 14 57
5 0 97 -11 206 -25z m-717 -208 l45 -22 -1 -235 c-2 -472 -51 -808 -215 -1477
-62 -253 -96 -363 -113 -363 -7 0 -51 15 -97 34 -436 176 -960 525 -1207 804
l-63 71 62 73 c237 279 697 655 1124 921 146 91 382 217 405 216 8 0 35 -10
60 -22z m574 -382 c484 -534 873 -1010 948 -1158 l40 -81 -38 -34 c-52 -45
-232 -132 -378 -182 -239 -81 -552 -156 -901 -215 -253 -42 -259 -43 -251 -12
151 547 312 1392 351 1840 l7 79 25 -24 c14 -12 103 -108 197 -213z"/>
<path d="M4696 6195 c-23 -23 -29 -77 -17 -135 14 -64 31 -97 69 -133 108
-103 144 135 37 248 -35 38 -65 44 -89 20z"/>
<path d="M4374 6029 c-26 -29 -25 -127 3 -189 57 -128 152 -131 153 -4 0 63
-27 139 -64 179 -38 40 -65 44 -92 14z"/>
<path d="M4696 5555 c-23 -23 -29 -77 -17 -135 14 -64 31 -97 69 -134 24 -22
36 -27 57 -22 69 17 57 190 -20 271 -35 38 -65 44 -89 20z"/>
<path d="M5567 6168 c-46 -44 -78 -109 -84 -173 -5 -45 -2 -56 16 -74 28 -28
53 -21 104 27 66 63 100 199 59 235 -28 25 -57 21 -95 -15z"/>
<path d="M5887 6008 c-46 -44 -78 -109 -84 -173 -5 -45 -2 -56 16 -74 28 -28
53 -21 104 27 66 63 100 199 59 235 -28 25 -57 21 -95 -15z"/>
<path d="M5413 5536 c-42 -36 -84 -118 -90 -180 -5 -46 -2 -57 16 -75 28 -28
53 -21 104 27 60 58 95 180 67 233 -15 27 -62 24 -97 -5z"/>
<path d="M3576 5694 c-24 -23 -19 -56 13 -104 32 -48 96 -95 152 -112 32 -9
42 -8 64 6 32 21 32 48 0 102 -27 46 -88 93 -144 112 -46 16 -67 15 -85 -4z"/>
<path d="M3257 5375 c-25 -24 -21 -56 12 -105 32 -48 96 -95 152 -112 32 -9
42 -8 64 6 33 22 32 51 -4 107 -52 82 -185 144 -224 104z"/>
<path d="M3897 5375 c-25 -24 -21 -56 12 -105 68 -101 220 -153 238 -82 22 90
-189 248 -250 187z"/>
<path d="M6526 5220 c-142 -56 -139 -154 4 -152 99 1 200 60 200 116 0 54
-109 73 -204 36z"/>
<path d="M5909 5071 c-67 -21 -129 -72 -129 -108 0 -40 40 -56 124 -51 111 7
193 61 184 121 -2 12 -14 27 -28 34 -27 14 -110 16 -151 4z"/>
<path d="M3573 4610 c-56 -25 -68 -63 -29 -96 30 -26 85 -44 136 -44 51 0 106
18 136 44 63 53 -11 116 -136 116 -43 0 -79 -7 -107 -20z"/>
<path d="M4170 4569 c-97 -44 -152 -109 -131 -155 28 -62 177 -26 254 62 75
87 -4 147 -123 93z"/>
<path d="M3715 4331 c-76 -19 -164 -87 -180 -139 -22 -75 107 -83 210 -13 39
27 85 83 85 106 0 37 -58 60 -115 46z"/>
<path d="M5657 4415 c-34 -33 -14 -88 53 -149 49 -44 96 -66 143 -66 137 0 12
201 -140 226 -30 4 -44 2 -56 -11z"/>
<path d="M6456 4254 c-33 -32 -12 -88 54 -148 49 -44 96 -66 143 -66 64 0 76
51 28 117 -35 48 -75 78 -132 98 -53 19 -74 19 -93 -1z"/>
<path d="M6222 3958 c-65 -65 128 -245 228 -213 26 8 35 48 20 85 -15 37 -91
107 -135 126 -42 17 -97 18 -113 2z"/>
<path d="M4613 3936 c-42 -36 -84 -118 -90 -180 -5 -46 -2 -57 16 -75 28 -28
53 -21 104 27 60 58 95 180 67 233 -15 27 -62 24 -97 -5z"/>
<path d="M4127 3448 c-46 -44 -78 -109 -84 -173 -5 -45 -2 -56 16 -74 28 -28
53 -21 104 27 66 63 100 199 59 235 -28 25 -57 21 -95 -15z"/>
<path d="M4447 3288 c-46 -44 -78 -109 -84 -173 -5 -45 -2 -56 16 -74 28 -28
53 -21 104 27 66 63 100 199 59 235 -28 25 -57 21 -95 -15z"/>
<path d="M5334 3629 c-43 -48 -13 -198 51 -262 109 -108 148 134 40 248 -37
40 -64 44 -91 14z"/>
<path d="M5387 3169 c-35 -21 -61 -90 -62 -164 0 -85 18 -133 53 -142 34 -8
53 5 80 57 41 81 26 221 -27 250 -23 12 -22 12 -44 -1z"/>
<path d="M5654 3149 c-43 -48 -13 -198 51 -262 109 -108 148 134 40 248 -37
40 -64 44 -91 14z"/>
<path d="M665 3165 c-64 -63 12 -163 93 -121 16 8 32 23 36 31 21 55 -18 115
-74 115 -19 0 -40 -9 -55 -25z"/>
<path d="M825 3005 c-42 -41 -30 -102 25 -125 35 -15 84 0 100 31 28 52 -12
119 -70 119 -19 0 -40 -9 -55 -25z"/>
<path d="M1145 3005 c-42 -41 -30 -102 25 -125 35 -15 84 0 100 31 28 52 -12
119 -70 119 -19 0 -40 -9 -55 -25z"/>
<path d="M505 2845 c-41 -40 -30 -96 23 -124 47 -25 112 17 112 71 0 39 -40
78 -80 78 -19 0 -40 -9 -55 -25z"/>
<path d="M985 2845 c-42 -41 -30 -102 25 -125 35 -15 84 0 100 31 28 52 -12
119 -70 119 -19 0 -40 -9 -55 -25z"/>
<path d="M665 2685 c-64 -63 12 -163 93 -121 16 8 32 23 36 31 21 55 -18 115
-74 115 -19 0 -40 -9 -55 -25z"/>
<path d="M1145 2685 c-64 -63 12 -163 93 -121 16 8 32 23 36 31 21 55 -18 115
-74 115 -19 0 -40 -9 -55 -25z"/>
<path d="M1465 2685 c-42 -41 -30 -102 25 -125 35 -15 84 0 100 31 28 52 -12
119 -70 119 -19 0 -40 -9 -55 -25z"/>
<path d="M985 2525 c-42 -41 -30 -102 25 -125 35 -15 84 0 100 31 28 52 -12
119 -70 119 -19 0 -40 -9 -55 -25z"/>
<path d="M825 2365 c-40 -40 -32 -96 17 -121 81 -42 157 58 93 121 -15 16 -36
25 -55 25 -19 0 -40 -9 -55 -25z"/>
<path d="M1465 2365 c-41 -40 -30 -96 23 -124 47 -25 112 17 112 71 0 39 -40
78 -80 78 -19 0 -40 -9 -55 -25z"/>
<path d="M1145 2205 c-64 -63 12 -163 93 -121 16 8 32 23 36 31 21 55 -18 115
-74 115 -19 0 -40 -9 -55 -25z"/>
<path d="M985 2045 c-45 -44 -25 -117 34 -130 33 -7 85 15 95 40 21 55 -18
115 -74 115 -19 0 -40 -9 -55 -25z"/>
<path d="M1145 1885 c-42 -41 -30 -102 25 -125 35 -15 84 0 100 31 28 52 -12
119 -70 119 -19 0 -40 -9 -55 -25z"/>
<path d="M1465 1885 c-33 -32 -33 -75 0 -108 l26 -25 -26 -26 c-42 -42 -31
-103 25 -126 81 -34 147 64 85 126 l-26 26 26 25 c49 50 15 133 -55 133 -19 0
-40 -9 -55 -25z"/>
<path d="M1305 1565 c-64 -63 12 -163 93 -121 16 8 32 23 36 31 21 55 -18 115
-74 115 -19 0 -40 -9 -55 -25z"/>
<path d="M1785 1565 c-40 -39 -32 -96 17 -121 57 -29 118 6 118 69 0 38 -40
77 -80 77 -19 0 -40 -9 -55 -25z"/>
<path d="M2745 1245 c-42 -41 -30 -102 25 -125 35 -15 84 0 100 31 28 52 -12
119 -70 119 -19 0 -40 -9 -55 -25z"/>
</g>
</svg>
