<svg width="19" height="18" viewBox="0 0 19 18" fill="none" xmlns="http://www.w3.org/2000/svg">
<path d="M17.4781 6.72616C17.3624 4.81817 15.9517 1.1412 9.84611 1.0022C6.89741 0.935074 4.98942 2.3883 2.56108 7.24495C2.21417 8.28571 1.69381 9.32643 1.34691 11.9282C1.36702 12.7383 1 13.8985 1 14.7035C1 15.2238 2.56108 14.8769 3.6018 15.7457C4.43109 16.438 5.54399 16.2545 6.55221 16.6145C8.98055 17.4818 9.32746 16.6145 11.2354 16.6145C13.1434 16.6145 15.2232 15.3989 16.6125 14.0128C17.6616 12.966 17.6515 12.1032 18.1719 10.5422C18.5882 9.2933 17.6515 7.41997 17.4781 6.72616Z" fill="#FBE54D"/>
<path d="M9.84611 1.0022L9.83473 1.50207L9.84611 1.0022ZM17.4781 6.72616L16.979 6.7564L16.9818 6.80256L16.993 6.84742L17.4781 6.72616ZM18.1719 10.5422L17.6975 10.384V10.384L18.1719 10.5422ZM16.6125 14.0128L16.9656 14.3667L16.9656 14.3667L16.6125 14.0128ZM6.55221 16.6145L6.72038 16.1437H6.72038L6.55221 16.6145ZM2.56108 7.24495L2.11387 7.02134L2.09797 7.05313L2.08673 7.08684L2.56108 7.24495ZM1.34691 11.9282L0.851292 11.8622L0.846082 11.9012L0.84706 11.9406L1.34691 11.9282ZM3.6018 15.7457L3.92222 15.3619H3.92222L3.6018 15.7457ZM9.83473 1.50207C12.7825 1.56918 14.5263 2.4853 15.5479 3.54743C16.5792 4.61949 16.9267 5.8944 16.979 6.7564L17.9771 6.69591C17.9137 5.64992 17.4981 4.13235 16.2687 2.85419C15.0296 1.56609 13.0153 0.574222 9.85749 0.502333L9.83473 1.50207ZM16.993 6.84742C17.0442 7.05241 17.1476 7.33158 17.2479 7.60931C17.3534 7.90157 17.4686 8.22589 17.5655 8.56376C17.7662 9.26415 17.8539 9.91486 17.6975 10.384L18.6462 10.7003C18.9061 9.9206 18.7337 9.01022 18.5268 8.28827C18.4198 7.91497 18.2943 7.56281 18.1885 7.26967C18.0773 6.96198 17.9986 6.74681 17.9631 6.60489L16.993 6.84742ZM17.6975 10.384C17.1362 12.0681 17.1973 12.723 16.2593 13.6588L16.9656 14.3667C18.126 13.2091 18.1668 12.1384 18.6462 10.7003L17.6975 10.384ZM16.2593 13.6588C14.9184 14.9967 12.9583 16.1145 11.2354 16.1145L11.2354 17.1145C13.3285 17.1145 15.528 15.801 16.9656 14.3667L16.2593 13.6588ZM11.2354 16.1145C10.2272 16.1145 9.53882 16.3548 9.00401 16.447C8.46946 16.5392 7.86292 16.5517 6.72038 16.1437L6.38404 17.0854C7.66984 17.5446 8.45092 17.5572 9.17391 17.4325C9.89664 17.3079 10.3357 17.1145 11.2354 17.1145L11.2354 16.1145ZM3.00829 7.46856C4.21393 5.0573 5.26084 3.55511 6.32942 2.66055C7.37158 1.7881 8.46206 1.47082 9.83473 1.50207L9.85749 0.502333C8.28146 0.466453 6.9436 0.842228 5.6875 1.89377C4.45782 2.92321 3.33657 4.57595 2.11387 7.02134L3.00829 7.46856ZM1.5 14.7035C1.5 14.3563 1.58057 13.9163 1.67297 13.407C1.75974 12.9286 1.85833 12.3822 1.84675 11.9158L0.84706 11.9406C0.855595 12.2843 0.780732 12.723 0.689026 13.2285C0.602936 13.703 0.5 14.2456 0.5 14.7035H1.5ZM1.84252 11.9943C2.18142 9.45255 2.67928 8.47154 3.03542 7.40306L2.08673 7.08684C1.74907 8.09989 1.2062 9.20031 0.851292 11.8622L1.84252 11.9943ZM6.72038 16.1437C6.16091 15.9439 5.5457 15.888 5.09306 15.8117C4.60677 15.7297 4.23139 15.62 3.92222 15.3619L3.28137 16.1296C3.80151 16.5638 4.39722 16.7084 4.92676 16.7978C5.48994 16.8927 5.93529 16.9252 6.38404 17.0854L6.72038 16.1437ZM3.92222 15.3619C3.28781 14.8323 2.51281 14.6876 1.993 14.6008C1.70344 14.5524 1.53271 14.5275 1.41836 14.4894C1.36526 14.4717 1.37938 14.4675 1.41146 14.4976C1.4617 14.5448 1.5 14.623 1.5 14.7035H0.5C0.5 14.9141 0.587081 15.0952 0.72676 15.2264C0.848282 15.3406 0.99249 15.4015 1.102 15.438C1.31287 15.5083 1.59746 15.5486 1.82825 15.5871C2.34916 15.6741 2.87506 15.7904 3.28137 16.1296L3.92222 15.3619Z" fill="#351771"/>
<path d="M16.0902 3.13521C14.7026 1.05378 10.6554 0.880323 8.8052 1.05378C8.28484 1.34285 7.10534 2.02508 6.55029 2.44137C5.85648 2.96173 4.46887 5.56353 4.12197 6.7777C3.77506 7.99187 4.29542 9.3795 4.81578 10.2468C5.33614 11.114 7.76449 13.5424 8.8052 14.2362C9.84592 14.93 12.7946 15.2769 13.6619 15.4504C14.5292 15.6238 16.0902 14.4096 17.131 13.1955C17.9635 12.2241 18.1717 9.55295 18.1717 8.33878C18.056 7.47152 17.4779 5.21665 16.0902 3.13521Z" fill="#FBE54D" stroke="#351771"/>
<path d="M11.5806 8.28666C11.3031 8.00913 8.45844 9.79004 7.41772 11.2355C8.11154 12.2762 10.0195 13.3168 10.7133 13.4903C11.4071 13.6638 11.9275 8.63356 11.5806 8.28666Z" fill="#FBE54D" stroke="#351771" stroke-width="0.75"/>
<path d="M11.7538 8.28684C11.5361 7.96028 14.048 10.6298 15.0493 12.1028C14.8478 13.1384 10.1839 13.6239 10.8865 13.4905C11.06 13.4576 12.1007 8.8072 11.7538 8.28684Z" fill="#FBE54D" stroke="#351771" stroke-width="0.75"/>
<path d="M11.2342 7.93977C11.5109 8.21814 8.80604 9.32738 7.41837 11.2354C6.37751 10.3681 5.69835 8.17362 5.52701 7.47928C5.35568 6.78494 10.8883 7.59181 11.2342 7.93977Z" fill="#FBE54D" stroke="#351771" stroke-width="0.75"/>
<path d="M11.7539 7.94161C11.4221 8.1513 14.0352 9.94782 14.9626 12.1172C16.0159 12.1768 17.3044 8.46206 16.6106 8.46206C15.5 8.46206 12.1686 7.6795 11.7539 7.94161Z" fill="#FBE54D" stroke="#351771" stroke-width="0.75"/>
<path d="M11.2341 7.76686C10.908 7.98525 9.05724 5.16674 8.31681 3.54681C8.68891 2.55962 10.6933 2.42531 11.4075 2.3898C12.1218 2.35428 11.6417 7.49387 11.2341 7.76686Z" fill="#FBE54D" stroke="#351771" stroke-width="0.75"/>
<path d="M11.5016 7.7031C11.2247 7.9812 14.4108 5.71337 15.6789 4.46264C15.6822 3.40765 10.9973 2.16282 11.6607 2.43006C11.8244 2.49603 11.9429 7.25995 11.5016 7.7031Z" fill="#FBE54D" stroke="#351771" stroke-width="0.75"/>
<path d="M11.0602 7.76716C11.4225 7.91812 9.276 5.57199 8.28497 3.43096C7.38672 4.19723 5.50987 5.33889 5.50987 7.24686C5.50987 7.43838 8.97884 6.89989 11.0602 7.76716Z" fill="#FBE54D" stroke="#351771" stroke-width="0.75"/>
<path d="M11.754 7.59406C12.5217 7.34424 14.5293 4.99224 15.7434 4.64539C16.7883 4.79124 17.4155 8.31197 16.7003 8.31196C15.7434 8.31195 11.2875 7.74587 11.754 7.59406Z" fill="#FBE54D" stroke="#351771" stroke-width="0.75"/>
<path d="M12.1055 7.47567C12.1055 7.19814 11.0647 7.03332 11.0647 7.82257C10.995 8.51647 11.7932 8.51647 11.932 8.51647H11.932C12.2788 8.51647 12.1055 7.82257 12.1055 7.47567Z" fill="#351771" stroke="#351771" stroke-width="0.75"/>
</svg>
