<svg width="232" height="104" viewBox="0 0 232 104" fill="none" xmlns="http://www.w3.org/2000/svg">
<path d="M153.169 22.8767C153.858 20.5528 151.358 19.7183 144.142 16.9063C139.001 14.9028 130.161 18.838 127.355 23.7678C126.761 24.8114 125.318 29.711 124.956 30.786C124.629 31.7601 123.839 32.5702 123.49 33.5296C123.265 34.1497 124.053 34.0446 125.125 34.8264C125.887 35.3814 127.219 36.2745 128.265 37.1407C130.783 39.2269 131.572 38.3437 133.846 39.1708C136.12 39.9978 141.181 39.6962 143.438 38.6466C145.142 37.854 149.219 35.0236 150.095 33.1297C152.05 28.9022 153.074 23.7787 153.169 22.8767Z" fill="#FBE54D"/>
<path d="M144.142 16.9063L144.596 15.7416L144.142 16.9063ZM153.169 22.8767L151.97 22.5213L151.937 22.6321L151.925 22.7471L153.169 22.8767ZM150.095 33.1297L151.229 33.6543L150.095 33.1297ZM143.438 38.6466L142.911 37.5133L143.438 38.6466ZM128.265 37.1407L127.467 38.1032L127.467 38.1032L128.265 37.1407ZM127.355 23.7678L126.268 23.1494L127.355 23.7678ZM124.956 30.786L126.141 31.184L124.956 30.786ZM125.125 34.8264L125.861 33.8162L125.861 33.8162L125.125 34.8264ZM143.689 18.071C147.367 19.5043 149.657 20.3671 150.984 21.1509C151.639 21.5374 151.883 21.8084 151.972 21.9673C152.021 22.056 152.071 22.1819 151.97 22.5213L154.367 23.2322C154.611 22.4096 154.607 21.5597 154.156 20.7505C153.744 20.0114 153.042 19.4623 152.255 18.9982C150.702 18.0808 148.134 17.1203 144.596 15.7416L143.689 18.071ZM151.925 22.7471C151.844 23.5262 150.852 28.5143 148.96 32.605L151.229 33.6543C153.248 29.29 154.305 24.0313 154.412 23.0063L151.925 22.7471ZM148.96 32.605C148.83 32.8854 148.528 33.2965 148.031 33.8053C147.55 34.2972 146.951 34.8156 146.309 35.3144C145.012 36.3234 143.649 37.17 142.911 37.5133L143.965 39.78C144.931 39.3307 146.458 38.3657 147.844 37.2879C148.545 36.7433 149.235 36.1494 149.818 35.5532C150.385 34.9739 150.921 34.3209 151.229 33.6543L148.96 32.605ZM142.911 37.5133C141.995 37.9394 140.35 38.2646 138.578 38.3644C136.798 38.4647 135.169 38.3218 134.273 37.9961L133.418 40.3455C134.797 40.8467 136.835 40.9666 138.719 40.8605C140.61 40.7539 142.625 40.4035 143.965 39.78L142.911 37.5133ZM134.273 37.9961C133.009 37.5362 131.93 37.4988 131.368 37.3977C130.807 37.2967 130.175 37.0999 129.062 36.1781L127.467 38.1032C128.873 39.2676 129.894 39.6724 130.925 39.8581C131.956 40.0437 132.409 39.9783 133.418 40.3455L134.273 37.9961ZM128.441 24.3861C129.662 22.2402 132.308 20.1739 135.358 18.889C138.426 17.5968 141.553 17.2389 143.689 18.071L144.596 15.7416C141.59 14.5702 137.727 15.1782 134.387 16.5851C131.03 17.9994 127.853 20.3655 126.268 23.1494L128.441 24.3861ZM124.665 33.9568C124.784 33.6296 124.986 33.3066 125.287 32.8332C125.558 32.4069 125.922 31.8373 126.141 31.184L123.772 30.388C123.664 30.7088 123.47 31.0313 123.176 31.4934C122.913 31.9084 122.546 32.4701 122.316 33.1023L124.665 33.9568ZM126.141 31.184C126.321 30.649 126.795 29.0857 127.258 27.6486C127.496 26.9087 127.739 26.1804 127.956 25.5773C128.186 24.9405 128.354 24.539 128.441 24.3861L126.268 23.1494C126.058 23.5183 125.824 24.1207 125.604 24.7297C125.373 25.3724 125.12 26.1319 124.879 26.8817C124.381 28.424 123.953 29.848 123.772 30.388L126.141 31.184ZM129.062 36.1781C127.978 35.2799 126.559 34.3249 125.861 33.8162L124.389 35.8366C125.214 36.4378 126.46 37.2691 127.467 38.1032L129.062 36.1781ZM125.861 33.8162C125.209 33.3404 124.557 33.0862 124.373 32.9957C124.319 32.9693 124.32 32.9664 124.343 32.9828C124.368 33 124.459 33.0666 124.544 33.1972C124.641 33.3444 124.695 33.517 124.701 33.6872C124.706 33.8379 124.672 33.9367 124.665 33.9568L122.316 33.1023C122.18 33.4749 122.103 34.035 122.455 34.5706C122.721 34.9743 123.126 35.1684 123.269 35.239C123.691 35.4465 123.969 35.5305 124.389 35.8366L125.861 33.8162Z" fill="#351771"/>
<path d="M127.767 20.3349C129.852 28.1163 132.389 52.0342 128.989 60.9007C127.261 65.407 123.571 64.4233 120.155 65.3385C116.918 66.2058 114.324 68.8835 110.603 65.8274C102.673 59.3135 92.072 35.873 89.9316 27.8846C86.7868 16.1484 96.949 19.2752 107.085 16.5593C117.221 13.8434 124.622 8.59863 127.767 20.3349Z" fill="#FBE54D" stroke="#351771" stroke-width="3"/>
<path d="M126.343 15.0224C126.771 16.6204 125.222 20.4991 119.206 21.2274C112.719 24.0659 109.459 26.2758 104.843 27.5126C94.7073 30.2285 90.424 27.7916 89.6379 24.8575C88.8517 21.9235 96.4311 17.3433 106.567 14.6274C116.703 11.9115 125.557 12.0883 126.343 15.0224Z" fill="#FBE54D"/>
<path d="M104.843 27.5126C94.7073 30.2285 90.424 27.7916 89.6379 24.8575C88.8517 21.9235 96.4311 17.3433 106.567 14.6274C116.703 11.9115 125.557 12.0883 126.343 15.0224C126.771 16.6204 125.222 20.4991 119.206 21.2274M104.843 27.5126C109.459 26.2758 112.719 24.0659 119.206 21.2274M104.843 27.5126L119.206 21.2274" stroke="#351771" stroke-width="3"/>
<path d="M109.792 7.93745C103.748 6.35098 102.625 15.0199 102.818 19.5527C107.758 20.1192 118.509 21.1958 121.995 20.9691C126.354 20.6858 125.773 14.4533 125.773 13.0368C125.773 11.6203 122.576 3.68795 119.38 2.27146C116.184 0.854976 117.346 5.38774 117.637 6.52093C117.928 7.65412 117.346 9.92053 109.792 7.93745Z" fill="#FFF18F" fill-opacity="0.9" stroke="#351771" stroke-width="3"/>
<path d="M90.4056 21.7297C93.5972 22.4821 83.2983 33 110.298 26L122.298 21C128.298 16 119.447 16.7459 112.798 18C106.149 19.2541 98.3845 10.1296 97.0547 7.62142C95.7248 5.11327 96.5227 11.0701 93.0652 10.1296C89.6076 9.18902 86.682 11.0701 87.7459 12.6377C88.8098 14.2053 89.3417 15.4593 87.7459 16.3999C86.1501 17.3404 81.3628 16.3999 80.8308 19.8486C80.2989 23.2973 86.4161 20.7891 90.4056 21.7297Z" fill="#FBE54D" stroke="#351771" stroke-width="3"/>
<path d="M81.4282 52.7322C80.7389 50.4083 83.2384 49.5738 90.4543 46.7618C95.5956 44.7583 104.436 48.6935 107.242 53.6232C107.836 54.6669 109.279 59.5665 109.64 60.6415C109.967 61.6155 110.757 62.4257 111.106 63.385C111.332 64.0051 110.544 63.9001 109.471 64.6818C108.71 65.2368 107.377 66.13 106.332 66.9962C103.814 69.0823 103.025 68.1992 100.751 69.0262C98.4771 69.8533 93.4153 69.5517 91.1587 68.5021C89.4547 67.7095 85.3779 64.8791 84.502 62.9851C82.5469 58.7576 81.5222 53.6342 81.4282 52.7322Z" fill="#FBE54D"/>
<path d="M90.4543 46.7618L90.0004 45.5971L90.4543 46.7618ZM81.4282 52.7322L82.6266 52.3768L82.6594 52.4876L82.6714 52.6026L81.4282 52.7322ZM84.502 62.9851L83.3675 63.5098L84.502 62.9851ZM91.1587 68.5021L91.6859 67.3687L91.1587 68.5021ZM106.332 66.9962L107.13 67.9587L107.13 67.9587L106.332 66.9962ZM107.242 53.6232L108.328 53.0049L107.242 53.6232ZM109.64 60.6415L108.455 61.0395L109.64 60.6415ZM109.471 64.6818L108.735 63.6716L108.735 63.6716L109.471 64.6818ZM90.9082 47.9265C87.2301 49.3598 84.9399 50.2226 83.6123 51.0064C82.9578 51.3929 82.7134 51.6639 82.6249 51.8227C82.5755 51.9115 82.5259 52.0373 82.6266 52.3768L80.2298 53.0876C79.9858 52.2651 79.9902 51.4152 80.441 50.606C80.8528 49.8669 81.5551 49.3178 82.3413 48.8536C83.8951 47.9363 86.4625 46.9758 90.0004 45.5971L90.9082 47.9265ZM82.6714 52.6026C82.7526 53.3816 83.7448 58.3698 85.6365 62.4604L83.3675 63.5098C81.3491 59.1455 80.2918 53.8868 80.1849 52.8618L82.6714 52.6026ZM85.6365 62.4604C85.7663 62.7409 86.0682 63.1519 86.5658 63.6608C87.0467 64.1527 87.6458 64.6711 88.2872 65.1699C89.5846 66.1789 90.9479 67.0255 91.6859 67.3687L90.6315 69.6355C89.6655 69.1862 88.1384 68.2212 86.7525 67.1434C86.0522 66.5988 85.3613 66.0049 84.7783 65.4086C84.2118 64.8293 83.6757 64.1763 83.3675 63.5098L85.6365 62.4604ZM91.6859 67.3687C92.6021 67.7949 94.2464 68.12 96.0187 68.2199C97.7984 68.3202 99.428 68.1773 100.324 67.8515L101.178 70.2009C99.8001 70.7022 97.7618 70.8221 95.878 70.7159C93.9868 70.6094 91.9719 70.259 90.6315 69.6355L91.6859 67.3687ZM100.324 67.8515C101.588 67.3916 102.667 67.3543 103.228 67.2531C103.789 67.1521 104.422 66.9554 105.535 66.0336L107.13 67.9587C105.724 69.1231 104.703 69.5279 103.671 69.7136C102.641 69.8992 102.188 69.8338 101.178 70.2009L100.324 67.8515ZM106.156 54.2415C104.934 52.0957 102.289 50.0294 99.2386 48.7445C96.1711 47.4522 93.0435 47.0944 90.9082 47.9265L90.0004 45.5971C93.0064 44.4257 96.8696 45.0337 100.209 46.4406C103.566 47.8548 106.744 50.221 108.328 53.0049L106.156 54.2415ZM109.932 63.8123C109.813 63.4851 109.61 63.1621 109.31 62.6887C109.039 62.2624 108.675 61.6927 108.455 61.0395L110.825 60.2435C110.933 60.5643 111.127 60.8868 111.42 61.3488C111.684 61.7639 112.051 62.3256 112.281 62.9577L109.932 63.8123ZM108.455 61.0395C108.276 60.5045 107.802 58.9412 107.339 57.5041C107.1 56.7642 106.858 56.0359 106.641 55.4327C106.411 54.7959 106.243 54.3945 106.156 54.2415L108.328 53.0049C108.538 53.3738 108.773 53.9762 108.992 54.5852C109.224 55.2278 109.476 55.9873 109.718 56.7371C110.215 58.2795 110.644 59.7035 110.825 60.2435L108.455 61.0395ZM105.535 66.0336C106.619 65.1354 108.037 64.1804 108.735 63.6716L110.208 65.692C109.383 66.2933 108.136 67.1246 107.13 67.9587L105.535 66.0336ZM108.735 63.6716C109.388 63.1959 110.04 62.9417 110.224 62.8512C110.278 62.8248 110.277 62.8218 110.253 62.8383C110.229 62.8554 110.138 62.9221 110.052 63.0526C109.956 63.1998 109.902 63.3724 109.896 63.5427C109.89 63.6933 109.924 63.7921 109.932 63.8123L112.281 62.9577C112.417 63.3304 112.493 63.8905 112.141 64.426C111.876 64.8297 111.471 65.0239 111.327 65.0944C110.906 65.3019 110.628 65.386 110.208 65.692L108.735 63.6716Z" fill="#351771"/>
<circle cx="0.349144" cy="0.349144" r="0.349144" transform="matrix(-0.907639 0.419752 0.419752 0.907639 105.133 66.085)" fill="#351771"/>
<circle cx="0.349144" cy="0.349144" r="0.349144" transform="matrix(-0.907639 0.419752 0.419752 0.907639 108.736 60.5674)" fill="#351771"/>
<circle cx="0.349144" cy="0.349144" r="0.349144" transform="matrix(-0.907639 0.419752 0.419752 0.907639 107.422 62.7178)" fill="#351771"/>
<circle cx="0.349144" cy="0.349144" r="0.349144" transform="matrix(-0.907639 0.419752 0.419752 0.907639 106.494 62.374)" fill="#351771"/>
<circle cx="0.349144" cy="0.349144" r="0.349144" transform="matrix(-0.907639 0.419752 0.419752 0.907639 107.469 61.1543)" fill="#351771"/>
<circle cx="0.349144" cy="0.349144" r="0.349144" transform="matrix(-0.907639 0.419752 0.419752 0.907639 106.542 60.8135)" fill="#351771"/>
<circle cx="0.349144" cy="0.349144" r="0.349144" transform="matrix(-0.907639 0.419752 0.419752 0.907639 108.443 59.9336)" fill="#351771"/>
<circle cx="0.349144" cy="0.349144" r="0.349144" transform="matrix(-0.907639 0.419752 0.419752 0.907639 107.516 59.5938)" fill="#351771"/>
<circle cx="0.349144" cy="0.349144" r="0.349144" transform="matrix(-0.907639 0.419752 0.419752 0.907639 106.637 57.6924)" fill="#351771"/>
<circle cx="0.349144" cy="0.349144" r="0.349144" transform="matrix(-0.907639 0.419752 0.419752 0.907639 109.03 61.2041)" fill="#351771"/>
<circle cx="0.349144" cy="0.349144" r="0.349144" transform="matrix(-0.907639 0.419752 0.419752 0.907639 109.663 60.9082)" fill="#351771"/>
<circle cx="0.349144" cy="0.349144" r="0.349144" transform="matrix(-0.907639 0.419752 0.419752 0.907639 108.688 62.1289)" fill="#351771"/>
<circle cx="0.349144" cy="0.349144" r="0.349144" transform="matrix(-0.907639 0.419752 0.419752 0.907639 109.275 63.3965)" fill="#351771"/>
<circle cx="0.349144" cy="0.349144" r="0.349144" transform="matrix(-0.907639 0.419752 0.419752 0.907639 108.934 64.3232)" fill="#351771"/>
<circle cx="0.349144" cy="0.349144" r="0.349144" transform="matrix(-0.907639 0.419752 0.419752 0.907639 109.956 61.542)" fill="#351771"/>
<circle cx="0.349144" cy="0.349144" r="0.349144" transform="matrix(-0.907639 0.419752 0.419752 0.907639 109.37 60.2744)" fill="#351771"/>
<circle cx="0.349144" cy="0.349144" r="0.349144" transform="matrix(-0.907639 0.419752 0.419752 0.907639 109.617 62.4717)" fill="#351771"/>
<circle cx="0.349144" cy="0.349144" r="0.349144" transform="matrix(-0.907639 0.419752 0.419752 0.907639 104.347 61.0586)" fill="#351771"/>
<circle cx="0.698289" cy="0.698289" r="0.698289" transform="matrix(-0.907639 0.419752 0.419752 0.907639 111.176 62.5166)" fill="#351771"/>
<circle cx="0.349144" cy="0.349144" r="0.349144" transform="matrix(-0.907639 0.419752 0.419752 0.907639 108.348 63.0557)" fill="#351771"/>
<circle cx="0.349144" cy="0.349144" r="0.349144" transform="matrix(-0.907639 0.419752 0.419752 0.907639 110.203 63.7393)" fill="#351771"/>
<circle cx="0.349144" cy="0.349144" r="0.349144" transform="matrix(-0.907639 0.419752 0.419752 0.907639 104.933 62.3262)" fill="#351771"/>
<circle cx="0.349144" cy="0.349144" r="0.349144" transform="matrix(-0.907639 0.419752 0.419752 0.907639 108.008 63.9854)" fill="#351771"/>
<circle cx="0.349144" cy="0.349144" r="0.349144" transform="matrix(-0.907639 0.419752 0.419752 0.907639 107.08 63.6416)" fill="#351771"/>
<circle cx="0.349144" cy="0.349144" r="0.349144" transform="matrix(-0.907639 0.419752 0.419752 0.907639 105.615 60.4727)" fill="#351771"/>
<circle cx="0.349144" cy="0.349144" r="0.349144" transform="matrix(-0.907639 0.419752 0.419752 0.907639 105.956 59.5459)" fill="#351771"/>
<circle cx="0.349144" cy="0.349144" r="0.349144" transform="matrix(-0.907639 0.419752 0.419752 0.907639 105.029 59.2051)" fill="#351771"/>
<circle cx="0.349144" cy="0.349144" r="0.349144" transform="matrix(-0.907639 0.419752 0.419752 0.907639 106.296 58.6191)" fill="#351771"/>
<circle cx="0.349144" cy="0.349144" r="0.349144" transform="matrix(-0.907639 0.419752 0.419752 0.907639 107.856 58.666)" fill="#351771"/>
<circle cx="0.349144" cy="0.349144" r="0.349144" transform="matrix(-0.907639 0.419752 0.419752 0.907639 110.25 62.1758)" fill="#351771"/>
<circle cx="0.349144" cy="0.349144" r="0.349144" transform="matrix(-0.907639 0.419752 0.419752 0.907639 105.812 64.2275)" fill="#351771"/>
<circle cx="0.349144" cy="0.349144" r="0.349144" transform="matrix(-0.907639 0.419752 0.419752 0.907639 106.106 64.8613)" fill="#351771"/>
<circle cx="0.349144" cy="0.349144" r="0.349144" transform="matrix(-0.907639 0.419752 0.419752 0.907639 109.909 63.1035)" fill="#351771"/>
<circle cx="0.349144" cy="0.349144" r="0.349144" transform="matrix(-0.907639 0.419752 0.419752 0.907639 109.322 61.835)" fill="#351771"/>
<circle cx="0.349144" cy="0.349144" r="0.349144" transform="matrix(-0.907639 0.419752 0.419752 0.907639 108.982 62.7627)" fill="#351771"/>
<circle cx="0.349144" cy="0.349144" r="0.349144" transform="matrix(-0.907639 0.419752 0.419752 0.907639 109.568 64.0293)" fill="#351771"/>
<circle cx="0.349144" cy="0.349144" r="0.349144" transform="matrix(-0.907639 0.419752 0.419752 0.907639 108.641 63.6895)" fill="#351771"/>
<circle cx="0.349144" cy="0.349144" r="0.349144" transform="matrix(-0.907639 0.419752 0.419752 0.907639 108.3 64.6162)" fill="#351771"/>
<path d="M82.0617 51.211C82.011 51.8481 82.114 52.4866 81.5895 52.196C81.334 52.0544 80.6687 51.8745 79.9239 51.0956C79.4036 50.7097 78.7702 50.3189 78.4354 49.5875C77.793 48.184 77.8954 46.2018 78.3843 46.4287C80.2248 47.2827 81.1593 48.2508 81.6269 49.1089C82.1275 50.0276 82.0928 50.8202 82.0617 51.211Z" fill="#351771"/>
<path d="M81.9126 52.2141C81.9392 51.6582 82.0687 51.146 81.6905 51.24C81.5063 51.2858 81.0445 51.2447 80.4726 51.6892C80.0881 51.8652 79.6276 52.0126 79.3343 52.5363C78.7716 53.5411 78.6517 55.2545 79 55.2043C80.3114 55.0153 81.0281 54.4653 81.4222 53.8728C81.8442 53.2384 81.8962 52.5552 81.9126 52.2141Z" fill="#351771"/>
<path d="M10.832 83.5659L6.674 91.4499V96.2559H5.018V91.4499L0.842 83.5659H2.75L5.864 89.7039L8.96 83.5659H10.832ZM16.9659 86.2479C17.9139 86.2479 18.7599 86.4519 19.5039 86.8599C20.2599 87.2679 20.8479 87.8559 21.2679 88.6239C21.6999 89.3919 21.9159 90.2919 21.9159 91.3239C21.9159 92.3559 21.6999 93.2559 21.2679 94.0239C20.8479 94.7799 20.2599 95.3619 19.5039 95.7699C18.7599 96.1779 17.9139 96.3819 16.9659 96.3819C16.0179 96.3819 15.1659 96.1779 14.4099 95.7699C13.6659 95.3619 13.0779 94.7799 12.6459 94.0239C12.2139 93.2559 11.9979 92.3559 11.9979 91.3239C11.9979 90.2919 12.2139 89.3919 12.6459 88.6239C13.0779 87.8559 13.6659 87.2679 14.4099 86.8599C15.1659 86.4519 16.0179 86.2479 16.9659 86.2479ZM16.9659 87.6879C16.3779 87.6879 15.8319 87.8199 15.3279 88.0839C14.8359 88.3479 14.4339 88.7559 14.1219 89.3079C13.8219 89.8479 13.6719 90.5199 13.6719 91.3239C13.6719 92.1159 13.8219 92.7879 14.1219 93.3399C14.4339 93.8799 14.8359 94.2819 15.3279 94.5459C15.8319 94.8099 16.3779 94.9419 16.9659 94.9419C17.5539 94.9419 18.0939 94.8099 18.5859 94.5459C19.0899 94.2819 19.4919 93.8799 19.7919 93.3399C20.1039 92.7879 20.2599 92.1159 20.2599 91.3239C20.2599 90.5199 20.1039 89.8479 19.7919 89.3079C19.4919 88.7559 19.0899 88.3479 18.5859 88.0839C18.0939 87.8199 17.5539 87.6879 16.9659 87.6879ZM32.8343 86.3739V96.2559H31.1963V93.9339C30.9443 94.7379 30.4943 95.3559 29.8463 95.7879C29.2103 96.2079 28.4663 96.4179 27.6143 96.4179C26.4743 96.4179 25.5503 96.0519 24.8423 95.3199C24.1343 94.5759 23.7803 93.5139 23.7803 92.1339V86.3739H25.4183V91.9719C25.4183 92.9559 25.6703 93.7179 26.1743 94.2579C26.6783 94.7859 27.3623 95.0499 28.2263 95.0499C29.1263 95.0499 29.8463 94.7619 30.3863 94.1859C30.9263 93.5979 31.1963 92.7459 31.1963 91.6299V86.3739H32.8343ZM37.0965 88.3719C37.4205 87.6879 37.8945 87.1599 38.5185 86.7879C39.1425 86.4039 39.8865 86.2119 40.7505 86.2119V87.9939H40.2465C39.3225 87.9939 38.5665 88.2339 37.9785 88.7139C37.3905 89.1819 37.0965 89.9619 37.0965 91.0539V96.2559H35.4585V86.3739H37.0965V88.3719ZM51.188 84.0339C50.312 84.0219 49.7 84.1719 49.352 84.4839C49.016 84.7959 48.848 85.3359 48.848 86.1039V86.3739H51.188V87.8139H48.848V96.2559H47.21V87.8139H45.788V86.3739H47.21V85.9779C47.21 83.6139 48.536 82.4859 51.188 82.5939V84.0339ZM57.4483 86.2479C58.3963 86.2479 59.2423 86.4519 59.9863 86.8599C60.7423 87.2679 61.3303 87.8559 61.7503 88.6239C62.1823 89.3919 62.3983 90.2919 62.3983 91.3239C62.3983 92.3559 62.1823 93.2559 61.7503 94.0239C61.3303 94.7799 60.7423 95.3619 59.9863 95.7699C59.2423 96.1779 58.3963 96.3819 57.4483 96.3819C56.5003 96.3819 55.6483 96.1779 54.8923 95.7699C54.1483 95.3619 53.5603 94.7799 53.1283 94.0239C52.6963 93.2559 52.4803 92.3559 52.4803 91.3239C52.4803 90.2919 52.6963 89.3919 53.1283 88.6239C53.5603 87.8559 54.1483 87.2679 54.8923 86.8599C55.6483 86.4519 56.5003 86.2479 57.4483 86.2479ZM57.4483 87.6879C56.8603 87.6879 56.3143 87.8199 55.8103 88.0839C55.3183 88.3479 54.9163 88.7559 54.6043 89.3079C54.3043 89.8479 54.1543 90.5199 54.1543 91.3239C54.1543 92.1159 54.3043 92.7879 54.6043 93.3399C54.9163 93.8799 55.3183 94.2819 55.8103 94.5459C56.3143 94.8099 56.8603 94.9419 57.4483 94.9419C58.0363 94.9419 58.5763 94.8099 59.0683 94.5459C59.5723 94.2819 59.9743 93.8799 60.2743 93.3399C60.5863 92.7879 60.7423 92.1159 60.7423 91.3239C60.7423 90.5199 60.5863 89.8479 60.2743 89.3079C59.9743 88.7559 59.5723 88.3479 59.0683 88.0839C58.5763 87.8199 58.0363 87.6879 57.4483 87.6879ZM66.1708 88.3719C66.4948 87.6879 66.9688 87.1599 67.5928 86.7879C68.2168 86.4039 68.9608 86.2119 69.8248 86.2119V87.9939H69.3208C68.3968 87.9939 67.6408 88.2339 67.0528 88.7139C66.4648 89.1819 66.1708 89.9619 66.1708 91.0539V96.2559H64.5328V86.3739H66.1708V88.3719ZM83.591 86.2119C84.743 86.2119 85.667 86.5839 86.363 87.3279C87.071 88.0599 87.425 89.1219 87.425 90.5139V96.2559H85.787V90.6579C85.787 89.6859 85.547 88.9419 85.067 88.4259C84.599 87.9099 83.951 87.6519 83.123 87.6519C82.259 87.6519 81.563 87.9399 81.035 88.5159C80.519 89.0799 80.261 89.9139 80.261 91.0179V96.2559H78.623V90.6579C78.623 89.6859 78.383 88.9419 77.903 88.4259C77.423 87.9099 76.775 87.6519 75.959 87.6519C75.083 87.6519 74.381 87.9399 73.853 88.5159C73.337 89.0799 73.079 89.9139 73.079 91.0179V96.2559H71.441V86.3739H73.079V88.6239C73.319 87.8439 73.745 87.2499 74.357 86.8419C74.981 86.4219 75.695 86.2119 76.499 86.2119C77.339 86.2119 78.065 86.4279 78.677 86.8599C79.301 87.2799 79.745 87.9039 80.009 88.7319C80.285 87.9279 80.747 87.3099 81.395 86.8779C82.043 86.4339 82.775 86.2119 83.591 86.2119ZM94.1276 83.4759C94.1276 83.1759 94.2296 82.9359 94.4336 82.7559C94.6376 82.5639 94.9076 82.4679 95.2436 82.4679C95.5796 82.4679 95.8496 82.5639 96.0536 82.7559C96.2576 82.9359 96.3596 83.1759 96.3596 83.4759C96.3596 83.7759 96.2576 84.0219 96.0536 84.2139C95.8496 84.3939 95.5796 84.4839 95.2436 84.4839C94.9076 84.4839 94.6376 84.3939 94.4336 84.2139C94.2296 84.0219 94.1276 83.7759 94.1276 83.4759ZM96.0536 86.3739V96.2559H94.4156V86.3739H96.0536ZM101.783 86.2479C102.899 86.2479 103.793 86.5419 104.465 87.1299C105.149 87.7059 105.563 88.4859 105.707 89.4699H104.141C104.069 88.8819 103.823 88.4019 103.403 88.0299C102.995 87.6459 102.443 87.4539 101.747 87.4539C101.159 87.4539 100.697 87.5979 100.361 87.8859C100.037 88.1619 99.875 88.5399 99.875 89.0199C99.875 89.3799 99.983 89.6739 100.199 89.9019C100.427 90.1179 100.703 90.2859 101.027 90.4059C101.363 90.5139 101.819 90.6339 102.395 90.7659C103.127 90.9339 103.715 91.1079 104.159 91.2879C104.615 91.4559 104.999 91.7319 105.311 92.1159C105.635 92.4999 105.797 93.0159 105.797 93.6639C105.797 94.4679 105.491 95.1219 104.879 95.6259C104.279 96.1299 103.475 96.3819 102.467 96.3819C101.291 96.3819 100.331 96.0999 99.587 95.5359C98.843 94.9719 98.405 94.1859 98.273 93.1779H99.857C99.917 93.7779 100.175 94.2639 100.631 94.6359C101.099 95.0079 101.711 95.1939 102.467 95.1939C103.031 95.1939 103.469 95.0499 103.781 94.7619C104.105 94.4739 104.267 94.0959 104.267 93.6279C104.267 93.2439 104.153 92.9379 103.925 92.7099C103.697 92.4819 103.415 92.3079 103.079 92.1879C102.743 92.0679 102.281 91.9419 101.693 91.8099C100.961 91.6419 100.373 91.4739 99.929 91.3059C99.497 91.1379 99.125 90.8739 98.813 90.5139C98.513 90.1419 98.363 89.6439 98.363 89.0199C98.363 88.1919 98.669 87.5259 99.281 87.0219C99.893 86.5059 100.727 86.2479 101.783 86.2479ZM116.483 86.2479C117.443 86.2479 118.253 86.4879 118.913 86.9679C119.585 87.4479 120.053 88.0899 120.317 88.8939V86.3739H121.955V96.2559H120.317V93.7359C120.053 94.5399 119.585 95.1819 118.913 95.6619C118.253 96.1419 117.443 96.3819 116.483 96.3819C115.607 96.3819 114.827 96.1779 114.143 95.7699C113.459 95.3619 112.919 94.7799 112.523 94.0239C112.139 93.2559 111.947 92.3559 111.947 91.3239C111.947 90.2919 112.139 89.3919 112.523 88.6239C112.919 87.8559 113.459 87.2679 114.143 86.8599C114.827 86.4519 115.607 86.2479 116.483 86.2479ZM116.951 87.7059C115.943 87.7059 115.133 88.0299 114.521 88.6779C113.921 89.3139 113.621 90.1959 113.621 91.3239C113.621 92.4519 113.921 93.3399 114.521 93.9879C115.133 94.6239 115.943 94.9419 116.951 94.9419C117.599 94.9419 118.175 94.7919 118.679 94.4919C119.195 94.1919 119.597 93.7719 119.885 93.2319C120.173 92.6799 120.317 92.0439 120.317 91.3239C120.317 90.6039 120.173 89.9679 119.885 89.4159C119.597 88.8639 119.195 88.4439 118.679 88.1559C118.175 87.8559 117.599 87.7059 116.951 87.7059ZM126.2 82.9359V96.2559H124.562V82.9359H126.2ZM140.984 86.2119C142.136 86.2119 143.06 86.5839 143.756 87.3279C144.464 88.0599 144.818 89.1219 144.818 90.5139V96.2559H143.18V90.6579C143.18 89.6859 142.94 88.9419 142.46 88.4259C141.992 87.9099 141.344 87.6519 140.516 87.6519C139.652 87.6519 138.956 87.9399 138.428 88.5159C137.912 89.0799 137.654 89.9139 137.654 91.0179V96.2559H136.016V90.6579C136.016 89.6859 135.776 88.9419 135.296 88.4259C134.816 87.9099 134.168 87.6519 133.352 87.6519C132.476 87.6519 131.774 87.9399 131.246 88.5159C130.73 89.0799 130.472 89.9139 130.472 91.0179V96.2559H128.834V86.3739H130.472V88.6239C130.712 87.8439 131.138 87.2499 131.75 86.8419C132.374 86.4219 133.088 86.2119 133.892 86.2119C134.732 86.2119 135.458 86.4279 136.07 86.8599C136.694 87.2799 137.138 87.9039 137.402 88.7319C137.678 87.9279 138.14 87.3099 138.788 86.8779C139.436 86.4339 140.168 86.2119 140.984 86.2119ZM151.843 86.2479C152.791 86.2479 153.637 86.4519 154.381 86.8599C155.137 87.2679 155.725 87.8559 156.145 88.6239C156.577 89.3919 156.793 90.2919 156.793 91.3239C156.793 92.3559 156.577 93.2559 156.145 94.0239C155.725 94.7799 155.137 95.3619 154.381 95.7699C153.637 96.1779 152.791 96.3819 151.843 96.3819C150.895 96.3819 150.043 96.1779 149.287 95.7699C148.543 95.3619 147.955 94.7799 147.523 94.0239C147.091 93.2559 146.875 92.3559 146.875 91.3239C146.875 90.2919 147.091 89.3919 147.523 88.6239C147.955 87.8559 148.543 87.2679 149.287 86.8599C150.043 86.4519 150.895 86.2479 151.843 86.2479ZM151.843 87.6879C151.255 87.6879 150.709 87.8199 150.205 88.0839C149.713 88.3479 149.311 88.7559 148.999 89.3079C148.699 89.8479 148.549 90.5199 148.549 91.3239C148.549 92.1159 148.699 92.7879 148.999 93.3399C149.311 93.8799 149.713 94.2819 150.205 94.5459C150.709 94.8099 151.255 94.9419 151.843 94.9419C152.431 94.9419 152.971 94.8099 153.463 94.5459C153.967 94.2819 154.369 93.8799 154.669 93.3399C154.981 92.7879 155.137 92.1159 155.137 91.3239C155.137 90.5199 154.981 89.8479 154.669 89.3079C154.369 88.7559 153.967 88.3479 153.463 88.0839C152.971 87.8199 152.431 87.6879 151.843 87.6879ZM162.023 86.2479C163.139 86.2479 164.033 86.5419 164.705 87.1299C165.389 87.7059 165.803 88.4859 165.947 89.4699H164.381C164.309 88.8819 164.063 88.4019 163.643 88.0299C163.235 87.6459 162.683 87.4539 161.987 87.4539C161.399 87.4539 160.937 87.5979 160.601 87.8859C160.277 88.1619 160.115 88.5399 160.115 89.0199C160.115 89.3799 160.223 89.6739 160.439 89.9019C160.667 90.1179 160.943 90.2859 161.267 90.4059C161.603 90.5139 162.059 90.6339 162.635 90.7659C163.367 90.9339 163.955 91.1079 164.399 91.2879C164.855 91.4559 165.239 91.7319 165.551 92.1159C165.875 92.4999 166.037 93.0159 166.037 93.6639C166.037 94.4679 165.731 95.1219 165.119 95.6259C164.519 96.1299 163.715 96.3819 162.707 96.3819C161.531 96.3819 160.571 96.0999 159.827 95.5359C159.083 94.9719 158.645 94.1859 158.513 93.1779H160.097C160.157 93.7779 160.415 94.2639 160.871 94.6359C161.339 95.0079 161.951 95.1939 162.707 95.1939C163.271 95.1939 163.709 95.0499 164.021 94.7619C164.345 94.4739 164.507 94.0959 164.507 93.6279C164.507 93.2439 164.393 92.9379 164.165 92.7099C163.937 92.4819 163.655 92.3079 163.319 92.1879C162.983 92.0679 162.521 91.9419 161.933 91.8099C161.201 91.6419 160.613 91.4739 160.169 91.3059C159.737 91.1379 159.365 90.8739 159.053 90.5139C158.753 90.1419 158.603 89.6439 158.603 89.0199C158.603 88.1919 158.909 87.5259 159.521 87.0219C160.133 86.5059 160.967 86.2479 162.023 86.2479ZM172.942 94.8159V96.2559H171.718C170.71 96.2559 169.954 96.0159 169.45 95.5359C168.958 95.0559 168.712 94.2519 168.712 93.1239V87.7959H167.236V86.3739H168.712V83.9079H170.368V86.3739H172.924V87.7959H170.368V93.1599C170.368 93.7959 170.482 94.2339 170.71 94.4739C170.95 94.7019 171.358 94.8159 171.934 94.8159H172.942ZM181.026 88.3719C181.35 87.6879 181.824 87.1599 182.448 86.7879C183.072 86.4039 183.816 86.2119 184.68 86.2119V87.9939H184.176C183.252 87.9939 182.496 88.2339 181.908 88.7139C181.32 89.1819 181.026 89.9619 181.026 91.0539V96.2559H179.388V86.3739H181.026V88.3719ZM195.386 90.7659C195.386 91.1139 195.362 91.4139 195.314 91.6659H187.412C187.448 92.7939 187.766 93.6399 188.366 94.2039C188.978 94.7679 189.722 95.0499 190.598 95.0499C191.39 95.0499 192.05 94.8519 192.578 94.4559C193.118 94.0479 193.448 93.5079 193.568 92.8359H195.314C195.194 93.5199 194.924 94.1319 194.504 94.6719C194.096 95.2119 193.562 95.6319 192.902 95.9319C192.242 96.2319 191.498 96.3819 190.67 96.3819C189.722 96.3819 188.882 96.1779 188.15 95.7699C187.418 95.3619 186.842 94.7799 186.422 94.0239C186.014 93.2559 185.81 92.3559 185.81 91.3239C185.81 90.2919 186.014 89.3919 186.422 88.6239C186.842 87.8559 187.418 87.2679 188.15 86.8599C188.882 86.4519 189.722 86.2479 190.67 86.2479C191.63 86.2479 192.464 86.4519 193.172 86.8599C193.892 87.2679 194.438 87.8139 194.81 88.4979C195.194 89.1819 195.386 89.9379 195.386 90.7659ZM193.73 90.8739C193.766 90.1419 193.646 89.5299 193.37 89.0379C193.094 88.5459 192.716 88.1799 192.236 87.9399C191.756 87.6999 191.234 87.5799 190.67 87.5799C189.77 87.5799 189.014 87.8619 188.402 88.4259C187.79 88.9779 187.46 89.7939 187.412 90.8739H193.73ZM201.579 86.2479C202.539 86.2479 203.349 86.4879 204.009 86.9679C204.681 87.4479 205.149 88.0899 205.413 88.8939V86.3739H207.051V96.2559H205.413V93.7359C205.149 94.5399 204.681 95.1819 204.009 95.6619C203.349 96.1419 202.539 96.3819 201.579 96.3819C200.703 96.3819 199.923 96.1779 199.239 95.7699C198.555 95.3619 198.015 94.7799 197.619 94.0239C197.235 93.2559 197.043 92.3559 197.043 91.3239C197.043 90.2919 197.235 89.3919 197.619 88.6239C198.015 87.8559 198.555 87.2679 199.239 86.8599C199.923 86.4519 200.703 86.2479 201.579 86.2479ZM202.047 87.7059C201.039 87.7059 200.229 88.0299 199.617 88.6779C199.017 89.3139 198.717 90.1959 198.717 91.3239C198.717 92.4519 199.017 93.3399 199.617 93.9879C200.229 94.6239 201.039 94.9419 202.047 94.9419C202.695 94.9419 203.271 94.7919 203.775 94.4919C204.291 94.1919 204.693 93.7719 204.981 93.2319C205.269 92.6799 205.413 92.0439 205.413 91.3239C205.413 90.6039 205.269 89.9679 204.981 89.4159C204.693 88.8639 204.291 88.4439 203.775 88.1559C203.271 87.8559 202.695 87.7059 202.047 87.7059ZM213.708 86.2479C214.668 86.2479 215.478 86.4879 216.138 86.9679C216.81 87.4479 217.278 88.0899 217.542 88.8939V82.9359H219.18V96.2559H217.542V93.7359C217.278 94.5399 216.81 95.1819 216.138 95.6619C215.478 96.1419 214.668 96.3819 213.708 96.3819C212.832 96.3819 212.052 96.1779 211.368 95.7699C210.684 95.3619 210.144 94.7799 209.748 94.0239C209.364 93.2559 209.172 92.3559 209.172 91.3239C209.172 90.2919 209.364 89.3919 209.748 88.6239C210.144 87.8559 210.684 87.2679 211.368 86.8599C212.052 86.4519 212.832 86.2479 213.708 86.2479ZM214.176 87.7059C213.168 87.7059 212.358 88.0299 211.746 88.6779C211.146 89.3139 210.846 90.1959 210.846 91.3239C210.846 92.4519 211.146 93.3399 211.746 93.9879C212.358 94.6239 213.168 94.9419 214.176 94.9419C214.824 94.9419 215.4 94.7919 215.904 94.4919C216.42 94.1919 216.822 93.7719 217.11 93.2319C217.398 92.6799 217.542 92.0439 217.542 91.3239C217.542 90.6039 217.398 89.9679 217.11 89.4159C216.822 88.8639 216.42 88.4439 215.904 88.1559C215.4 87.8559 214.824 87.7059 214.176 87.7059ZM222.471 86.3739L225.675 94.1499L228.645 86.3739H230.463L224.595 100.936H222.741L224.793 96.0939L220.635 86.3739H222.471Z" fill="#221047"/>
</svg>
