<svg width="173" height="101" viewBox="0 0 173 101" fill="none" xmlns="http://www.w3.org/2000/svg">
<path d="M99.0611 30.7289C100.327 26.461 95.7366 24.9284 82.4843 19.7642C73.0422 16.0847 56.8065 23.3117 51.6534 32.3653C50.5625 34.2821 47.912 43.2803 47.2489 45.2546C46.6481 47.0434 45.1973 48.5312 44.5565 50.2931C44.1422 51.432 45.5888 51.239 47.5588 52.6748C48.9574 53.694 51.4045 55.3344 53.3245 56.9251C57.9488 60.7564 59.3985 59.1344 63.5743 60.6533C67.7502 62.1723 77.0465 61.6184 81.1906 59.6908C84.3201 58.2352 91.8073 53.037 93.4159 49.5587C97.0064 41.7948 98.8884 32.3855 99.0611 30.7289Z" fill="#FBE54D"/>
<path d="M82.4843 19.7642L82.0304 20.9289L82.4843 19.7642ZM99.0611 30.7289L97.8627 30.3735L97.8298 30.4843L97.8178 30.5993L99.0611 30.7289ZM93.4159 49.5587L94.5504 50.0834L93.4159 49.5587ZM81.1906 59.6908L80.6634 58.5574L81.1906 59.6908ZM53.3245 56.9251L54.122 55.9625L53.3245 56.9251ZM51.6534 32.3653L52.7398 32.9837L51.6534 32.3653ZM47.2489 45.2546L48.4338 45.6526L47.2489 45.2546ZM47.5588 52.6748L48.295 51.6646L47.5588 52.6748ZM82.0304 20.9289C88.7266 23.5383 93.0487 25.1637 95.5815 26.6591C96.8386 27.4013 97.4789 28.0154 97.7766 28.5498C98.0353 29.0141 98.1075 29.5481 97.8627 30.3735L100.259 31.0844C100.648 29.7759 100.621 28.5178 99.9605 27.333C99.3395 26.2183 98.2413 25.3262 96.8525 24.5063C94.0935 22.8774 89.4942 21.1543 82.9382 18.5995L82.0304 20.9289ZM97.8178 30.5993C97.6579 32.1329 95.8086 41.407 92.2813 49.034L94.5504 50.0834C98.2042 42.1827 100.119 32.6381 100.304 30.8586L97.8178 30.5993ZM92.2813 49.034C91.9685 49.7106 91.316 50.5667 90.3734 51.5307C89.4474 52.4777 88.3088 53.4613 87.1062 54.3965C84.6864 56.2784 82.1142 57.8826 80.6634 58.5574L81.7178 60.8242C83.3966 60.0433 86.1326 58.3207 88.6409 56.37C89.9024 55.389 91.1328 54.3299 92.1609 53.2785C93.1724 52.244 94.059 51.146 94.5504 50.0834L92.2813 49.034ZM80.6634 58.5574C78.8034 59.4226 75.6286 60.0303 72.324 60.2165C69.012 60.4031 65.8483 60.1504 64.0016 59.4786L63.147 61.8281C65.4762 62.6753 69.0486 62.905 72.4647 62.7125C75.8883 62.5196 79.4336 61.8866 81.7178 60.8242L80.6634 58.5574ZM64.0016 59.4786C61.7862 58.6728 60.0669 58.6472 58.8391 58.4261C57.6119 58.2052 56.2877 57.7569 54.122 55.9625L52.527 57.8876C54.9856 59.9246 56.6984 60.5809 58.3961 60.8866C60.0931 61.1921 61.1866 61.115 63.147 61.8281L64.0016 59.4786ZM52.7398 32.9837C55.1347 28.7758 60.2159 24.8556 65.9458 22.4418C71.6931 20.0206 77.7448 19.2588 82.0304 20.9289L82.9382 18.5995C77.7818 16.5901 70.9946 17.602 64.9752 20.1379C58.9383 22.6811 53.3251 26.9012 50.5671 31.747L52.7398 32.9837ZM45.7312 50.7204C45.9961 49.9919 46.4366 49.2989 46.973 48.4539C47.4796 47.656 48.0776 46.7132 48.4338 45.6526L46.0639 44.8566C45.8193 45.5848 45.3916 46.2804 44.8624 47.114C44.363 47.9006 43.7577 48.8324 43.3818 49.8658L45.7312 50.7204ZM48.4338 45.6526C48.7645 44.6679 49.6155 41.8552 50.4804 39.1719C50.9198 37.8088 51.3691 36.4583 51.7742 35.3341C52.1915 34.1762 52.5285 33.3549 52.7398 32.9837L50.5671 31.747C50.2329 32.3342 49.8295 33.3564 49.4223 34.4865C49.0029 35.6502 48.5435 37.032 48.101 38.4049C47.2021 41.1935 46.3963 43.867 46.0639 44.8566L48.4338 45.6526ZM54.122 55.9625C52.1633 54.3398 49.6302 52.6376 48.295 51.6646L46.8226 53.685C48.2847 54.7505 50.6457 56.329 52.527 57.8876L54.122 55.9625ZM48.295 51.6646C47.1936 50.8619 46.1525 50.4661 45.7153 50.251C45.4293 50.1103 45.5199 50.1075 45.6183 50.2571C45.8033 50.5386 45.7068 50.7875 45.7312 50.7204L43.3818 49.8658C43.199 50.3682 43.128 51.0201 43.5293 51.6305C43.844 52.1092 44.3417 52.3614 44.6118 52.4943C45.2868 52.8263 45.954 53.0519 46.8226 53.685L48.295 51.6646Z" fill="#351771"/>
<circle cx="55.8407" cy="56.1021" r="0.641213" transform="rotate(24.8189 55.8407 56.1021)" fill="#351771"/>
<circle cx="49.2225" cy="45.9703" r="0.641213" transform="rotate(24.8189 49.2225 45.9703)" fill="#351771"/>
<circle cx="51.6356" cy="49.9185" r="0.641213" transform="rotate(24.8189 51.6356 49.9185)" fill="#351771"/>
<circle cx="53.3402" cy="49.2877" r="0.641213" transform="rotate(24.8189 53.3402 49.2877)" fill="#351771"/>
<circle cx="51.5506" cy="47.0465" r="0.641213" transform="rotate(24.8189 51.5506 47.0465)" fill="#351771"/>
<circle cx="53.2528" cy="46.4215" r="0.641213" transform="rotate(24.8189 53.2528 46.4215)" fill="#351771"/>
<circle cx="49.7611" cy="44.8062" r="0.641213" transform="rotate(24.8189 49.7611 44.8062)" fill="#351771"/>
<circle cx="51.4632" cy="44.1802" r="0.641213" transform="rotate(24.8189 51.4632 44.1802)" fill="#351771"/>
<circle cx="53.078" cy="40.689" r="0.641213" transform="rotate(24.8189 53.078 40.689)" fill="#351771"/>
<circle cx="48.682" cy="47.1392" r="0.641213" transform="rotate(24.8189 48.682 47.1392)" fill="#351771"/>
<circle cx="47.5204" cy="46.5963" r="0.641213" transform="rotate(24.8189 47.5204 46.5963)" fill="#351771"/>
<circle cx="49.3099" cy="48.8365" r="0.641213" transform="rotate(24.8189 49.3099 48.8365)" fill="#351771"/>
<circle cx="48.2337" cy="51.1646" r="0.641213" transform="rotate(24.8189 48.2337 51.1646)" fill="#351771"/>
<circle cx="48.8592" cy="52.8668" r="0.641213" transform="rotate(24.8189 48.8592 52.8668)" fill="#351771"/>
<circle cx="46.9823" cy="47.7603" r="0.641213" transform="rotate(24.8189 46.9823 47.7603)" fill="#351771"/>
<circle cx="48.0589" cy="45.4322" r="0.641213" transform="rotate(24.8189 48.0589 45.4322)" fill="#351771"/>
<circle cx="47.6053" cy="49.4674" r="0.641213" transform="rotate(24.8189 47.6053 49.4674)" fill="#351771"/>
<circle cx="57.2831" cy="46.8726" r="0.641213" transform="rotate(24.8189 57.2831 46.8726)" fill="#351771"/>
<circle cx="45.0544" cy="50.4005" r="1.28243" transform="rotate(24.8189 45.0544 50.4005)" fill="#351771"/>
<circle cx="49.9359" cy="50.5386" r="0.641213" transform="rotate(24.8189 49.9359 50.5386)" fill="#351771"/>
<circle cx="46.5287" cy="51.7955" r="0.641213" transform="rotate(24.8189 46.5287 51.7955)" fill="#351771"/>
<circle cx="56.2064" cy="49.1998" r="0.641213" transform="rotate(24.8189 56.2064 49.1998)" fill="#351771"/>
<circle cx="50.5589" cy="52.2466" r="0.641213" transform="rotate(24.8189 50.5589 52.2466)" fill="#351771"/>
<circle cx="52.2635" cy="51.6158" r="0.641213" transform="rotate(24.8189 52.2635 51.6158)" fill="#351771"/>
<circle cx="54.9554" cy="45.7955" r="0.641213" transform="rotate(24.8189 54.9554 45.7955)" fill="#351771"/>
<circle cx="54.3294" cy="44.0933" r="0.641213" transform="rotate(24.8189 54.3294 44.0933)" fill="#351771"/>
<circle cx="56.0321" cy="43.4674" r="0.641213" transform="rotate(24.8189 56.0321 43.4674)" fill="#351771"/>
<circle cx="53.704" cy="42.3912" r="0.641213" transform="rotate(24.8189 53.704 42.3912)" fill="#351771"/>
<circle cx="50.8377" cy="42.4781" r="0.641213" transform="rotate(24.8189 50.8377 42.4781)" fill="#351771"/>
<circle cx="46.4437" cy="48.9244" r="0.641213" transform="rotate(24.8189 46.4437 48.9244)" fill="#351771"/>
<circle cx="54.5916" cy="52.692" r="0.641213" transform="rotate(24.8189 54.5916 52.692)" fill="#351771"/>
<circle cx="54.0536" cy="53.856" r="0.641213" transform="rotate(24.8189 54.0536 53.856)" fill="#351771"/>
<circle cx="47.0697" cy="50.6265" r="0.641213" transform="rotate(24.8189 47.0697 50.6265)" fill="#351771"/>
<circle cx="48.1463" cy="48.2984" r="0.641213" transform="rotate(24.8189 48.1463 48.2984)" fill="#351771"/>
<circle cx="48.7718" cy="50.0006" r="0.641213" transform="rotate(24.8189 48.7718 50.0006)" fill="#351771"/>
<circle cx="47.6952" cy="52.3287" r="0.641213" transform="rotate(24.8189 47.6952 52.3287)" fill="#351771"/>
<circle cx="49.3973" cy="51.7027" r="0.641213" transform="rotate(24.8189 49.3973 51.7027)" fill="#351771"/>
<circle cx="50.0233" cy="53.4049" r="0.641213" transform="rotate(24.8189 50.0233 53.4049)" fill="#351771"/>
<path d="M97.8984 27.9351C97.9915 29.1051 97.8023 30.2777 98.7655 29.744C99.2348 29.4839 100.457 29.1536 101.824 27.7231C102.78 27.0145 103.943 26.2967 104.558 24.9535C105.738 22.3759 105.55 18.7356 104.652 19.1522C101.272 20.7206 99.5556 22.4986 98.6969 24.0744C97.7774 25.7618 97.8412 27.2173 97.8984 27.9351Z" fill="#351771"/>
<path d="M98.1719 29.7773C98.1229 28.7564 97.8851 27.8157 98.5797 27.9883C98.918 28.0724 99.7661 27.9969 100.816 28.8132C101.522 29.1366 102.368 29.4073 102.907 30.369C103.94 32.2144 104.161 35.361 103.521 35.2688C101.112 34.9218 99.7962 33.9118 99.0725 32.8236C98.2975 31.6584 98.2019 30.4037 98.1719 29.7773Z" fill="#351771"/>
<path d="M54.6104 28.2159C54.6386 27.5275 54.3162 27.16 52.3917 28.2285L52.3914 28.2287C50.5826 29.233 50.5825 29.2331 48.8807 30.6622C48.7897 30.9912 47.4107 32.0375 47.386 32.3589C47.3636 32.6501 47.2023 32.9283 47.1729 33.217C47.1539 33.4036 47.3636 33.3198 47.7137 33.4606C47.9621 33.5606 48.3915 33.714 48.7399 33.8799C49.579 34.2796 49.7351 33.9813 50.4192 34.051C51.1034 34.1207 52.4774 33.6853 53.0262 33.239C53.4407 32.902 54.3672 31.8383 54.4768 31.2554C54.7214 29.9543 54.6472 28.4711 54.6104 28.2159Z" fill="#FBE54D"/>
<path d="M52.3917 28.2285L52.7554 28.8845L52.7558 28.8842L52.3917 28.2285ZM54.6104 28.2159L53.861 28.1852L53.8582 28.2545L53.8681 28.3232L54.6104 28.2159ZM54.4768 31.2554L55.2139 31.394L55.2139 31.394L54.4768 31.2554ZM53.0262 33.239L52.553 32.6571L52.553 32.6571L53.0262 33.239ZM48.7399 33.8799L49.0624 33.2028L49.0624 33.2028L48.7399 33.8799ZM48.8807 30.6622L48.3984 30.0879L48.2201 30.2376L48.1579 30.4621L48.8807 30.6622ZM52.3914 28.2287L52.0277 27.5728L52.0273 27.573L52.3914 28.2287ZM47.386 32.3589L48.1338 32.4164L47.386 32.3589ZM47.7137 33.4606L47.9935 32.7648L47.9935 32.7648L47.7137 33.4606ZM52.7558 28.8842C53.2177 28.6278 53.5573 28.4724 53.8018 28.3869C54.0608 28.2964 54.1461 28.3085 54.1296 28.3062C54.0534 28.2955 53.9316 28.2268 53.8732 28.1081C53.8452 28.0512 53.8666 28.0494 53.861 28.1852L55.3598 28.2467C55.3683 28.0383 55.3599 27.7324 55.2193 27.4463C55.0483 27.0985 54.7309 26.8756 54.3371 26.8206C54.003 26.7739 53.6486 26.8514 53.3067 26.971C52.9504 27.0956 52.528 27.295 52.0277 27.5728L52.7558 28.8842ZM53.8681 28.3232C53.8681 28.3231 53.8684 28.3256 53.8691 28.3309C53.8697 28.3361 53.8704 28.3432 53.8713 28.3521C53.8731 28.3701 53.8752 28.3936 53.8774 28.4227C53.8817 28.4808 53.8863 28.5565 53.8901 28.6474C53.8979 28.8292 53.9027 29.0652 53.8992 29.3336C53.8921 29.8748 53.8511 30.5241 53.7397 31.1168L55.2139 31.394C55.4752 30.004 55.4001 28.4372 55.3527 28.1087L53.8681 28.3232ZM53.7397 31.1168C53.7397 31.1166 53.7394 31.1184 53.7384 31.1224C53.7373 31.1263 53.7358 31.1319 53.7334 31.1392C53.7286 31.154 53.7213 31.1739 53.7106 31.1989C53.6888 31.2497 53.657 31.3126 53.6139 31.3868C53.5271 31.5359 53.4093 31.7053 53.2745 31.8781C52.998 32.2325 52.7017 32.5362 52.553 32.6571L53.4994 33.8209C53.7652 33.6048 54.1393 33.2082 54.4572 32.8007C54.6195 32.5926 54.7797 32.3658 54.9105 32.141C55.0341 31.9284 55.1629 31.6651 55.2139 31.394L53.7397 31.1168ZM52.553 32.6571C52.3875 32.7917 52.0127 32.9776 51.5492 33.1228C51.0815 33.2694 50.6841 33.3241 50.4952 33.3049L50.3432 34.7971C50.8385 34.8476 51.4703 34.7195 51.9977 34.5542C52.5295 34.3876 53.1161 34.1326 53.4994 33.8209L52.553 32.6571ZM50.4952 33.3049C50.0722 33.2618 49.6725 33.335 49.5858 33.341C49.4994 33.347 49.379 33.3536 49.0624 33.2028L48.4174 34.557C48.9399 34.8059 49.317 34.8632 49.6895 34.8374C50.0616 34.8116 50.0821 34.7705 50.3432 34.7971L50.4952 33.3049ZM49.363 31.2366C50.2246 30.5131 50.6195 30.1824 51.0232 29.9026C51.4247 29.6243 51.8396 29.393 52.7555 28.8844L52.0273 27.573C51.1344 28.0688 50.6449 28.3397 50.1687 28.6698C49.6947 28.9983 49.2386 29.3823 48.3984 30.0879L49.363 31.2366ZM52.7551 28.8846L52.7554 28.8845L52.0281 27.5726L52.0277 27.5728L52.7551 28.8846ZM47.919 33.293C47.9239 33.2455 47.9411 33.1853 47.9944 33.0236C48.0372 32.8936 48.1145 32.6668 48.1338 32.4164L46.6382 32.3014C46.6351 32.3421 46.6205 32.4001 46.5697 32.5542C46.5294 32.6765 46.4513 32.8998 46.4267 33.141L47.919 33.293ZM48.1338 32.4164C48.121 32.5823 48.047 32.6689 48.0764 32.625C48.0877 32.6081 48.1169 32.5701 48.1735 32.5074C48.286 32.3829 48.4433 32.2306 48.6263 32.0559C48.7989 31.8912 48.9971 31.704 49.1549 31.5385C49.2342 31.4554 49.3167 31.364 49.387 31.2722C49.4425 31.1997 49.5513 31.051 49.6035 30.8623L48.1579 30.4621C48.1874 30.3557 48.2332 30.3116 48.1958 30.3606C48.1731 30.3902 48.1327 30.437 48.0695 30.5033C47.9424 30.6365 47.7772 30.7928 47.5906 30.9709C47.4144 31.139 47.2166 31.3291 47.0608 31.5015C46.9832 31.5873 46.8999 31.6863 46.8307 31.7895C46.7797 31.8655 46.6571 32.0551 46.6382 32.3014L48.1338 32.4164ZM49.0624 33.2028C48.6868 33.0239 48.1983 32.8472 47.9935 32.7648L47.4338 34.1564C47.726 34.274 48.0962 34.404 48.4174 34.557L49.0624 33.2028ZM47.9935 32.7648C47.7383 32.6621 47.4771 32.6258 47.4611 32.6224C47.4521 32.6205 47.475 32.6246 47.5105 32.6382C47.5467 32.652 47.6253 32.6863 47.7069 32.7611C47.7973 32.8439 47.8629 32.9504 47.8966 33.0661C47.9269 33.1706 47.923 33.2543 47.919 33.293L46.4267 33.141C46.4079 33.3259 46.4349 33.6299 46.6934 33.8669C46.8821 34.0399 47.107 34.0806 47.1487 34.0895C47.3203 34.1261 47.339 34.1183 47.4338 34.1564L47.9935 32.7648Z" fill="#351771"/>
<path d="M43.9995 29.5869C44.0141 29.2299 43.8469 29.0392 42.8489 29.5934L42.8487 29.5935C41.9107 30.1144 41.9106 30.1144 41.0281 30.8555C40.9808 31.0261 40.2657 31.5688 40.2529 31.7354C40.2413 31.8865 40.1576 32.0307 40.1424 32.1805C40.1325 32.2772 40.2413 32.2338 40.4228 32.3068C40.5517 32.3586 40.7743 32.4382 40.955 32.5243C41.3902 32.7315 41.4711 32.5768 41.8259 32.613C42.1807 32.6491 42.8933 32.4233 43.1779 32.1919C43.3929 32.0171 43.8734 31.4655 43.9302 31.1632C44.0571 30.4884 44.0186 29.7192 43.9995 29.5869Z" fill="#FBE54D"/>
<path d="M42.8489 29.5934L43.2128 30.2492L43.213 30.2491L42.8489 29.5934ZM43.9995 29.5869L43.2501 29.5561L43.2473 29.6254L43.2572 29.6941L43.9995 29.5869ZM43.9302 31.1632L43.1931 31.0246L43.1931 31.0246L43.9302 31.1632ZM43.1779 32.1919L43.6511 32.7738L43.1779 32.1919ZM40.955 32.5243L41.2775 31.8471L41.2775 31.8471L40.955 32.5243ZM41.0281 30.8555L40.5457 30.2812L40.3674 30.431L40.3052 30.6554L41.0281 30.8555ZM42.8487 29.5935L42.4848 28.9377L42.4846 28.9378L42.8487 29.5935ZM40.2529 31.7354L41.0007 31.7929L40.2529 31.7354ZM40.4228 32.3068L40.1429 33.0026L40.1429 33.0026L40.4228 32.3068ZM43.213 30.2491C43.4432 30.1213 43.5995 30.0513 43.6994 30.0164C43.8137 29.9764 43.7931 30.0042 43.7002 29.9912C43.6426 29.9832 43.558 29.9592 43.4715 29.8979C43.3837 29.8358 43.3266 29.7583 43.2932 29.6902C43.2381 29.5782 43.2523 29.5032 43.2501 29.5561L44.7489 29.6176C44.754 29.4921 44.7528 29.2594 44.6393 29.0285C44.4954 28.7358 44.2251 28.55 43.9077 28.5057C43.6501 28.4697 43.4015 28.5314 43.2042 28.6004C42.9925 28.6745 42.7536 28.7885 42.4848 28.9377L43.213 30.2491ZM43.2572 29.6941C43.2563 29.6876 43.2611 29.7288 43.2652 29.826C43.269 29.9137 43.2714 30.0295 43.2696 30.1617C43.2661 30.4308 43.2457 30.745 43.1931 31.0246L44.6673 31.3017C44.8109 30.5381 44.7715 29.6854 44.7418 29.4796L43.2572 29.6941ZM43.1931 31.0246C43.2025 30.9748 43.2121 30.9783 43.1706 31.0497C43.1362 31.1089 43.0853 31.1829 43.022 31.264C42.8886 31.4351 42.7537 31.5702 42.7048 31.61L43.6511 32.7738C43.8171 32.6388 44.0299 32.4107 44.2047 32.1866C44.2955 32.0702 44.3888 31.9388 44.4672 31.8039C44.5385 31.6814 44.6295 31.5027 44.6673 31.3017L43.1931 31.0246ZM42.7048 31.61C42.7049 31.6099 42.7021 31.6122 42.6956 31.6166C42.6892 31.621 42.6804 31.6267 42.6688 31.6336C42.6452 31.6477 42.6142 31.6643 42.5758 31.6824C42.4984 31.719 42.4042 31.7557 42.304 31.7871C42.2036 31.8185 42.1073 31.8415 42.0265 31.8547C41.9385 31.869 41.8995 31.8666 41.9019 31.8668L41.7499 33.3591C42.0806 33.3928 42.4646 33.3087 42.7525 33.2185C43.0447 33.1269 43.3999 32.978 43.6511 32.7738L42.7048 31.61ZM41.9019 31.8668C41.7522 31.8516 41.6295 31.8568 41.5296 31.8665C41.4848 31.8708 41.4415 31.8763 41.4176 31.8793C41.3891 31.8828 41.377 31.884 41.3687 31.8846C41.3625 31.885 41.3633 31.8847 41.3676 31.8849C41.3721 31.8852 41.3752 31.8857 41.3751 31.8857C41.3744 31.8855 41.3461 31.8798 41.2775 31.8471L40.6325 33.2014C40.9531 33.3541 41.2104 33.3992 41.4725 33.381C41.7341 33.3629 41.6535 33.3493 41.7499 33.3591L41.9019 31.8668ZM41.5104 31.4299C41.9623 31.0504 42.1524 30.8917 42.3448 30.7583C42.535 30.6265 42.7323 30.516 43.2128 30.2492L42.4846 28.9378C42.0271 29.1918 41.7553 29.3418 41.4903 29.5255C41.2276 29.7076 40.9764 29.9196 40.5457 30.2812L41.5104 31.4299ZM43.2126 30.2493L43.2128 30.2492L42.485 28.9376L42.4848 28.9377L43.2126 30.2493ZM40.8885 32.2565C40.8863 32.2785 40.8805 32.2865 40.9113 32.1931C40.9316 32.1315 40.9868 31.9733 41.0007 31.7929L39.5051 31.678C39.5073 31.6486 39.5149 31.638 39.4867 31.7237C39.4763 31.7552 39.4575 31.8113 39.4413 31.8699C39.4245 31.9311 39.4057 32.0116 39.3962 32.1044L40.8885 32.2565ZM41.0007 31.7929C40.9924 31.9003 40.9611 31.9768 40.9466 32.0089C40.9302 32.0451 40.9152 32.068 40.9108 32.0745C40.9027 32.0866 40.9048 32.0815 40.9291 32.0546C40.9771 32.0015 41.0488 31.9317 41.1454 31.8395C41.2316 31.7572 41.3423 31.6528 41.4315 31.5592C41.4765 31.512 41.5294 31.4539 41.5773 31.3913C41.6104 31.348 41.7041 31.2245 41.7509 31.0556L40.3052 30.6554C40.326 30.5806 40.3541 30.5304 40.3644 30.5128C40.3769 30.4916 40.386 30.4799 40.3861 30.4797C40.387 30.4785 40.3844 30.4819 40.3768 30.4906C40.3695 30.499 40.3594 30.51 40.3461 30.5239C40.2876 30.5853 40.2098 30.6589 40.1097 30.7544C40.02 30.8401 39.9076 30.9478 39.8164 31.0487C39.7711 31.0987 39.7149 31.1647 39.665 31.239C39.6334 31.2862 39.5225 31.451 39.5051 31.678L41.0007 31.7929ZM41.2775 31.8471C41.0697 31.7481 40.7878 31.6452 40.7027 31.611L40.1429 33.0026C40.3155 33.072 40.479 33.1283 40.6325 33.2014L41.2775 31.8471ZM40.7027 31.611C40.5317 31.5422 40.3379 31.5128 40.367 31.519C40.3693 31.5195 40.4021 31.5261 40.4461 31.5429C40.4907 31.5599 40.5763 31.5981 40.6632 31.6778C40.759 31.7656 40.8286 31.8782 40.8644 32.0015C40.8969 32.1136 40.8936 32.2065 40.8885 32.2565L39.3962 32.1044C39.3797 32.2669 39.402 32.5566 39.6497 32.7837C39.8277 32.9467 40.0355 32.982 40.0546 32.9861C40.0813 32.9918 40.11 32.9968 40.1184 32.9983C40.132 33.0008 40.1378 33.0019 40.1422 33.0028C40.1484 33.0042 40.1467 33.0041 40.1429 33.0026L40.7027 31.611Z" fill="#351771"/>
<path d="M55.7041 26.7383C59.8104 26.6499 68.44 27.1602 70.1084 29.9087" stroke="#351771" stroke-width="7" stroke-linecap="round" stroke-linejoin="round"/>
<path d="M90.6084 11.5488C89.8084 9.54881 55.2751 18.3821 38.1084 23.0488C42.6084 28.5488 88.1084 28.0488 92.1084 25.0488C96.1084 22.0488 91.6084 14.0488 90.6084 11.5488Z" fill="#FBE54D" stroke="#351771" stroke-width="3"/>
<path d="M127.608 3.25879L88.6084 10.7588L93.1084 14.7588C94.7751 14.4255 99.4084 13.6588 104.608 13.2588C111.108 12.7588 113.608 14.2588 127.608 13.2588C138.808 12.4588 132.608 0.758786 127.608 3.25879Z" fill="#351771" stroke="#351771"/>
<path d="M82.068 20.5618C81.9592 20.308 81.6653 20.1904 81.4114 20.2992C81.1576 20.408 81.04 20.7019 81.1488 20.9557L82.068 20.5618ZM83.6084 27.2588C83.6084 26.3003 83.6096 25.5049 83.4114 24.5036C83.2141 23.507 82.824 22.3258 82.068 20.5618L81.1488 20.9557C81.8928 22.6918 82.2527 23.7998 82.4304 24.6978C82.6072 25.5912 82.6084 26.2957 82.6084 27.2588H83.6084Z" fill="#351771"/>
<path d="M77.8863 23.9059C77.8462 23.6327 77.5922 23.4437 77.319 23.4838C77.0458 23.5239 76.8568 23.7779 76.8969 24.0511L77.8863 23.9059ZM77.1928 27.8786C77.4958 27.5504 77.8162 27.2116 77.9614 26.5806C78.0969 25.9922 78.074 25.1848 77.8863 23.9059L76.8969 24.0511C77.0825 25.3159 77.0774 25.9632 76.9869 26.3563C76.9062 26.7069 76.7568 26.8767 76.4581 27.2001L77.1928 27.8786Z" fill="#351771"/>
<path d="M81.6383 23.9059C81.5982 23.6327 81.3442 23.4437 81.071 23.4838C80.7977 23.5239 80.6088 23.7779 80.6489 24.0511L81.6383 23.9059ZM80.9447 27.8786C81.2478 27.5504 81.5681 27.2116 81.7134 26.5806C81.8488 25.9922 81.8259 25.1848 81.6383 23.9059L80.6489 24.0511C80.8345 25.3159 80.8293 25.9632 80.7388 26.3563C80.6581 26.7069 80.5087 26.8767 80.2101 27.2001L80.9447 27.8786Z" fill="#351771"/>
<path d="M84.6383 23.9059C84.5982 23.6327 84.3442 23.4437 84.071 23.4838C83.7977 23.5239 83.6088 23.7779 83.6489 24.0511L84.6383 23.9059ZM83.9447 27.8786C84.2478 27.5504 84.5681 27.2116 84.7134 26.5806C84.8488 25.9922 84.8259 25.1848 84.6383 23.9059L83.6489 24.0511C83.8345 25.3159 83.8293 25.9632 83.7388 26.3563C83.6581 26.7069 83.5087 26.8767 83.2101 27.2001L83.9447 27.8786Z" fill="#351771"/>
<path d="M86.6383 23.9059C86.5982 23.6327 86.3442 23.4437 86.071 23.4838C85.7977 23.5239 85.6088 23.7779 85.6489 24.0511L86.6383 23.9059ZM85.9447 27.8786C86.2478 27.5504 86.5681 27.2116 86.7134 26.5806C86.8488 25.9922 86.8259 25.1848 86.6383 23.9059L85.6489 24.0511C85.8345 25.3159 85.8293 25.9632 85.7388 26.3563C85.6581 26.7069 85.5087 26.8767 85.2101 27.2001L85.9447 27.8786Z" fill="#351771"/>
<path d="M86.568 19.0618C86.4592 18.808 86.1653 18.6904 85.9114 18.7992C85.6576 18.908 85.54 19.2019 85.6488 19.4557L86.568 19.0618ZM88.6084 26.2588C88.6084 24.2253 88.0686 22.5634 86.568 19.0618L85.6488 19.4557C87.1482 22.9542 87.6084 24.4492 87.6084 26.2588H88.6084Z" fill="#351771"/>
<path d="M59.7656 27.7369C59.1929 27.9492 59.388 28.5202 59.8695 30.2269C60.2126 31.443 62.302 32.4655 63.713 32.2571C64.0117 32.213 65.2178 31.7636 65.4889 31.673C65.7345 31.5909 66.0144 31.6159 66.2602 31.5398C66.4191 31.4907 66.2828 31.364 66.2852 31.0576C66.2868 30.8401 66.2739 30.4708 66.2973 30.1571C66.3538 29.4016 66.0592 29.3873 65.8955 28.858C65.7318 28.3288 64.9319 27.4608 64.3894 27.2063C63.9798 27.0141 62.8099 26.6897 62.2973 26.8061C61.1531 27.066 59.9626 27.6232 59.7656 27.7369Z" fill="#FBE54D"/>
<path d="M59.8695 30.2269L60.5914 30.0233L59.8695 30.2269ZM59.7656 27.7369L60.0263 28.4401L60.0856 28.4181L60.1404 28.3865L59.7656 27.7369ZM62.2973 26.8061L62.1311 26.0747L62.1311 26.0747L62.2973 26.8061ZM64.3894 27.2063L64.7079 26.5273L64.7079 26.5273L64.3894 27.2063ZM66.2973 30.1571L67.0452 30.2131L66.2973 30.1571ZM63.713 32.2571L63.8226 32.9991L63.713 32.2571ZM65.4889 31.673L65.2511 30.9617L65.4889 31.673ZM66.2852 31.0576L65.5352 31.052L65.5352 31.052L66.2852 31.0576ZM60.5914 30.0233C60.3372 29.1223 60.1976 28.6451 60.1687 28.3485C60.1553 28.2118 60.1815 28.2341 60.1441 28.3094C60.0906 28.417 60.0062 28.4475 60.0263 28.4401L59.5049 27.0336C59.2386 27.1323 58.9639 27.3139 58.801 27.6416C58.6541 27.937 58.6518 28.2485 58.6758 28.4944C58.7216 28.9632 58.9204 29.6248 59.1477 30.4306L60.5914 30.0233ZM60.1404 28.3865C60.1402 28.3866 60.1418 28.3857 60.1459 28.3835C60.1498 28.3813 60.1552 28.3785 60.1621 28.3748C60.1761 28.3675 60.1945 28.3581 60.2174 28.3467C60.2634 28.3239 60.3237 28.295 60.3967 28.2614C60.5427 28.1943 60.7341 28.1109 60.9546 28.0227C61.3995 27.8449 61.9434 27.6556 62.4634 27.5375L62.1311 26.0747C60.907 26.3528 59.6466 26.9396 59.3908 27.0872L60.1404 28.3865ZM62.4634 27.5375C62.4626 27.5376 62.4681 27.5364 62.4812 27.535C62.494 27.5336 62.5118 27.5323 62.5349 27.5318C62.5819 27.5307 62.642 27.5328 62.7151 27.5394C62.8623 27.5528 63.0364 27.582 63.2193 27.6226C63.5963 27.7064 63.9335 27.8208 64.0709 27.8853L64.7079 26.5273C64.4357 26.3996 63.9831 26.2557 63.5446 26.1583C63.3197 26.1084 63.0796 26.0663 62.8505 26.0455C62.6337 26.0259 62.3728 26.0198 62.1311 26.0747L62.4634 27.5375ZM64.0709 27.8853C64.2131 27.952 64.4705 28.1506 64.7312 28.4354C64.9982 28.7272 65.1471 28.9768 65.179 29.0797L66.612 28.6364C66.4801 28.21 66.1473 27.761 65.8378 27.4228C65.522 27.0777 65.1082 26.715 64.7079 26.5273L64.0709 27.8853ZM65.179 29.0797C65.2873 29.4298 65.5028 29.7485 65.5164 29.7741C65.5326 29.8047 65.5394 29.8232 65.5448 29.8512C65.5515 29.8861 65.56 29.9599 65.5494 30.1012L67.0452 30.2131C67.0827 29.7122 67.0029 29.3756 66.8416 29.0714C66.6811 28.7687 66.6674 28.8155 66.612 28.6364L65.179 29.0797ZM63.6034 31.5152C63.0979 31.5898 62.3829 31.4432 61.7339 31.1093C61.0635 30.7643 60.6791 30.3344 60.5914 30.0233L59.1477 30.4306C59.403 31.3355 60.2349 32.0249 61.0477 32.4431C61.882 32.8724 62.9171 33.1328 63.8226 32.9991L63.6034 31.5152ZM66.0386 30.8233C66.0002 30.8352 65.9476 30.8427 65.7977 30.8581C65.6774 30.8705 65.4647 30.8903 65.2511 30.9617L65.7266 32.3843C65.7587 32.3736 65.8087 32.3649 65.9512 32.3502C66.0642 32.3386 66.2743 32.3205 66.4818 32.2563L66.0386 30.8233ZM65.2511 30.9617C65.117 31.0065 64.7099 31.1545 64.3657 31.2739C64.182 31.3375 64.0032 31.3977 63.8548 31.4441C63.7805 31.4673 63.7182 31.4856 63.6693 31.4988C63.6147 31.5135 63.5968 31.5161 63.6034 31.5152L63.8226 32.9991C63.9644 32.9781 64.1504 32.9232 64.302 32.8759C64.4722 32.8227 64.6679 32.7567 64.8569 32.6911C65.2582 32.5521 65.5897 32.4301 65.7266 32.3843L65.2511 30.9617ZM65.5494 30.1012C65.5235 30.4474 65.5364 30.8854 65.5352 31.052L67.0351 31.0633C67.0372 30.7949 67.0242 30.4943 67.0452 30.2131L65.5494 30.1012ZM65.5352 31.052C65.5333 31.2996 65.5953 31.5394 65.5936 31.5301C65.5935 31.5295 65.5923 31.5226 65.5909 31.5114C65.5896 31.5004 65.5877 31.4809 65.5874 31.4556C65.5868 31.4067 65.5917 31.3131 65.6363 31.2038C65.6846 31.0852 65.7626 30.9894 65.8518 30.9214C65.9321 30.8601 66.005 30.8337 66.0386 30.8233L66.4818 32.2563C66.6321 32.2099 66.897 32.0848 67.0254 31.7699C67.1252 31.525 67.076 31.2978 67.0692 31.2603C67.0396 31.0988 67.0347 31.1221 67.0351 31.0633L65.5352 31.052Z" fill="#351771"/>
<path d="M0.774 87.6487C0.774 86.4247 1.05 85.3267 1.602 84.3547C2.154 83.3707 2.904 82.6027 3.852 82.0507C4.812 81.4987 5.874 81.2227 7.038 81.2227C8.406 81.2227 9.6 81.5527 10.62 82.2127C11.64 82.8727 12.384 83.8087 12.852 85.0207H10.89C10.542 84.2647 10.038 83.6827 9.378 83.2747C8.73 82.8667 7.95 82.6627 7.038 82.6627C6.162 82.6627 5.376 82.8667 4.68 83.2747C3.984 83.6827 3.438 84.2647 3.042 85.0207C2.646 85.7647 2.448 86.6407 2.448 87.6487C2.448 88.6447 2.646 89.5207 3.042 90.2767C3.438 91.0207 3.984 91.5967 4.68 92.0047C5.376 92.4127 6.162 92.6167 7.038 92.6167C7.95 92.6167 8.73 92.4187 9.378 92.0227C10.038 91.6147 10.542 91.0327 10.89 90.2767H12.852C12.384 91.4767 11.64 92.4067 10.62 93.0667C9.6 93.7147 8.406 94.0387 7.038 94.0387C5.874 94.0387 4.812 93.7687 3.852 93.2287C2.904 92.6767 2.154 91.9147 1.602 90.9427C1.05 89.9707 0.774 88.8727 0.774 87.6487ZM24.0383 84.0667V93.9307H22.4003V92.4727C22.0883 92.9767 21.6503 93.3727 21.0863 93.6607C20.5343 93.9367 19.9223 94.0747 19.2503 94.0747C18.4823 94.0747 17.7923 93.9187 17.1803 93.6067C16.5683 93.2827 16.0823 92.8027 15.7223 92.1667C15.3743 91.5307 15.2003 90.7567 15.2003 89.8447V84.0667H16.8203V89.6287C16.8203 90.6007 17.0663 91.3507 17.5583 91.8787C18.0503 92.3947 18.7223 92.6527 19.5743 92.6527C20.4503 92.6527 21.1403 92.3827 21.6443 91.8427C22.1483 91.3027 22.4003 90.5167 22.4003 89.4847V84.0667H24.0383ZM28.802 85.4167V91.2307C28.802 91.7107 28.904 92.0527 29.108 92.2567C29.312 92.4487 29.666 92.5447 30.17 92.5447H31.376V93.9307H29.9C28.988 93.9307 28.304 93.7207 27.848 93.3007C27.392 92.8807 27.164 92.1907 27.164 91.2307V85.4167H25.886V84.0667H27.164V81.5827H28.802V84.0667H31.376V85.4167H28.802ZM35.3586 85.4167V91.2307C35.3586 91.7107 35.4606 92.0527 35.6646 92.2567C35.8686 92.4487 36.2226 92.5447 36.7266 92.5447H37.9326V93.9307H36.4566C35.5446 93.9307 34.8606 93.7207 34.4046 93.3007C33.9486 92.8807 33.7206 92.1907 33.7206 91.2307V85.4167H32.4426V84.0667H33.7206V81.5827H35.3586V84.0667H37.9326V85.4167H35.3586ZM40.7633 82.4647C40.4513 82.4647 40.1873 82.3567 39.9713 82.1407C39.7553 81.9247 39.6473 81.6607 39.6473 81.3487C39.6473 81.0367 39.7553 80.7727 39.9713 80.5567C40.1873 80.3407 40.4513 80.2327 40.7633 80.2327C41.0633 80.2327 41.3153 80.3407 41.5193 80.5567C41.7353 80.7727 41.8433 81.0367 41.8433 81.3487C41.8433 81.6607 41.7353 81.9247 41.5193 82.1407C41.3153 82.3567 41.0633 82.4647 40.7633 82.4647ZM41.5553 84.0667V93.9307H39.9173V84.0667H41.5553ZM49.1529 83.8867C50.3529 83.8867 51.3249 84.2527 52.0689 84.9847C52.8129 85.7047 53.1849 86.7487 53.1849 88.1167V93.9307H51.5649V88.3507C51.5649 87.3667 51.3189 86.6167 50.8269 86.1007C50.3349 85.5727 49.6629 85.3087 48.8109 85.3087C47.9469 85.3087 47.2569 85.5787 46.7409 86.1187C46.2369 86.6587 45.9849 87.4447 45.9849 88.4767V93.9307H44.3469V84.0667H45.9849V85.4707C46.3089 84.9667 46.7469 84.5767 47.2989 84.3007C47.8629 84.0247 48.4809 83.8867 49.1529 83.8867ZM59.9286 83.9047C60.7806 83.9047 61.5246 84.0907 62.1606 84.4627C62.8086 84.8347 63.2886 85.3027 63.6006 85.8667V84.0667H65.2566V94.1467C65.2566 95.0467 65.0646 95.8447 64.6806 96.5407C64.2966 97.2487 63.7446 97.8007 63.0246 98.1967C62.3166 98.5927 61.4886 98.7907 60.5406 98.7907C59.2446 98.7907 58.1646 98.4847 57.3006 97.8727C56.4366 97.2607 55.9266 96.4267 55.7706 95.3707H57.3906C57.5706 95.9707 57.9426 96.4507 58.5066 96.8107C59.0706 97.1827 59.7486 97.3687 60.5406 97.3687C61.4406 97.3687 62.1726 97.0867 62.7366 96.5227C63.3126 95.9587 63.6006 95.1667 63.6006 94.1467V92.0767C63.2766 92.6527 62.7966 93.1327 62.1606 93.5167C61.5246 93.9007 60.7806 94.0927 59.9286 94.0927C59.0526 94.0927 58.2546 93.8767 57.5346 93.4447C56.8266 93.0127 56.2686 92.4067 55.8606 91.6267C55.4526 90.8467 55.2486 89.9587 55.2486 88.9627C55.2486 87.9547 55.4526 87.0727 55.8606 86.3167C56.2686 85.5487 56.8266 84.9547 57.5346 84.5347C58.2546 84.1147 59.0526 83.9047 59.9286 83.9047ZM63.6006 88.9807C63.6006 88.2367 63.4506 87.5887 63.1506 87.0367C62.8506 86.4847 62.4426 86.0647 61.9266 85.7767C61.4226 85.4767 60.8646 85.3267 60.2526 85.3267C59.6406 85.3267 59.0826 85.4707 58.5786 85.7587C58.0746 86.0467 57.6726 86.4667 57.3726 87.0187C57.0726 87.5707 56.9226 88.2187 56.9226 88.9627C56.9226 89.7187 57.0726 90.3787 57.3726 90.9427C57.6726 91.4947 58.0746 91.9207 58.5786 92.2207C59.0826 92.5087 59.6406 92.6527 60.2526 92.6527C60.8646 92.6527 61.4226 92.5087 61.9266 92.2207C62.4426 91.9207 62.8506 91.4947 63.1506 90.9427C63.4506 90.3787 63.6006 89.7247 63.6006 88.9807ZM74.8215 85.4167V91.2307C74.8215 91.7107 74.9235 92.0527 75.1275 92.2567C75.3315 92.4487 75.6855 92.5447 76.1895 92.5447H77.3955V93.9307H75.9195C75.0075 93.9307 74.3235 93.7207 73.8675 93.3007C73.4115 92.8807 73.1835 92.1907 73.1835 91.2307V85.4167H71.9055V84.0667H73.1835V81.5827H74.8215V84.0667H77.3955V85.4167H74.8215ZM84.2761 83.8867C85.0201 83.8867 85.6921 84.0487 86.2921 84.3727C86.8921 84.6847 87.3601 85.1587 87.6961 85.7947C88.0441 86.4307 88.2181 87.2047 88.2181 88.1167V93.9307H86.5981V88.3507C86.5981 87.3667 86.3521 86.6167 85.8601 86.1007C85.3681 85.5727 84.6961 85.3087 83.8441 85.3087C82.9801 85.3087 82.2901 85.5787 81.7741 86.1187C81.2701 86.6587 81.0181 87.4447 81.0181 88.4767V93.9307H79.3801V80.6107H81.0181V85.4707C81.3421 84.9667 81.7861 84.5767 82.3501 84.3007C82.9261 84.0247 83.5681 83.8867 84.2761 83.8867ZM99.8938 88.6207C99.8938 88.9327 99.8758 89.2627 99.8398 89.6107H91.9558C92.0158 90.5827 92.3458 91.3447 92.9458 91.8967C93.5578 92.4367 94.2958 92.7067 95.1598 92.7067C95.8678 92.7067 96.4558 92.5447 96.9238 92.2207C97.4038 91.8847 97.7398 91.4407 97.9318 90.8887H99.6958C99.4318 91.8367 98.9038 92.6107 98.1118 93.2107C97.3198 93.7987 96.3358 94.0927 95.1598 94.0927C94.2238 94.0927 93.3838 93.8827 92.6398 93.4627C91.9078 93.0427 91.3318 92.4487 90.9118 91.6807C90.4918 90.9007 90.2818 90.0007 90.2818 88.9807C90.2818 87.9607 90.4858 87.0667 90.8938 86.2987C91.3018 85.5307 91.8718 84.9427 92.6038 84.5347C93.3478 84.1147 94.1998 83.9047 95.1598 83.9047C96.0958 83.9047 96.9238 84.1087 97.6438 84.5167C98.3638 84.9247 98.9158 85.4887 99.2998 86.2087C99.6958 86.9167 99.8938 87.7207 99.8938 88.6207ZM98.2018 88.2787C98.2018 87.6547 98.0638 87.1207 97.7878 86.6767C97.5118 86.2207 97.1338 85.8787 96.6538 85.6507C96.1858 85.4107 95.6638 85.2907 95.0878 85.2907C94.2598 85.2907 93.5518 85.5547 92.9638 86.0827C92.3878 86.6107 92.0578 87.3427 91.9738 88.2787H98.2018ZM108.493 80.6107V93.9307H106.855V80.6107H108.493ZM120.284 88.6207C120.284 88.9327 120.266 89.2627 120.23 89.6107H112.346C112.406 90.5827 112.736 91.3447 113.336 91.8967C113.948 92.4367 114.686 92.7067 115.55 92.7067C116.258 92.7067 116.846 92.5447 117.314 92.2207C117.794 91.8847 118.13 91.4407 118.322 90.8887H120.086C119.822 91.8367 119.294 92.6107 118.502 93.2107C117.71 93.7987 116.726 94.0927 115.55 94.0927C114.614 94.0927 113.774 93.8827 113.03 93.4627C112.298 93.0427 111.722 92.4487 111.302 91.6807C110.882 90.9007 110.672 90.0007 110.672 88.9807C110.672 87.9607 110.876 87.0667 111.284 86.2987C111.692 85.5307 112.262 84.9427 112.994 84.5347C113.738 84.1147 114.59 83.9047 115.55 83.9047C116.486 83.9047 117.314 84.1087 118.034 84.5167C118.754 84.9247 119.306 85.4887 119.69 86.2087C120.086 86.9167 120.284 87.7207 120.284 88.6207ZM118.592 88.2787C118.592 87.6547 118.454 87.1207 118.178 86.6767C117.902 86.2207 117.524 85.8787 117.044 85.6507C116.576 85.4107 116.054 85.2907 115.478 85.2907C114.65 85.2907 113.942 85.5547 113.354 86.0827C112.778 86.6107 112.448 87.3427 112.364 88.2787H118.592ZM134.309 83.8867C135.077 83.8867 135.761 84.0487 136.361 84.3727C136.961 84.6847 137.435 85.1587 137.783 85.7947C138.131 86.4307 138.305 87.2047 138.305 88.1167V93.9307H136.685V88.3507C136.685 87.3667 136.439 86.6167 135.947 86.1007C135.467 85.5727 134.813 85.3087 133.985 85.3087C133.133 85.3087 132.455 85.5847 131.951 86.1367C131.447 86.6767 131.195 87.4627 131.195 88.4947V93.9307H129.575V88.3507C129.575 87.3667 129.329 86.6167 128.837 86.1007C128.357 85.5727 127.703 85.3087 126.875 85.3087C126.023 85.3087 125.345 85.5847 124.841 86.1367C124.337 86.6767 124.085 87.4627 124.085 88.4947V93.9307H122.447V84.0667H124.085V85.4887C124.409 84.9727 124.841 84.5767 125.381 84.3007C125.933 84.0247 126.539 83.8867 127.199 83.8867C128.027 83.8867 128.759 84.0727 129.395 84.4447C130.031 84.8167 130.505 85.3627 130.817 86.0827C131.093 85.3867 131.549 84.8467 132.185 84.4627C132.821 84.0787 133.529 83.8867 134.309 83.8867ZM145.293 94.0927C144.369 94.0927 143.529 93.8827 142.773 93.4627C142.029 93.0427 141.441 92.4487 141.009 91.6807C140.589 90.9007 140.379 90.0007 140.379 88.9807C140.379 87.9727 140.595 87.0847 141.027 86.3167C141.471 85.5367 142.071 84.9427 142.827 84.5347C143.583 84.1147 144.429 83.9047 145.365 83.9047C146.301 83.9047 147.147 84.1147 147.903 84.5347C148.659 84.9427 149.253 85.5307 149.685 86.2987C150.129 87.0667 150.351 87.9607 150.351 88.9807C150.351 90.0007 150.123 90.9007 149.667 91.6807C149.223 92.4487 148.617 93.0427 147.849 93.4627C147.081 93.8827 146.229 94.0927 145.293 94.0927ZM145.293 92.6527C145.881 92.6527 146.433 92.5147 146.949 92.2387C147.465 91.9627 147.879 91.5487 148.191 90.9967C148.515 90.4447 148.677 89.7727 148.677 88.9807C148.677 88.1887 148.521 87.5167 148.209 86.9647C147.897 86.4127 147.489 86.0047 146.985 85.7407C146.481 85.4647 145.935 85.3267 145.347 85.3267C144.747 85.3267 144.195 85.4647 143.691 85.7407C143.199 86.0047 142.803 86.4127 142.503 86.9647C142.203 87.5167 142.053 88.1887 142.053 88.9807C142.053 89.7847 142.197 90.4627 142.485 91.0147C142.785 91.5667 143.181 91.9807 143.673 92.2567C144.165 92.5207 144.705 92.6527 145.293 92.6527ZM157.311 83.8867C158.511 83.8867 159.483 84.2527 160.227 84.9847C160.971 85.7047 161.343 86.7487 161.343 88.1167V93.9307H159.723V88.3507C159.723 87.3667 159.477 86.6167 158.985 86.1007C158.493 85.5727 157.821 85.3087 156.969 85.3087C156.105 85.3087 155.415 85.5787 154.899 86.1187C154.395 86.6587 154.143 87.4447 154.143 88.4767V93.9307H152.505V84.0667H154.143V85.4707C154.467 84.9667 154.905 84.5767 155.457 84.3007C156.021 84.0247 156.639 83.8867 157.311 83.8867ZM167.511 94.0927C166.755 94.0927 166.077 93.9667 165.477 93.7147C164.877 93.4507 164.403 93.0907 164.055 92.6347C163.707 92.1667 163.515 91.6327 163.479 91.0327H165.171C165.219 91.5247 165.447 91.9267 165.855 92.2387C166.275 92.5507 166.821 92.7067 167.493 92.7067C168.117 92.7067 168.609 92.5687 168.969 92.2927C169.329 92.0167 169.509 91.6687 169.509 91.2487C169.509 90.8167 169.317 90.4987 168.933 90.2947C168.549 90.0787 167.955 89.8687 167.151 89.6647C166.419 89.4727 165.819 89.2807 165.351 89.0887C164.895 88.8847 164.499 88.5907 164.163 88.2067C163.839 87.8107 163.677 87.2947 163.677 86.6587C163.677 86.1547 163.827 85.6927 164.127 85.2727C164.427 84.8527 164.853 84.5227 165.405 84.2827C165.957 84.0307 166.587 83.9047 167.295 83.9047C168.387 83.9047 169.269 84.1807 169.941 84.7327C170.613 85.2847 170.973 86.0407 171.021 87.0007H169.383C169.347 86.4847 169.137 86.0707 168.753 85.7587C168.381 85.4467 167.877 85.2907 167.241 85.2907C166.653 85.2907 166.185 85.4167 165.837 85.6687C165.489 85.9207 165.315 86.2507 165.315 86.6587C165.315 86.9827 165.417 87.2527 165.621 87.4687C165.837 87.6727 166.101 87.8407 166.413 87.9727C166.737 88.0927 167.181 88.2307 167.745 88.3867C168.453 88.5787 169.029 88.7707 169.473 88.9627C169.917 89.1427 170.295 89.4187 170.607 89.7907C170.931 90.1627 171.099 90.6487 171.111 91.2487C171.111 91.7887 170.961 92.2747 170.661 92.7067C170.361 93.1387 169.935 93.4807 169.383 93.7327C168.843 93.9727 168.219 94.0927 167.511 94.0927Z" fill="#221047"/>
</svg>
