<svg width="152" height="98" viewBox="0 0 152 98" fill="none" xmlns="http://www.w3.org/2000/svg">
<path d="M94.0534 20.3349C96.1384 28.1163 98.6757 52.0342 95.2759 60.9007C93.5481 65.407 89.8573 64.4233 86.4418 65.3385C83.205 66.2058 80.6102 68.8835 76.8896 65.8274C68.9594 59.3135 58.3586 35.873 56.2182 27.8846C53.0735 16.1484 63.2356 19.2752 73.3714 16.5593C83.5073 13.8434 90.9086 8.59863 94.0534 20.3349Z" fill="#FBE54D" stroke="#351771" stroke-width="3"/>
<path d="M92.6297 15.0224C93.0578 16.6204 91.5089 20.4991 85.4924 21.2274C79.0061 24.0659 75.7454 26.2758 71.1298 27.5126C60.9939 30.2285 56.7107 27.7916 55.9245 24.8575C55.1383 21.9235 62.7177 17.3433 72.8536 14.6274C82.9894 11.9115 91.8435 12.0883 92.6297 15.0224Z" fill="#FBE54D"/>
<path d="M71.1298 27.5126C60.9939 30.2285 56.7107 27.7916 55.9245 24.8575C55.1383 21.9235 62.7177 17.3433 72.8536 14.6274C82.9894 11.9115 91.8435 12.0883 92.6297 15.0224C93.0578 16.6204 91.5089 20.4991 85.4924 21.2274M71.1298 27.5126C75.7454 26.2758 79.0061 24.0659 85.4924 21.2274M71.1298 27.5126L85.4924 21.2274" stroke="#351771" stroke-width="3"/>
<path d="M76.0785 7.93745C70.0349 6.35098 68.9114 15.0199 69.1051 19.5527C74.0446 20.1192 84.7952 21.1958 88.2819 20.9691C92.6403 20.6858 92.0592 14.4533 92.0592 13.0368C92.0592 11.6203 88.8631 3.68795 85.6669 2.27146C82.4708 0.854976 83.633 5.38774 83.9236 6.52093C84.2141 7.65412 83.633 9.92053 76.0785 7.93745Z" fill="#FFF18F" fill-opacity="0.9" stroke="#351771" stroke-width="3"/>
<path d="M56.6922 21.7297C59.8838 22.4821 49.585 33 76.585 26L88.585 21C94.585 16 85.7341 16.7459 79.085 18C72.4358 19.2541 64.6711 10.1296 63.3413 7.62142C62.0115 5.11327 62.8094 11.0701 59.3518 10.1296C55.8943 9.18902 52.9687 11.0701 54.0325 12.6377C55.0964 14.2053 55.6283 15.4593 54.0325 16.3999C52.4367 17.3404 47.6494 16.3999 47.1175 19.8486C46.5855 23.2973 52.7027 20.7891 56.6922 21.7297Z" fill="#FBE54D" stroke="#351771" stroke-width="3"/>
<path d="M9.248 87.9039H3.668L2.606 90.8379H0.842L5.54 78.3819H7.394L12.074 90.8379H10.31L9.248 87.9039ZM8.78 86.6259L6.458 80.2179L4.136 86.6259H8.78ZM17.782 80.8299C18.742 80.8299 19.552 81.0699 20.212 81.5499C20.884 82.0299 21.352 82.6719 21.616 83.4759V77.5179H23.254V90.8379H21.616V88.3179C21.352 89.1219 20.884 89.7639 20.212 90.2439C19.552 90.7239 18.742 90.9639 17.782 90.9639C16.906 90.9639 16.126 90.7599 15.442 90.3519C14.758 89.9439 14.218 89.3619 13.822 88.6059C13.438 87.8379 13.246 86.9379 13.246 85.9059C13.246 84.8739 13.438 83.9739 13.822 83.2059C14.218 82.4379 14.758 81.8499 15.442 81.4419C16.126 81.0339 16.906 80.8299 17.782 80.8299ZM18.25 82.2879C17.242 82.2879 16.432 82.6119 15.82 83.2599C15.22 83.8959 14.92 84.7779 14.92 85.9059C14.92 87.0339 15.22 87.9219 15.82 88.5699C16.432 89.2059 17.242 89.5239 18.25 89.5239C18.898 89.5239 19.474 89.3739 19.978 89.0739C20.494 88.7739 20.896 88.3539 21.184 87.8139C21.472 87.2619 21.616 86.6259 21.616 85.9059C21.616 85.1859 21.472 84.5499 21.184 83.9979C20.896 83.4459 20.494 83.0259 19.978 82.7379C19.474 82.4379 18.898 82.2879 18.25 82.2879ZM29.9109 80.8299C30.8709 80.8299 31.6809 81.0699 32.3409 81.5499C33.0129 82.0299 33.4809 82.6719 33.7449 83.4759V77.5179H35.3829V90.8379H33.7449V88.3179C33.4809 89.1219 33.0129 89.7639 32.3409 90.2439C31.6809 90.7239 30.8709 90.9639 29.9109 90.9639C29.0349 90.9639 28.2549 90.7599 27.5709 90.3519C26.8869 89.9439 26.3469 89.3619 25.9509 88.6059C25.5669 87.8379 25.3749 86.9379 25.3749 85.9059C25.3749 84.8739 25.5669 83.9739 25.9509 83.2059C26.3469 82.4379 26.8869 81.8499 27.5709 81.4419C28.2549 81.0339 29.0349 80.8299 29.9109 80.8299ZM30.3789 82.2879C29.3709 82.2879 28.5609 82.6119 27.9489 83.2599C27.3489 83.8959 27.0489 84.7779 27.0489 85.9059C27.0489 87.0339 27.3489 87.9219 27.9489 88.5699C28.5609 89.2059 29.3709 89.5239 30.3789 89.5239C31.0269 89.5239 31.6029 89.3739 32.1069 89.0739C32.6229 88.7739 33.0249 88.3539 33.3129 87.8139C33.6009 87.2619 33.7449 86.6259 33.7449 85.9059C33.7449 85.1859 33.6009 84.5499 33.3129 83.9979C33.0249 83.4459 32.6229 83.0259 32.1069 82.7379C31.6029 82.4379 31.0269 82.2879 30.3789 82.2879ZM37.7018 78.0579C37.7018 77.7579 37.8038 77.5179 38.0078 77.3379C38.2118 77.1459 38.4818 77.0499 38.8178 77.0499C39.1538 77.0499 39.4238 77.1459 39.6278 77.3379C39.8318 77.5179 39.9338 77.7579 39.9338 78.0579C39.9338 78.3579 39.8318 78.6039 39.6278 78.7959C39.4238 78.9759 39.1538 79.0659 38.8178 79.0659C38.4818 79.0659 38.2118 78.9759 38.0078 78.7959C37.8038 78.6039 37.7018 78.3579 37.7018 78.0579ZM39.6278 80.9559V90.8379H37.9898V80.9559H39.6278ZM47.4633 80.7939C48.6153 80.7939 49.5453 81.1659 50.2533 81.9099C50.9613 82.6419 51.3153 83.7039 51.3153 85.0959V90.8379H49.6773V85.2399C49.6773 84.2559 49.4253 83.4999 48.9213 82.9719C48.4173 82.4439 47.7333 82.1799 46.8693 82.1799C45.9693 82.1799 45.2493 82.4739 44.7093 83.0619C44.1693 83.6379 43.8993 84.4839 43.8993 85.5999V90.8379H42.2613V80.9559H43.8993V83.2959C44.1513 82.4919 44.5953 81.8739 45.2313 81.4419C45.8793 81.0099 46.6233 80.7939 47.4633 80.7939ZM57.8777 80.8299C58.8377 80.8299 59.6477 81.0699 60.3077 81.5499C60.9797 82.0299 61.4477 82.6719 61.7117 83.4759V80.9559H63.3497V90.9999C63.3497 91.9119 63.1577 92.7219 62.7737 93.4299C62.3897 94.1379 61.8497 94.6899 61.1537 95.0859C60.4577 95.4819 59.6477 95.6799 58.7237 95.6799C57.3917 95.6799 56.3057 95.3559 55.4657 94.7079C54.6257 94.0719 54.0917 93.2079 53.8637 92.1159H55.4837C55.6757 92.7759 56.0357 93.2919 56.5637 93.6639C57.1037 94.0479 57.7937 94.2399 58.6337 94.2399C59.5217 94.2399 60.2537 93.9519 60.8297 93.3759C61.4177 92.8119 61.7117 92.0199 61.7117 90.9999V88.3179C61.4477 89.1219 60.9797 89.7639 60.3077 90.2439C59.6477 90.7239 58.8377 90.9639 57.8777 90.9639C57.0017 90.9639 56.2217 90.7599 55.5377 90.3519C54.8537 89.9439 54.3137 89.3619 53.9177 88.6059C53.5337 87.8379 53.3417 86.9379 53.3417 85.9059C53.3417 84.8739 53.5337 83.9739 53.9177 83.2059C54.3137 82.4379 54.8537 81.8499 55.5377 81.4419C56.2217 81.0339 57.0017 80.8299 57.8777 80.8299ZM58.3457 82.2879C57.3377 82.2879 56.5277 82.6119 55.9157 83.2599C55.3157 83.8959 55.0157 84.7779 55.0157 85.9059C55.0157 87.0339 55.3157 87.9219 55.9157 88.5699C56.5277 89.2059 57.3377 89.5239 58.3457 89.5239C58.9937 89.5239 59.5697 89.3739 60.0737 89.0739C60.5897 88.7739 60.9917 88.3539 61.2797 87.8139C61.5677 87.2619 61.7117 86.6259 61.7117 85.9059C61.7117 85.1859 61.5677 84.5499 61.2797 83.9979C60.9917 83.4459 60.5897 83.0259 60.0737 82.7379C59.5697 82.4379 58.9937 82.2879 58.3457 82.2879ZM73.4998 80.8299C74.6158 80.8299 75.5098 81.1239 76.1818 81.7119C76.8658 82.2879 77.2798 83.0679 77.4238 84.0519H75.8578C75.7858 83.4639 75.5398 82.9839 75.1198 82.6119C74.7118 82.2279 74.1598 82.0359 73.4638 82.0359C72.8758 82.0359 72.4138 82.1799 72.0778 82.4679C71.7538 82.7439 71.5918 83.1219 71.5918 83.6019C71.5918 83.9619 71.6998 84.2559 71.9158 84.4839C72.1438 84.6999 72.4198 84.8679 72.7438 84.9879C73.0798 85.0959 73.5358 85.2159 74.1118 85.3479C74.8438 85.5159 75.4318 85.6899 75.8758 85.8699C76.3318 86.0379 76.7158 86.3139 77.0278 86.6979C77.3518 87.0819 77.5138 87.5979 77.5138 88.2459C77.5138 89.0499 77.2078 89.7039 76.5958 90.2079C75.9958 90.7119 75.1918 90.9639 74.1838 90.9639C73.0078 90.9639 72.0478 90.6819 71.3038 90.1179C70.5598 89.5539 70.1218 88.7679 69.9898 87.7599H71.5738C71.6338 88.3599 71.8918 88.8459 72.3478 89.2179C72.8158 89.5899 73.4278 89.7759 74.1838 89.7759C74.7478 89.7759 75.1858 89.6319 75.4978 89.3439C75.8218 89.0559 75.9838 88.6779 75.9838 88.2099C75.9838 87.8259 75.8698 87.5199 75.6418 87.2919C75.4138 87.0639 75.1318 86.8899 74.7958 86.7699C74.4598 86.6499 73.9978 86.5239 73.4098 86.3919C72.6778 86.2239 72.0898 86.0559 71.6458 85.8879C71.2138 85.7199 70.8418 85.4559 70.5298 85.0959C70.2298 84.7239 70.0798 84.2259 70.0798 83.6019C70.0798 82.7739 70.3858 82.1079 70.9978 81.6039C71.6098 81.0879 72.4438 80.8299 73.4998 80.8299ZM84.1847 80.8299C85.1327 80.8299 85.9787 81.0339 86.7227 81.4419C87.4787 81.8499 88.0667 82.4379 88.4867 83.2059C88.9187 83.9739 89.1347 84.8739 89.1347 85.9059C89.1347 86.9379 88.9187 87.8379 88.4867 88.6059C88.0667 89.3619 87.4787 89.9439 86.7227 90.3519C85.9787 90.7599 85.1327 90.9639 84.1847 90.9639C83.2367 90.9639 82.3847 90.7599 81.6287 90.3519C80.8847 89.9439 80.2967 89.3619 79.8647 88.6059C79.4327 87.8379 79.2167 86.9379 79.2167 85.9059C79.2167 84.8739 79.4327 83.9739 79.8647 83.2059C80.2967 82.4379 80.8847 81.8499 81.6287 81.4419C82.3847 81.0339 83.2367 80.8299 84.1847 80.8299ZM84.1847 82.2699C83.5967 82.2699 83.0507 82.4019 82.5467 82.6659C82.0547 82.9299 81.6527 83.3379 81.3407 83.8899C81.0407 84.4299 80.8907 85.1019 80.8907 85.9059C80.8907 86.6979 81.0407 87.3699 81.3407 87.9219C81.6527 88.4619 82.0547 88.8639 82.5467 89.1279C83.0507 89.3919 83.5967 89.5239 84.1847 89.5239C84.7727 89.5239 85.3127 89.3919 85.8047 89.1279C86.3087 88.8639 86.7107 88.4619 87.0107 87.9219C87.3227 87.3699 87.4787 86.6979 87.4787 85.9059C87.4787 85.1019 87.3227 84.4299 87.0107 83.8899C86.7107 83.3379 86.3087 82.9299 85.8047 82.6659C85.3127 82.4019 84.7727 82.2699 84.1847 82.2699ZM103.419 80.7939C104.571 80.7939 105.495 81.1659 106.191 81.9099C106.899 82.6419 107.253 83.7039 107.253 85.0959V90.8379H105.615V85.2399C105.615 84.2679 105.375 83.5239 104.895 83.0079C104.427 82.4919 103.779 82.2339 102.951 82.2339C102.087 82.2339 101.391 82.5219 100.863 83.0979C100.347 83.6619 100.089 84.4959 100.089 85.5999V90.8379H98.4511V85.2399C98.4511 84.2679 98.2111 83.5239 97.7311 83.0079C97.2511 82.4919 96.6031 82.2339 95.7871 82.2339C94.9111 82.2339 94.2091 82.5219 93.6811 83.0979C93.1651 83.6619 92.9071 84.4959 92.9071 85.5999V90.8379H91.2691V80.9559H92.9071V83.2059C93.1471 82.4259 93.5731 81.8319 94.1851 81.4239C94.8091 81.0039 95.5231 80.7939 96.3271 80.7939C97.1671 80.7939 97.8931 81.0099 98.5051 81.4419C99.1291 81.8619 99.5731 82.4859 99.8371 83.3139C100.113 82.5099 100.575 81.8919 101.223 81.4599C101.871 81.0159 102.603 80.7939 103.419 80.7939ZM118.886 85.3479C118.886 85.6959 118.862 85.9959 118.814 86.2479H110.912C110.948 87.3759 111.266 88.2219 111.866 88.7859C112.478 89.3499 113.222 89.6319 114.098 89.6319C114.89 89.6319 115.55 89.4339 116.078 89.0379C116.618 88.6299 116.948 88.0899 117.068 87.4179H118.814C118.694 88.1019 118.424 88.7139 118.004 89.2539C117.596 89.7939 117.062 90.2139 116.402 90.5139C115.742 90.8139 114.998 90.9639 114.17 90.9639C113.222 90.9639 112.382 90.7599 111.65 90.3519C110.918 89.9439 110.342 89.3619 109.922 88.6059C109.514 87.8379 109.31 86.9379 109.31 85.9059C109.31 84.8739 109.514 83.9739 109.922 83.2059C110.342 82.4379 110.918 81.8499 111.65 81.4419C112.382 81.0339 113.222 80.8299 114.17 80.8299C115.13 80.8299 115.964 81.0339 116.672 81.4419C117.392 81.8499 117.938 82.3959 118.31 83.0799C118.694 83.7639 118.886 84.5199 118.886 85.3479ZM117.23 85.4559C117.266 84.7239 117.146 84.1119 116.87 83.6199C116.594 83.1279 116.216 82.7619 115.736 82.5219C115.256 82.2819 114.734 82.1619 114.17 82.1619C113.27 82.1619 112.514 82.4439 111.902 83.0079C111.29 83.5599 110.96 84.3759 110.912 85.4559H117.23ZM125.188 78.0579C125.188 77.7579 125.29 77.5179 125.494 77.3379C125.698 77.1459 125.968 77.0499 126.304 77.0499C126.64 77.0499 126.91 77.1459 127.114 77.3379C127.318 77.5179 127.42 77.7579 127.42 78.0579C127.42 78.3579 127.318 78.6039 127.114 78.7959C126.91 78.9759 126.64 79.0659 126.304 79.0659C125.968 79.0659 125.698 78.9759 125.494 78.7959C125.29 78.6039 125.188 78.3579 125.188 78.0579ZM127.114 80.9559V90.8379H125.476V80.9559H127.114ZM134.122 80.8299C135.382 80.8299 136.426 81.1659 137.254 81.8379C138.082 82.5099 138.592 83.4099 138.784 84.5379H137.056C136.936 83.8299 136.606 83.2779 136.066 82.8819C135.538 82.4739 134.878 82.2699 134.086 82.2699C133.51 82.2699 132.982 82.4019 132.502 82.6659C132.034 82.9299 131.656 83.3379 131.368 83.8899C131.08 84.4299 130.936 85.1019 130.936 85.9059C130.936 86.7099 131.08 87.3879 131.368 87.9399C131.656 88.4799 132.034 88.8819 132.502 89.1459C132.982 89.4099 133.51 89.5419 134.086 89.5419C134.878 89.5419 135.538 89.3379 136.066 88.9299C136.606 88.5219 136.936 87.9639 137.056 87.2559H138.784C138.592 88.3959 138.082 89.3019 137.254 89.9739C136.426 90.6339 135.382 90.9639 134.122 90.9639C133.174 90.9639 132.334 90.7599 131.602 90.3519C130.87 89.9439 130.294 89.3619 129.874 88.6059C129.466 87.8379 129.262 86.9379 129.262 85.9059C129.262 84.8739 129.466 83.9739 129.874 83.2059C130.294 82.4379 130.87 81.8499 131.602 81.4419C132.334 81.0339 133.174 80.8299 134.122 80.8299ZM150.017 85.3479C150.017 85.6959 149.993 85.9959 149.945 86.2479H142.043C142.079 87.3759 142.397 88.2219 142.997 88.7859C143.609 89.3499 144.353 89.6319 145.229 89.6319C146.021 89.6319 146.681 89.4339 147.209 89.0379C147.749 88.6299 148.079 88.0899 148.199 87.4179H149.945C149.825 88.1019 149.555 88.7139 149.135 89.2539C148.727 89.7939 148.193 90.2139 147.533 90.5139C146.873 90.8139 146.129 90.9639 145.301 90.9639C144.353 90.9639 143.513 90.7599 142.781 90.3519C142.049 89.9439 141.473 89.3619 141.053 88.6059C140.645 87.8379 140.441 86.9379 140.441 85.9059C140.441 84.8739 140.645 83.9739 141.053 83.2059C141.473 82.4379 142.049 81.8499 142.781 81.4419C143.513 81.0339 144.353 80.8299 145.301 80.8299C146.261 80.8299 147.095 81.0339 147.803 81.4419C148.523 81.8499 149.069 82.3959 149.441 83.0799C149.825 83.7639 150.017 84.5199 150.017 85.3479ZM148.361 85.4559C148.397 84.7239 148.277 84.1119 148.001 83.6199C147.725 83.1279 147.347 82.7619 146.867 82.5219C146.387 82.2819 145.865 82.1619 145.301 82.1619C144.401 82.1619 143.645 82.4439 143.033 83.0079C142.421 83.5599 142.091 84.3759 142.043 85.4559H148.361Z" fill="#221047"/>
</svg>
