<svg width="146" height="93" viewBox="0 0 146 93" fill="none" xmlns="http://www.w3.org/2000/svg">
<path d="M49.3122 43.2811C50.4131 47.4088 86.4598 45.1416 91.5453 45.1419C95.9629 37.8774 95.0842 31.0194 86.46 17.9573C84.3618 15.5912 82.5137 12.7922 76.5185 8.17613C74.4674 7.05884 72.1 4.4704 70.0903 3.3101C68.7913 2.5601 67.4073 6.95722 63.7384 8.3031C60.8149 9.37557 59.6691 12.4184 57.317 14.4163C51.652 19.2285 53.317 21.3445 50.567 26.1077C47.817 30.8708 47.8544 37.8149 49.3122 43.2811Z" fill="#FBE54D"/>
<path d="M91.5453 45.1419L91.5452 46.3919L92.2481 46.3919L92.6133 45.7914L91.5453 45.1419ZM49.3122 43.2811L50.52 42.9589L49.3122 43.2811ZM57.317 14.4163L58.1263 15.369L57.317 14.4163ZM86.46 17.9573L87.5031 17.2685L87.4542 17.1944L87.3952 17.1279L86.46 17.9573ZM76.5185 8.17613L77.2811 7.1857L77.203 7.12556L77.1165 7.07842L76.5185 8.17613ZM63.7384 8.3031L64.1689 9.47663L63.7384 8.3031ZM91.5453 43.8919C90.2439 43.8918 86.9906 44.0354 82.9108 44.1823C78.8028 44.3302 73.801 44.484 68.928 44.5093C64.0456 44.5346 59.332 44.4305 55.787 44.0696C54.0063 43.8883 52.582 43.6478 51.5963 43.3497C51.1006 43.1997 50.7778 43.0531 50.5897 42.9318C50.3888 42.8022 50.475 42.7901 50.52 42.9589L48.1044 43.6032C48.2871 44.2879 48.7839 44.7419 49.2344 45.0326C49.6978 45.3315 50.2672 45.5595 50.8725 45.7426C52.0887 46.1105 53.7009 46.3701 55.5338 46.5567C59.2162 46.9316 64.0385 47.0347 68.941 47.0093C73.853 46.9838 78.8852 46.8288 83.0007 46.6807C87.1443 46.5315 90.3039 46.3918 91.5452 46.3919L91.5453 43.8919ZM50.52 42.9589C49.1062 37.6577 49.1309 31.0951 51.6496 26.7327L49.4845 25.4827C46.5031 30.6465 46.6026 37.9721 48.1044 43.6032L50.52 42.9589ZM51.6496 26.7327C53.0924 24.2336 53.4686 22.2146 54.0219 20.7124C54.5749 19.2108 55.4387 17.652 58.1263 15.369L56.5078 13.4636C53.5303 15.9928 52.3941 17.8982 51.6759 19.8484C50.9579 21.798 50.7917 23.2186 49.4845 25.4827L51.6496 26.7327ZM85.4168 18.646C89.7027 25.1373 91.9619 29.9428 92.6621 33.9394C93.3474 37.8512 92.5539 41.0775 90.4773 44.4924L92.6133 45.7914C94.9542 41.9418 95.9302 38.1068 95.1246 33.508C94.3338 28.994 91.8415 23.8394 87.5031 17.2685L85.4168 18.646ZM69.4653 4.39263C70.3503 4.90358 71.3476 5.75249 72.4807 6.71283C73.5538 7.62232 74.7603 8.64181 75.9206 9.27384L77.1165 7.07842C76.2256 6.59317 75.2228 5.75979 74.0971 4.80566C73.0313 3.90238 71.84 2.87692 70.7153 2.22757L69.4653 4.39263ZM75.7559 9.16656C81.6311 13.6902 83.3781 16.3659 85.5247 18.7866L87.3952 17.1279C85.3455 14.8165 83.3963 11.8941 77.2811 7.1857L75.7559 9.16656ZM58.1263 15.369C59.4143 14.2749 60.4203 12.8455 61.277 11.809C62.1879 10.7067 63.0297 9.89456 64.1689 9.47663L63.3079 7.12957C61.5237 7.78411 60.3308 9.02957 59.3499 10.2163C58.3147 11.4688 57.5718 12.5598 56.5078 13.4636L58.1263 15.369ZM64.1689 9.47663C66.3521 8.67578 67.8017 6.98814 68.7678 5.81545C69.2987 5.17109 69.6204 4.76338 69.895 4.51995C70.0242 4.40537 70.0388 4.42583 69.9559 4.45084C69.8134 4.49383 69.6181 4.48085 69.4653 4.39263L70.7153 2.22757C70.2378 1.95186 69.715 1.91222 69.2339 2.05739C68.8123 2.18456 68.477 2.43602 68.2365 2.64922C67.7716 3.06138 67.2744 3.69644 66.8383 4.22584C65.8704 5.40068 64.7937 6.58454 63.3079 7.12957L64.1689 9.47663Z" fill="#351771"/>
<circle cx="64.8375" cy="12.4018" r="0.5" transform="rotate(120 64.8375 12.4018)" fill="#351771"/>
<circle cx="60.1095" cy="16.6" r="0.5" transform="rotate(120 60.1095 16.6)" fill="#351771"/>
<circle cx="65.9713" cy="8.4379" r="0.5" transform="rotate(120 65.9713 8.4379)" fill="#351771"/>
<circle cx="66.4752" cy="7.57364" r="0.5" transform="rotate(120 66.4752 7.57364)" fill="#351771"/>
<circle cx="66.9752" cy="6.70743" r="0.5" transform="rotate(120 66.9752 6.70743)" fill="#351771"/>
<circle cx="73.1715" cy="7.97598" r="0.5" transform="rotate(120 73.1715 7.97598)" fill="#351771"/>
<circle cx="69.9356" cy="9.57168" r="0.5" transform="rotate(120 69.9356 9.57168)" fill="#351771"/>
<circle cx="70.3053" cy="10.9398" r="0.5" transform="rotate(120 70.3053 10.9398)" fill="#351771"/>
<circle cx="72.1715" cy="9.70743" r="0.5" transform="rotate(120 72.1715 9.70743)" fill="#351771"/>
<circle cx="72.5377" cy="11.0736" r="0.5" transform="rotate(120 72.5377 11.0736)" fill="#351771"/>
<circle cx="74.0377" cy="8.47598" r="0.5" transform="rotate(120 74.0377 8.47598)" fill="#351771"/>
<circle cx="74.4034" cy="9.84122" r="0.5" transform="rotate(120 74.4034 9.84122)" fill="#351771"/>
<circle cx="77.0016" cy="11.3412" r="0.5" transform="rotate(120 77.0016 11.3412)" fill="#351771"/>
<circle cx="72.3014" cy="7.47305" r="0.5" transform="rotate(120 72.3014 7.47305)" fill="#351771"/>
<circle cx="72.8053" cy="6.60977" r="0.5" transform="rotate(120 72.8053 6.60977)" fill="#351771"/>
<circle cx="70.9395" cy="7.84122" r="0.5" transform="rotate(120 70.9395 7.84122)" fill="#351771"/>
<circle cx="69.2071" cy="6.84122" r="0.5" transform="rotate(120 69.2071 6.84122)" fill="#351771"/>
<circle cx="67.8414" cy="7.20743" r="0.5" transform="rotate(120 67.8414 7.20743)" fill="#351771"/>
<circle cx="71.9395" cy="6.10977" r="0.5" transform="rotate(120 71.9395 6.10977)" fill="#351771"/>
<circle cx="73.6715" cy="7.10977" r="0.5" transform="rotate(120 73.6715 7.10977)" fill="#351771"/>
<circle cx="70.5694" cy="6.47305" r="0.5" transform="rotate(120 70.5694 6.47305)" fill="#351771"/>
<circle cx="71.9034" cy="14.1713" r="0.5" transform="rotate(120 71.9034 14.1713)" fill="#351771"/>
<circle cx="70.0241" cy="4.42657" r="1" transform="rotate(120 70.0241 4.42657)" fill="#351771"/>
<circle cx="69.5733" cy="8.20743" r="0.5" transform="rotate(120 69.5733 8.20743)" fill="#351771"/>
<circle cx="68.8375" cy="5.47305" r="0.5" transform="rotate(120 68.8375 5.47305)" fill="#351771"/>
<circle cx="70.1715" cy="13.1713" r="0.5" transform="rotate(120 70.1715 13.1713)" fill="#351771"/>
<circle cx="68.2037" cy="8.57168" r="0.5" transform="rotate(120 68.2037 8.57168)" fill="#351771"/>
<circle cx="68.5733" cy="9.93985" r="0.5" transform="rotate(120 68.5733 9.93985)" fill="#351771"/>
<circle cx="72.9034" cy="12.4398" r="0.5" transform="rotate(120 72.9034 12.4398)" fill="#351771"/>
<circle cx="74.2696" cy="12.0736" r="0.5" transform="rotate(120 74.2696 12.0736)" fill="#351771"/>
<circle cx="74.6353" cy="13.4398" r="0.5" transform="rotate(120 74.6353 13.4398)" fill="#351771"/>
<circle cx="75.6353" cy="11.7074" r="0.5" transform="rotate(120 75.6353 11.7074)" fill="#351771"/>
<circle cx="75.7696" cy="9.47598" r="0.5" transform="rotate(120 75.7696 9.47598)" fill="#351771"/>
<circle cx="71.0733" cy="5.60977" r="0.5" transform="rotate(120 71.0733 5.60977)" fill="#351771"/>
<circle cx="67.5733" cy="11.6713" r="0.5" transform="rotate(120 67.5733 11.6713)" fill="#351771"/>
<circle cx="66.7071" cy="11.1713" r="0.5" transform="rotate(120 66.7071 11.1713)" fill="#351771"/>
<circle cx="66.3414" cy="9.80606" r="0.5" transform="rotate(120 66.3414 9.80606)" fill="#351771"/>
<circle cx="69.7071" cy="5.97598" r="0.5" transform="rotate(120 69.7071 5.97598)" fill="#351771"/>
<circle cx="71.4395" cy="6.97598" r="0.5" transform="rotate(120 71.4395 6.97598)" fill="#351771"/>
<circle cx="70.0733" cy="7.34122" r="0.5" transform="rotate(120 70.0733 7.34122)" fill="#351771"/>
<circle cx="68.3414" cy="6.34122" r="0.5" transform="rotate(120 68.3414 6.34122)" fill="#351771"/>
<circle cx="68.7071" cy="7.70743" r="0.5" transform="rotate(120 68.7071 7.70743)" fill="#351771"/>
<circle cx="67.3414" cy="8.07364" r="0.5" transform="rotate(120 67.3414 8.07364)" fill="#351771"/>
<path d="M73.8855 65C69.4855 64.6 72.0522 55.5 73.8855 51C75.0523 52 77.7857 54.9 79.3857 58.5C81.3857 63 79.3855 65.5 73.8855 65Z" fill="#FBE54D" stroke="#351771" stroke-width="1.5"/>
<path d="M53.4555 52.5005C53.4548 49.7707 58.7452 48.3006 61.7282 47.9616C61.5316 48.8905 60.769 51.2317 59.291 53.1657C57.4435 55.5832 53.4561 54.5005 53.4555 52.5005Z" fill="#FBE54D" stroke="#351771" stroke-width="1.5"/>
<path d="M60.5207 60.0647C58.5194 57.5049 62.4038 52.2488 64.9531 49.7445C65.4495 50.7598 66.4501 53.5145 66.4813 56.4116C66.5204 60.033 61.987 61.9401 60.5207 60.0647Z" fill="#FBE54D" stroke="#351771" stroke-width="2"/>
<path d="M84.5809 58.8978C81.3336 59.0107 79.3675 52.7778 78.8417 49.2431C79.9547 49.4388 82.7711 50.2499 85.1325 51.9287C88.0842 54.0271 86.96 58.815 84.5809 58.8978Z" fill="#FBE54D" stroke="#351771" stroke-width="2"/>
<path d="M9.842 81.7695C9.842 82.3695 9.698 82.9275 9.41 83.4435C9.122 83.9595 8.684 84.3795 8.096 84.7035C7.508 85.0275 6.782 85.1895 5.918 85.1895C5.078 85.1895 4.328 85.0395 3.668 84.7395C3.02 84.4275 2.498 84.0075 2.102 83.4795C1.718 82.9395 1.496 82.3275 1.436 81.6435H3.182C3.218 82.0035 3.338 82.3575 3.542 82.7055C3.758 83.0415 4.058 83.3235 4.442 83.5515C4.838 83.7675 5.312 83.8755 5.864 83.8755C6.584 83.8755 7.136 83.6835 7.52 83.2995C7.904 82.9155 8.096 82.4235 8.096 81.8235C8.096 81.3075 7.958 80.8875 7.682 80.5635C7.418 80.2395 7.088 79.9875 6.692 79.8075C6.296 79.6155 5.756 79.4115 5.072 79.1955C4.268 78.9315 3.62 78.6855 3.128 78.4575C2.648 78.2175 2.234 77.8635 1.886 77.3955C1.55 76.9275 1.382 76.3095 1.382 75.5415C1.382 74.8815 1.538 74.2995 1.85 73.7955C2.174 73.2915 2.63 72.9015 3.218 72.6255C3.818 72.3495 4.52 72.2115 5.324 72.2115C6.572 72.2115 7.562 72.5175 8.294 73.1295C9.026 73.7295 9.452 74.4975 9.572 75.4335H7.808C7.712 74.9295 7.454 74.4855 7.034 74.1015C6.614 73.7175 6.044 73.5255 5.324 73.5255C4.664 73.5255 4.136 73.6995 3.74 74.0475C3.344 74.3835 3.146 74.8635 3.146 75.4875C3.146 75.9795 3.272 76.3815 3.524 76.6935C3.788 76.9935 4.112 77.2335 4.496 77.4135C4.88 77.5815 5.408 77.7735 6.08 77.9895C6.896 78.2535 7.55 78.5055 8.042 78.7455C8.546 78.9855 8.972 79.3515 9.32 79.8435C9.668 80.3235 9.842 80.9655 9.842 81.7695ZM16.2025 75.0915C17.1145 75.0915 17.8885 75.3135 18.5245 75.7575C19.1725 76.1895 19.6405 76.7775 19.9285 77.5215V75.1815H21.5665V89.7435H19.9285V82.6515C19.6285 83.4315 19.1545 84.0495 18.5065 84.5055C17.8705 84.9615 17.1025 85.1895 16.2025 85.1895C15.3265 85.1895 14.5345 84.9855 13.8265 84.5775C13.1185 84.1575 12.5605 83.5695 12.1525 82.8135C11.7565 82.0455 11.5585 81.1575 11.5585 80.1495C11.5585 79.1415 11.7565 78.2595 12.1525 77.5035C12.5605 76.7355 13.1185 76.1415 13.8265 75.7215C14.5345 75.3015 15.3265 75.0915 16.2025 75.0915ZM16.5625 76.5135C15.5785 76.5135 14.7745 76.8375 14.1505 77.4855C13.5385 78.1215 13.2325 79.0095 13.2325 80.1495C13.2325 81.2895 13.5385 82.1775 14.1505 82.8135C14.7625 83.4375 15.5665 83.7495 16.5625 83.7495C17.1865 83.7495 17.7505 83.6055 18.2545 83.3175C18.7705 83.0175 19.1785 82.5975 19.4785 82.0575C19.7785 81.5055 19.9285 80.8635 19.9285 80.1315C19.9285 79.3995 19.7785 78.7635 19.4785 78.2235C19.1785 77.6715 18.7705 77.2515 18.2545 76.9635C17.7505 76.6635 17.1865 76.5135 16.5625 76.5135ZM32.9574 75.1815V85.0635H31.3194V82.7415C31.0674 83.5455 30.6174 84.1635 29.9694 84.5955C29.3334 85.0155 28.5894 85.2255 27.7374 85.2255C26.5974 85.2255 25.6734 84.8595 24.9654 84.1275C24.2574 83.3835 23.9034 82.3215 23.9034 80.9415V75.1815H25.5414V80.7795C25.5414 81.7635 25.7934 82.5255 26.2974 83.0655C26.8014 83.5935 27.4854 83.8575 28.3494 83.8575C29.2494 83.8575 29.9694 83.5695 30.5094 82.9935C31.0494 82.4055 31.3194 81.5535 31.3194 80.4375V75.1815H32.9574ZM44.6716 79.5735C44.6716 79.9215 44.6476 80.2215 44.5996 80.4735H36.6976C36.7336 81.6015 37.0516 82.4475 37.6516 83.0115C38.2636 83.5755 39.0076 83.8575 39.8836 83.8575C40.6756 83.8575 41.3356 83.6595 41.8636 83.2635C42.4036 82.8555 42.7336 82.3155 42.8536 81.6435H44.5996C44.4796 82.3275 44.2096 82.9395 43.7896 83.4795C43.3816 84.0195 42.8476 84.4395 42.1876 84.7395C41.5276 85.0395 40.7836 85.1895 39.9556 85.1895C39.0076 85.1895 38.1676 84.9855 37.4356 84.5775C36.7036 84.1695 36.1276 83.5875 35.7076 82.8315C35.2996 82.0635 35.0956 81.1635 35.0956 80.1315C35.0956 79.0995 35.2996 78.1995 35.7076 77.4315C36.1276 76.6635 36.7036 76.0755 37.4356 75.6675C38.1676 75.2595 39.0076 75.0555 39.9556 75.0555C40.9156 75.0555 41.7496 75.2595 42.4576 75.6675C43.1776 76.0755 43.7236 76.6215 44.0956 77.3055C44.4796 77.9895 44.6716 78.7455 44.6716 79.5735ZM43.0156 79.6815C43.0516 78.9495 42.9316 78.3375 42.6556 77.8455C42.3796 77.3535 42.0016 76.9875 41.5216 76.7475C41.0416 76.5075 40.5196 76.3875 39.9556 76.3875C39.0556 76.3875 38.2996 76.6695 37.6876 77.2335C37.0756 77.7855 36.7456 78.6015 36.6976 79.6815H43.0156ZM55.904 79.5735C55.904 79.9215 55.88 80.2215 55.832 80.4735H47.93C47.966 81.6015 48.284 82.4475 48.884 83.0115C49.496 83.5755 50.24 83.8575 51.116 83.8575C51.908 83.8575 52.568 83.6595 53.096 83.2635C53.636 82.8555 53.966 82.3155 54.086 81.6435H55.832C55.712 82.3275 55.442 82.9395 55.022 83.4795C54.614 84.0195 54.08 84.4395 53.42 84.7395C52.76 85.0395 52.016 85.1895 51.188 85.1895C50.24 85.1895 49.4 84.9855 48.668 84.5775C47.936 84.1695 47.36 83.5875 46.94 82.8315C46.532 82.0635 46.328 81.1635 46.328 80.1315C46.328 79.0995 46.532 78.1995 46.94 77.4315C47.36 76.6635 47.936 76.0755 48.668 75.6675C49.4 75.2595 50.24 75.0555 51.188 75.0555C52.148 75.0555 52.982 75.2595 53.69 75.6675C54.41 76.0755 54.956 76.6215 55.328 77.3055C55.712 77.9895 55.904 78.7455 55.904 79.5735ZM54.248 79.6815C54.284 78.9495 54.164 78.3375 53.888 77.8455C53.612 77.3535 53.234 76.9875 52.754 76.7475C52.274 76.5075 51.752 76.3875 51.188 76.3875C50.288 76.3875 49.532 76.6695 48.92 77.2335C48.308 77.7855 47.978 78.6015 47.93 79.6815H54.248ZM59.0004 83.6775H64.2924V85.0635H57.2004V83.7495L62.2404 76.5675H57.3444V75.1815H64.1124V76.5135L59.0004 83.6775ZM65.7916 72.2835C65.7916 71.9835 65.8936 71.7435 66.0976 71.5635C66.3016 71.3715 66.5716 71.2755 66.9076 71.2755C67.2436 71.2755 67.5136 71.3715 67.7176 71.5635C67.9216 71.7435 68.0236 71.9835 68.0236 72.2835C68.0236 72.5835 67.9216 72.8295 67.7176 73.0215C67.5136 73.2015 67.2436 73.2915 66.9076 73.2915C66.5716 73.2915 66.3016 73.2015 66.0976 73.0215C65.8936 72.8295 65.7916 72.5835 65.7916 72.2835ZM67.7176 75.1815V85.0635H66.0796V75.1815H67.7176ZM75.5531 75.0195C76.7051 75.0195 77.6351 75.3915 78.3431 76.1355C79.0511 76.8675 79.4051 77.9295 79.4051 79.3215V85.0635H77.7671V79.4655C77.7671 78.4815 77.5151 77.7255 77.0111 77.1975C76.5071 76.6695 75.8231 76.4055 74.9591 76.4055C74.0591 76.4055 73.3391 76.6995 72.7991 77.2875C72.2591 77.8635 71.9891 78.7095 71.9891 79.8255V85.0635H70.3511V75.1815H71.9891V77.5215C72.2411 76.7175 72.6851 76.0995 73.3211 75.6675C73.9691 75.2355 74.7131 75.0195 75.5531 75.0195ZM85.9675 75.0555C86.9275 75.0555 87.7375 75.2955 88.3975 75.7755C89.0695 76.2555 89.5375 76.8975 89.8015 77.7015V75.1815H91.4395V85.2255C91.4395 86.1375 91.2475 86.9475 90.8635 87.6555C90.4795 88.3635 89.9395 88.9155 89.2435 89.3115C88.5475 89.7075 87.7375 89.9055 86.8135 89.9055C85.4815 89.9055 84.3955 89.5815 83.5555 88.9335C82.7155 88.2975 82.1815 87.4335 81.9535 86.3415H83.5735C83.7655 87.0015 84.1255 87.5175 84.6535 87.8895C85.1935 88.2735 85.8835 88.4655 86.7235 88.4655C87.6115 88.4655 88.3435 88.1775 88.9195 87.6015C89.5075 87.0375 89.8015 86.2455 89.8015 85.2255V82.5435C89.5375 83.3475 89.0695 83.9895 88.3975 84.4695C87.7375 84.9495 86.9275 85.1895 85.9675 85.1895C85.0915 85.1895 84.3115 84.9855 83.6275 84.5775C82.9435 84.1695 82.4035 83.5875 82.0075 82.8315C81.6235 82.0635 81.4315 81.1635 81.4315 80.1315C81.4315 79.0995 81.6235 78.1995 82.0075 77.4315C82.4035 76.6635 82.9435 76.0755 83.6275 75.6675C84.3115 75.2595 85.0915 75.0555 85.9675 75.0555ZM86.4355 76.5135C85.4275 76.5135 84.6175 76.8375 84.0055 77.4855C83.4055 78.1215 83.1055 79.0035 83.1055 80.1315C83.1055 81.2595 83.4055 82.1475 84.0055 82.7955C84.6175 83.4315 85.4275 83.7495 86.4355 83.7495C87.0835 83.7495 87.6595 83.5995 88.1635 83.2995C88.6795 82.9995 89.0815 82.5795 89.3695 82.0395C89.6575 81.4875 89.8015 80.8515 89.8015 80.1315C89.8015 79.4115 89.6575 78.7755 89.3695 78.2235C89.0815 77.6715 88.6795 77.2515 88.1635 76.9635C87.6595 76.6635 87.0835 76.5135 86.4355 76.5135ZM103.21 83.6235V85.0635H101.986C100.978 85.0635 100.222 84.8235 99.7177 84.3435C99.2257 83.8635 98.9797 83.0595 98.9797 81.9315V76.6035H97.5037V75.1815H98.9797V72.7155H100.636V75.1815H103.192V76.6035H100.636V81.9675C100.636 82.6035 100.75 83.0415 100.978 83.2815C101.218 83.5095 101.626 83.6235 102.202 83.6235H103.21ZM110.411 75.0195C111.563 75.0195 112.493 75.3915 113.201 76.1355C113.909 76.8675 114.263 77.9295 114.263 79.3215V85.0635H112.625V79.4655C112.625 78.4815 112.373 77.7255 111.869 77.1975C111.365 76.6695 110.681 76.4055 109.817 76.4055C108.917 76.4055 108.197 76.6995 107.657 77.2875C107.117 77.8635 106.847 78.7095 106.847 79.8255V85.0635H105.209V71.7435H106.847V77.5215C107.099 76.7175 107.543 76.0995 108.179 75.6675C108.827 75.2355 109.571 75.0195 110.411 75.0195ZM125.865 79.5735C125.865 79.9215 125.841 80.2215 125.793 80.4735H117.891C117.927 81.6015 118.245 82.4475 118.845 83.0115C119.457 83.5755 120.201 83.8575 121.077 83.8575C121.869 83.8575 122.529 83.6595 123.057 83.2635C123.597 82.8555 123.927 82.3155 124.047 81.6435H125.793C125.673 82.3275 125.403 82.9395 124.983 83.4795C124.575 84.0195 124.041 84.4395 123.381 84.7395C122.721 85.0395 121.977 85.1895 121.149 85.1895C120.201 85.1895 119.361 84.9855 118.629 84.5775C117.897 84.1695 117.321 83.5875 116.901 82.8315C116.493 82.0635 116.289 81.1635 116.289 80.1315C116.289 79.0995 116.493 78.1995 116.901 77.4315C117.321 76.6635 117.897 76.0755 118.629 75.6675C119.361 75.2595 120.201 75.0555 121.149 75.0555C122.109 75.0555 122.943 75.2595 123.651 75.6675C124.371 76.0755 124.917 76.6215 125.289 77.3055C125.673 77.9895 125.865 78.7455 125.865 79.5735ZM124.209 79.6815C124.245 78.9495 124.125 78.3375 123.849 77.8455C123.573 77.3535 123.195 76.9875 122.715 76.7475C122.235 76.5075 121.713 76.3875 121.149 76.3875C120.249 76.3875 119.493 76.6695 118.881 77.2335C118.269 77.7855 117.939 78.6015 117.891 79.6815H124.209ZM140.157 75.0195C141.309 75.0195 142.233 75.3915 142.929 76.1355C143.637 76.8675 143.991 77.9295 143.991 79.3215V85.0635H142.353V79.4655C142.353 78.4935 142.113 77.7495 141.633 77.2335C141.165 76.7175 140.517 76.4595 139.689 76.4595C138.825 76.4595 138.129 76.7475 137.601 77.3235C137.085 77.8875 136.827 78.7215 136.827 79.8255V85.0635H135.189V79.4655C135.189 78.4935 134.949 77.7495 134.469 77.2335C133.989 76.7175 133.341 76.4595 132.525 76.4595C131.649 76.4595 130.947 76.7475 130.419 77.3235C129.903 77.8875 129.645 78.7215 129.645 79.8255V85.0635H128.007V75.1815H129.645V77.4315C129.885 76.6515 130.311 76.0575 130.923 75.6495C131.547 75.2295 132.261 75.0195 133.065 75.0195C133.905 75.0195 134.631 75.2355 135.243 75.6675C135.867 76.0875 136.311 76.7115 136.575 77.5395C136.851 76.7355 137.313 76.1175 137.961 75.6855C138.609 75.2415 139.341 75.0195 140.157 75.0195Z" fill="#221047"/>
</svg>
