<svg width="212" height="50" viewBox="0 0 212 50" fill="none" xmlns="http://www.w3.org/2000/svg">
<path d="M64.248 9.91283C66.04 9.91283 67.408 10.3048 68.352 11.0888C69.312 11.8568 69.792 12.9768 69.792 14.4488C69.792 15.9528 69.312 17.1048 68.352 17.9048C67.408 18.6888 66.04 19.0808 64.248 19.0808H62.496V21.9128H65.088V24.0488H57.96V21.9128H60.048V12.0488H57.96V9.91283H64.248ZM64.224 17.0888C66.224 17.0888 67.224 16.2248 67.224 14.4968C67.224 12.8648 66.224 12.0488 64.224 12.0488H62.52V17.0888H64.224ZM81.1433 22.7768C80.4713 23.3528 79.7673 23.7768 79.0313 24.0488C78.3113 24.3208 77.5513 24.4568 76.7513 24.4568C75.5673 24.4568 74.5353 24.2248 73.6553 23.7608C72.7753 23.2968 72.0953 22.6408 71.6152 21.7928C71.1513 20.9288 70.9193 19.9208 70.9193 18.7688C70.9193 17.6328 71.1433 16.6408 71.5913 15.7928C72.0393 14.9288 72.6713 14.2568 73.4873 13.7768C74.3193 13.2968 75.2713 13.0568 76.3433 13.0568C77.3993 13.0568 78.3113 13.2808 79.0793 13.7288C79.8473 14.1608 80.4393 14.7688 80.8553 15.5528C81.2873 16.3368 81.5033 17.2568 81.5033 18.3128C81.5033 18.4888 81.4953 18.6808 81.4793 18.8888C81.4633 19.0968 81.4393 19.2968 81.4073 19.4888L73.2473 19.5128C73.2953 20.2168 73.4793 20.7928 73.7993 21.2408C74.1353 21.6728 74.5513 22.0008 75.0473 22.2248C75.5593 22.4328 76.1113 22.5368 76.7033 22.5368C77.3913 22.5368 78.0313 22.4328 78.6233 22.2248C79.2153 22.0168 79.7513 21.7128 80.2313 21.3128L81.1433 22.7768ZM79.1033 17.7848C79.1033 16.9528 78.8553 16.2808 78.3593 15.7688C77.8793 15.2408 77.2233 14.9768 76.3913 14.9768C75.6073 14.9768 74.9113 15.2408 74.3033 15.7688C73.7113 16.2808 73.3753 16.9528 73.2953 17.7848H79.1033ZM90.9536 23.4728C89.8656 24.1288 88.7296 24.4568 87.5456 24.4568C86.1056 24.4568 85.0096 24.1768 84.2576 23.6168C83.5216 23.0568 83.1456 22.2408 83.1296 21.1688C83.1136 18.9768 84.5296 17.8808 87.3776 17.8808L90.2096 17.9048C90.2096 16.8968 90.0096 16.1528 89.6096 15.6728C89.2256 15.1768 88.6816 14.9288 87.9776 14.9288C87.6096 14.9288 87.2576 14.9528 86.9216 15.0008C86.5856 15.0488 86.2656 15.1208 85.9616 15.2168L85.7216 16.4648L83.7296 16.1528L84.1616 13.7528C84.7856 13.5288 85.4176 13.3608 86.0576 13.2488C86.6976 13.1208 87.3376 13.0568 87.9776 13.0568C89.4976 13.0568 90.6496 13.4648 91.4336 14.2808C92.2336 15.0808 92.6336 16.2648 92.6336 17.8328V21.8888L94.7456 22.5848L94.1216 24.5528L90.9536 23.4728ZM87.4496 19.5848C86.8576 19.5848 86.4016 19.7208 86.0816 19.9928C85.7616 20.2488 85.6016 20.6248 85.6016 21.1208C85.6016 22.1128 86.2816 22.6088 87.6416 22.6088C88.6016 22.6088 89.4576 22.3528 90.2096 21.8408V19.5848H87.4496ZM102.762 15.2168C102.458 15.1048 102.146 15.0168 101.826 14.9528C101.522 14.8728 101.17 14.8328 100.77 14.8328C100.194 14.8328 99.674 14.9528 99.21 15.1928C98.762 15.4168 98.538 15.7608 98.538 16.2248C98.538 16.6248 98.69 16.9448 98.994 17.1848C99.314 17.4248 99.842 17.5928 100.578 17.6888L101.85 17.8568C103.114 18.0008 104.018 18.3368 104.562 18.8648C105.122 19.3928 105.402 20.1048 105.402 21.0008C105.402 21.7368 105.194 22.3688 104.778 22.8968C104.378 23.4248 103.834 23.8168 103.146 24.0728C102.458 24.3448 101.69 24.4808 100.842 24.4808C99.978 24.4808 99.186 24.3768 98.466 24.1688C97.746 23.9768 97.098 23.7208 96.522 23.4008L96.114 20.9048L98.154 20.5208L98.442 21.9608C98.794 22.1368 99.162 22.2728 99.546 22.3688C99.93 22.4648 100.322 22.5128 100.722 22.5128C101.394 22.5128 101.978 22.3928 102.474 22.1528C102.986 21.8968 103.242 21.5288 103.242 21.0488C103.242 20.6648 103.106 20.3688 102.834 20.1608C102.562 19.9528 102.05 19.8008 101.298 19.7048L100.05 19.5368C98.882 19.3768 97.978 19.0248 97.338 18.4808C96.698 17.9368 96.378 17.2328 96.378 16.3688C96.378 15.6648 96.57 15.0648 96.954 14.5688C97.354 14.0728 97.882 13.6968 98.538 13.4408C99.21 13.1848 99.954 13.0568 100.77 13.0568C101.506 13.0568 102.186 13.1368 102.81 13.2968C103.434 13.4568 104.018 13.7048 104.562 14.0408L104.994 16.3448L103.17 16.7048L102.762 15.2168ZM109.913 29.6888C109.609 29.6888 109.297 29.6568 108.977 29.5928C108.673 29.5448 108.345 29.4488 107.993 29.3048L108.401 27.4568C108.673 27.5368 108.913 27.6008 109.121 27.6488C109.345 27.6968 109.569 27.7208 109.793 27.7208C110.209 27.7208 110.553 27.6408 110.825 27.4808C111.097 27.3208 111.353 27.0248 111.593 26.5928C111.849 26.1608 112.121 25.5448 112.409 24.7448L115.913 15.3848H114.641L114.713 13.4888H120.041V15.3848H118.241L114.017 25.9928C113.505 27.2568 112.921 28.1848 112.265 28.7768C111.609 29.3848 110.825 29.6888 109.913 29.6888ZM112.937 25.6808L108.113 15.3848H106.361V13.4888H111.905V15.3848H110.561L113.993 23.3768L112.937 25.6808Z" fill="#351771"/>
<rect x="124" y="2.04883" width="88" height="30" rx="8" fill="#FBE54D"/>
<path d="M133.008 9.91283H143.904L145.368 14.3048L143.088 15.0728L142.152 12.3368H137.808V15.7208H141.504V18.1448H137.784V21.6248H140.832V24.0488H132.984V21.6248H135.048L135.072 12.3368H133.008V9.91283ZM152.312 12.8648C153.512 12.8648 154.536 13.0968 155.384 13.5608C156.232 14.0248 156.88 14.6968 157.328 15.5768C157.776 16.4408 158 17.4808 158 18.6968C158 20.5208 157.496 21.9448 156.488 22.9688C155.496 23.9928 154.104 24.5048 152.312 24.5048C151.144 24.5048 150.136 24.2728 149.288 23.8088C148.456 23.3448 147.816 22.6808 147.368 21.8168C146.936 20.9368 146.72 19.8968 146.72 18.6968C146.72 17.4808 146.936 16.4408 147.368 15.5768C147.816 14.6968 148.456 14.0248 149.288 13.5608C150.136 13.0968 151.144 12.8648 152.312 12.8648ZM152.312 15.0968C151.352 15.0968 150.624 15.4088 150.128 16.0328C149.648 16.6408 149.408 17.5288 149.408 18.6968C149.408 19.8648 149.648 20.7608 150.128 21.3848C150.624 22.0088 151.352 22.3208 152.312 22.3208C153.304 22.3208 154.048 22.0088 154.544 21.3848C155.04 20.7608 155.288 19.8648 155.288 18.6968C155.288 17.5288 155.04 16.6408 154.544 16.0328C154.048 15.4088 153.304 15.0968 152.312 15.0968ZM163.595 14.2328C164.251 13.7848 164.891 13.4568 165.515 13.2488C166.155 13.0248 166.779 12.9128 167.387 12.9128C167.995 12.9128 168.563 13.0168 169.091 13.2248L169.499 16.2008L167.243 16.6808L167.003 15.3848C166.475 15.4328 165.979 15.5288 165.515 15.6728C165.067 15.8168 164.683 16.0088 164.363 16.2488L164.339 21.8648H166.691V24.0488H159.611V21.8648H161.627V16.0088L159.323 15.2408L160.043 13.0568L163.595 14.2328ZM170.932 24.0488V21.8648H172.924V15.9608L170.644 15.2408L171.364 13.0328L174.772 14.1368C175.268 13.7208 175.82 13.4088 176.428 13.2008C177.052 12.9768 177.676 12.8648 178.3 12.8648C178.956 12.8648 179.564 12.9768 180.124 13.2008C180.7 13.4248 181.164 13.7608 181.516 14.2088C181.996 13.8248 182.54 13.5048 183.148 13.2488C183.772 12.9928 184.42 12.8648 185.092 12.8648C186.596 12.8648 187.684 13.2248 188.356 13.9448C189.028 14.6648 189.364 15.8648 189.364 17.5448V21.8648H191.404V24.0488H185.692V21.8648H186.628V17.6888C186.628 16.7928 186.484 16.1608 186.196 15.7928C185.908 15.4088 185.412 15.2168 184.708 15.2168C184.34 15.2168 183.948 15.2968 183.532 15.4568C183.132 15.6008 182.796 15.7848 182.524 16.0088V21.8648H183.46V24.0488H178.828V21.8648H179.788V17.6888C179.788 16.7928 179.644 16.1608 179.356 15.7928C179.068 15.4088 178.572 15.2168 177.868 15.2168C177.5 15.2168 177.108 15.2968 176.692 15.4568C176.292 15.6008 175.948 15.7848 175.66 16.0088V21.8648H176.644V24.0488H170.932ZM199.488 15.1688C199.2 15.0728 198.904 15.0008 198.6 14.9528C198.312 14.8888 198 14.8568 197.664 14.8568C197.104 14.8568 196.6 14.9608 196.152 15.1688C195.72 15.3768 195.504 15.6968 195.504 16.1288C195.504 16.4968 195.632 16.7928 195.888 17.0168C196.144 17.2408 196.64 17.4008 197.376 17.4968L198.816 17.7128C200.064 17.8728 200.968 18.2168 201.528 18.7448C202.088 19.2728 202.368 19.9928 202.368 20.9048C202.368 21.7208 202.152 22.4008 201.72 22.9448C201.288 23.4728 200.712 23.8648 199.992 24.1208C199.288 24.3768 198.512 24.5048 197.664 24.5048C196.768 24.5048 195.96 24.4088 195.24 24.2168C194.536 24.0408 193.888 23.7768 193.296 23.4248L192.864 20.9288L195.144 20.5208L195.408 21.8408C195.744 22.0008 196.088 22.1208 196.44 22.2008C196.792 22.2808 197.152 22.3208 197.52 22.3208C198.176 22.3208 198.744 22.2088 199.224 21.9848C199.704 21.7608 199.944 21.4248 199.944 20.9768C199.944 20.6408 199.824 20.3688 199.584 20.1608C199.344 19.9528 198.864 19.8088 198.144 19.7288L196.776 19.5128C195.624 19.3368 194.72 18.9768 194.064 18.4328C193.408 17.8888 193.08 17.1688 193.08 16.2728C193.08 15.5688 193.272 14.9608 193.656 14.4488C194.04 13.9368 194.576 13.5448 195.264 13.2728C195.952 13.0008 196.736 12.8648 197.616 12.8648C198.368 12.8648 199.064 12.9528 199.704 13.1288C200.344 13.2888 200.936 13.5608 201.48 13.9448L201.912 16.2488L199.872 16.6328L199.488 15.1688Z" fill="#351771"/>
<path d="M61.834 38.8178C62.062 38.8538 62.269 38.9468 62.455 39.0968C62.647 39.2468 62.797 39.4328 62.905 39.6548C63.019 39.8768 63.076 40.1138 63.076 40.3658C63.076 40.6838 62.995 40.9718 62.833 41.2298C62.671 41.4818 62.434 41.6828 62.122 41.8328C61.816 41.9768 61.453 42.0488 61.033 42.0488H58.693V35.7758H60.943C61.369 35.7758 61.732 35.8478 62.032 35.9918C62.332 36.1298 62.557 36.3188 62.707 36.5588C62.857 36.7988 62.932 37.0688 62.932 37.3688C62.932 37.7408 62.83 38.0498 62.626 38.2958C62.428 38.5358 62.164 38.7098 61.834 38.8178ZM59.512 38.4848H60.889C61.273 38.4848 61.57 38.3948 61.78 38.2148C61.99 38.0348 62.095 37.7858 62.095 37.4678C62.095 37.1498 61.99 36.9008 61.78 36.7208C61.57 36.5408 61.267 36.4508 60.871 36.4508H59.512V38.4848ZM60.961 41.3738C61.369 41.3738 61.687 41.2778 61.915 41.0858C62.143 40.8938 62.257 40.6268 62.257 40.2848C62.257 39.9368 62.137 39.6638 61.897 39.4658C61.657 39.2618 61.336 39.1598 60.934 39.1598H59.512V41.3738H60.961ZM68.5505 37.1168L65.5805 44.3708H64.7345L65.7065 41.9948L63.7175 37.1168H64.6265L66.1745 41.1128L67.7045 37.1168H68.5505ZM76.1472 37.6118C76.1472 38.1338 75.9672 38.5688 75.6072 38.9168C75.2532 39.2588 74.7102 39.4298 73.9782 39.4298H72.7722V42.0488H71.9532V35.7758H73.9782C74.6862 35.7758 75.2232 35.9468 75.5892 36.2888C75.9612 36.6308 76.1472 37.0718 76.1472 37.6118ZM73.9782 38.7548C74.4342 38.7548 74.7702 38.6558 74.9862 38.4578C75.2022 38.2598 75.3102 37.9778 75.3102 37.6118C75.3102 36.8378 74.8662 36.4508 73.9782 36.4508H72.7722V38.7548H73.9782ZM78.0741 37.9178C78.2181 37.6358 78.4221 37.4168 78.6861 37.2608C78.9561 37.1048 79.2831 37.0268 79.6671 37.0268V37.8728H79.4511C78.5331 37.8728 78.0741 38.3708 78.0741 39.3668V42.0488H77.2551V37.1168H78.0741V37.9178ZM82.8536 42.1298C82.3916 42.1298 81.9716 42.0248 81.5936 41.8148C81.2216 41.6048 80.9276 41.3078 80.7116 40.9238C80.5016 40.5338 80.3966 40.0838 80.3966 39.5738C80.3966 39.0698 80.5046 38.6258 80.7206 38.2418C80.9426 37.8518 81.2426 37.5548 81.6206 37.3508C81.9986 37.1408 82.4216 37.0358 82.8896 37.0358C83.3576 37.0358 83.7806 37.1408 84.1586 37.3508C84.5366 37.5548 84.8336 37.8488 85.0496 38.2328C85.2716 38.6168 85.3826 39.0638 85.3826 39.5738C85.3826 40.0838 85.2686 40.5338 85.0406 40.9238C84.8186 41.3078 84.5156 41.6048 84.1316 41.8148C83.7476 42.0248 83.3216 42.1298 82.8536 42.1298ZM82.8536 41.4098C83.1476 41.4098 83.4236 41.3408 83.6816 41.2028C83.9396 41.0648 84.1466 40.8578 84.3026 40.5818C84.4646 40.3058 84.5456 39.9698 84.5456 39.5738C84.5456 39.1778 84.4676 38.8418 84.3116 38.5658C84.1556 38.2898 83.9516 38.0858 83.6996 37.9538C83.4476 37.8158 83.1746 37.7468 82.8806 37.7468C82.5806 37.7468 82.3046 37.8158 82.0526 37.9538C81.8066 38.0858 81.6086 38.2898 81.4586 38.5658C81.3086 38.8418 81.2336 39.1778 81.2336 39.5738C81.2336 39.9758 81.3056 40.3148 81.4496 40.5908C81.5996 40.8668 81.7976 41.0738 82.0436 41.2118C82.2896 41.3438 82.5596 41.4098 82.8536 41.4098ZM86.2434 39.5738C86.2434 39.0638 86.3454 38.6198 86.5494 38.2418C86.7534 37.8578 87.0354 37.5608 87.3954 37.3508C87.7614 37.1408 88.1784 37.0358 88.6464 37.0358C89.2524 37.0358 89.7504 37.1828 90.1404 37.4768C90.5364 37.7708 90.7974 38.1788 90.9234 38.7008H90.0414C89.9574 38.4008 89.7924 38.1638 89.5464 37.9898C89.3064 37.8158 89.0064 37.7288 88.6464 37.7288C88.1784 37.7288 87.8004 37.8908 87.5124 38.2148C87.2244 38.5328 87.0804 38.9858 87.0804 39.5738C87.0804 40.1678 87.2244 40.6268 87.5124 40.9508C87.8004 41.2748 88.1784 41.4368 88.6464 41.4368C89.0064 41.4368 89.3064 41.3528 89.5464 41.1848C89.7864 41.0168 89.9514 40.7768 90.0414 40.4648H90.9234C90.7914 40.9688 90.5274 41.3738 90.1314 41.6798C89.7354 41.9798 89.2404 42.1298 88.6464 42.1298C88.1784 42.1298 87.7614 42.0248 87.3954 41.8148C87.0354 41.6048 86.7534 41.3078 86.5494 40.9238C86.3454 40.5398 86.2434 40.0898 86.2434 39.5738ZM96.6062 39.3938C96.6062 39.5498 96.5972 39.7148 96.5792 39.8888H92.6372C92.6672 40.3748 92.8322 40.7558 93.1322 41.0318C93.4382 41.3018 93.8072 41.4368 94.2392 41.4368C94.5932 41.4368 94.8872 41.3558 95.1212 41.1938C95.3612 41.0258 95.5292 40.8038 95.6252 40.5278H96.5072C96.3752 41.0018 96.1112 41.3888 95.7152 41.6888C95.3192 41.9828 94.8272 42.1298 94.2392 42.1298C93.7712 42.1298 93.3512 42.0248 92.9792 41.8148C92.6132 41.6048 92.3252 41.3078 92.1152 40.9238C91.9052 40.5338 91.8002 40.0838 91.8002 39.5738C91.8002 39.0638 91.9022 38.6168 92.1062 38.2328C92.3102 37.8488 92.5952 37.5548 92.9612 37.3508C93.3332 37.1408 93.7592 37.0358 94.2392 37.0358C94.7072 37.0358 95.1212 37.1378 95.4812 37.3418C95.8412 37.5458 96.1172 37.8278 96.3092 38.1878C96.5072 38.5418 96.6062 38.9438 96.6062 39.3938ZM95.7602 39.2228C95.7602 38.9108 95.6912 38.6438 95.5532 38.4218C95.4152 38.1938 95.2262 38.0228 94.9862 37.9088C94.7522 37.7888 94.4912 37.7288 94.2032 37.7288C93.7892 37.7288 93.4352 37.8608 93.1412 38.1248C92.8532 38.3888 92.6882 38.7548 92.6462 39.2228H95.7602ZM99.5233 42.1298C99.1453 42.1298 98.8063 42.0668 98.5063 41.9408C98.2063 41.8088 97.9693 41.6288 97.7953 41.4008C97.6213 41.1668 97.5253 40.8998 97.5073 40.5998H98.3533C98.3773 40.8458 98.4913 41.0468 98.6953 41.2028C98.9053 41.3588 99.1783 41.4368 99.5143 41.4368C99.8263 41.4368 100.072 41.3678 100.252 41.2298C100.432 41.0918 100.522 40.9178 100.522 40.7078C100.522 40.4918 100.426 40.3328 100.234 40.2308C100.042 40.1228 99.7453 40.0178 99.3433 39.9158C98.9773 39.8198 98.6773 39.7238 98.4433 39.6278C98.2153 39.5258 98.0173 39.3788 97.8493 39.1868C97.6873 38.9888 97.6063 38.7308 97.6063 38.4128C97.6063 38.1608 97.6813 37.9298 97.8313 37.7198C97.9813 37.5098 98.1943 37.3448 98.4703 37.2248C98.7463 37.0988 99.0613 37.0358 99.4153 37.0358C99.9613 37.0358 100.402 37.1738 100.738 37.4498C101.074 37.7258 101.254 38.1038 101.278 38.5838H100.459C100.441 38.3258 100.336 38.1188 100.144 37.9628C99.9583 37.8068 99.7063 37.7288 99.3883 37.7288C99.0943 37.7288 98.8603 37.7918 98.6863 37.9178C98.5123 38.0438 98.4253 38.2088 98.4253 38.4128C98.4253 38.5748 98.4763 38.7098 98.5783 38.8178C98.6863 38.9198 98.8183 39.0038 98.9743 39.0698C99.1363 39.1298 99.3583 39.1988 99.6403 39.2768C99.9943 39.3728 100.282 39.4688 100.504 39.5648C100.726 39.6548 100.915 39.7928 101.071 39.9788C101.233 40.1648 101.317 40.4078 101.323 40.7078C101.323 40.9778 101.248 41.2208 101.098 41.4368C100.948 41.6528 100.735 41.8238 100.459 41.9498C100.189 42.0698 99.8773 42.1298 99.5233 42.1298ZM104.315 42.1298C103.937 42.1298 103.598 42.0668 103.298 41.9408C102.998 41.8088 102.761 41.6288 102.587 41.4008C102.413 41.1668 102.317 40.8998 102.299 40.5998H103.145C103.169 40.8458 103.283 41.0468 103.487 41.2028C103.697 41.3588 103.97 41.4368 104.306 41.4368C104.618 41.4368 104.864 41.3678 105.044 41.2298C105.224 41.0918 105.314 40.9178 105.314 40.7078C105.314 40.4918 105.218 40.3328 105.026 40.2308C104.834 40.1228 104.537 40.0178 104.135 39.9158C103.769 39.8198 103.469 39.7238 103.235 39.6278C103.007 39.5258 102.809 39.3788 102.641 39.1868C102.479 38.9888 102.398 38.7308 102.398 38.4128C102.398 38.1608 102.473 37.9298 102.623 37.7198C102.773 37.5098 102.986 37.3448 103.262 37.2248C103.538 37.0988 103.853 37.0358 104.207 37.0358C104.753 37.0358 105.194 37.1738 105.53 37.4498C105.866 37.7258 106.046 38.1038 106.07 38.5838H105.251C105.233 38.3258 105.128 38.1188 104.936 37.9628C104.75 37.8068 104.498 37.7288 104.18 37.7288C103.886 37.7288 103.652 37.7918 103.478 37.9178C103.304 38.0438 103.217 38.2088 103.217 38.4128C103.217 38.5748 103.268 38.7098 103.37 38.8178C103.478 38.9198 103.61 39.0038 103.766 39.0698C103.928 39.1298 104.15 39.1988 104.432 39.2768C104.786 39.3728 105.074 39.4688 105.296 39.5648C105.518 39.6548 105.707 39.7928 105.863 39.9788C106.025 40.1648 106.109 40.4078 106.115 40.7078C106.115 40.9778 106.04 41.2208 105.89 41.4368C105.74 41.6528 105.527 41.8238 105.251 41.9498C104.981 42.0698 104.669 42.1298 104.315 42.1298ZM113.712 35.7758V36.4418H112.002V42.0488H111.183V36.4418H109.464V35.7758H113.712ZM114.504 39.5648C114.504 39.0608 114.606 38.6198 114.81 38.2418C115.014 37.8578 115.293 37.5608 115.647 37.3508C116.007 37.1408 116.406 37.0358 116.844 37.0358C117.276 37.0358 117.651 37.1288 117.969 37.3148C118.287 37.5008 118.524 37.7348 118.68 38.0168V37.1168H119.508V42.0488H118.68V41.1308C118.518 41.4188 118.275 41.6588 117.951 41.8508C117.633 42.0368 117.261 42.1298 116.835 42.1298C116.397 42.1298 116.001 42.0218 115.647 41.8058C115.293 41.5898 115.014 41.2868 114.81 40.8968C114.606 40.5068 114.504 40.0628 114.504 39.5648ZM118.68 39.5738C118.68 39.2018 118.605 38.8778 118.455 38.6018C118.305 38.3258 118.101 38.1158 117.843 37.9718C117.591 37.8218 117.312 37.7468 117.006 37.7468C116.7 37.7468 116.421 37.8188 116.169 37.9628C115.917 38.1068 115.716 38.3168 115.566 38.5928C115.416 38.8688 115.341 39.1928 115.341 39.5648C115.341 39.9428 115.416 40.2728 115.566 40.5548C115.716 40.8308 115.917 41.0438 116.169 41.1938C116.421 41.3378 116.7 41.4098 117.006 41.4098C117.312 41.4098 117.591 41.3378 117.843 41.1938C118.101 41.0438 118.305 40.8308 118.455 40.5548C118.605 40.2728 118.68 39.9458 118.68 39.5738ZM121.801 35.3888V42.0488H120.982V35.3888H121.801ZM126.041 42.0488L124.106 39.8708V42.0488H123.287V35.3888H124.106V39.3038L126.005 37.1168H127.148L124.826 39.5738L127.157 42.0488H126.041ZM129.755 42.1298C129.377 42.1298 129.038 42.0668 128.738 41.9408C128.438 41.8088 128.201 41.6288 128.027 41.4008C127.853 41.1668 127.757 40.8998 127.739 40.5998H128.585C128.609 40.8458 128.723 41.0468 128.927 41.2028C129.137 41.3588 129.41 41.4368 129.746 41.4368C130.058 41.4368 130.304 41.3678 130.484 41.2298C130.664 41.0918 130.754 40.9178 130.754 40.7078C130.754 40.4918 130.658 40.3328 130.466 40.2308C130.274 40.1228 129.977 40.0178 129.575 39.9158C129.209 39.8198 128.909 39.7238 128.675 39.6278C128.447 39.5258 128.249 39.3788 128.081 39.1868C127.919 38.9888 127.838 38.7308 127.838 38.4128C127.838 38.1608 127.913 37.9298 128.063 37.7198C128.213 37.5098 128.426 37.3448 128.702 37.2248C128.978 37.0988 129.293 37.0358 129.647 37.0358C130.193 37.0358 130.634 37.1738 130.97 37.4498C131.306 37.7258 131.486 38.1038 131.51 38.5838H130.691C130.673 38.3258 130.568 38.1188 130.376 37.9628C130.19 37.8068 129.938 37.7288 129.62 37.7288C129.326 37.7288 129.092 37.7918 128.918 37.9178C128.744 38.0438 128.657 38.2088 128.657 38.4128C128.657 38.5748 128.708 38.7098 128.81 38.8178C128.918 38.9198 129.05 39.0038 129.206 39.0698C129.368 39.1298 129.59 39.1988 129.872 39.2768C130.226 39.3728 130.514 39.4688 130.736 39.5648C130.958 39.6548 131.147 39.7928 131.303 39.9788C131.465 40.1648 131.549 40.4078 131.555 40.7078C131.555 40.9778 131.48 41.2208 131.33 41.4368C131.18 41.6528 130.967 41.8238 130.691 41.9498C130.421 42.0698 130.109 42.1298 129.755 42.1298Z" fill="#351771"/>
<path d="M48.5 17.5532C48.1667 12.0532 44.1 1.4539 26.5 1.05323C18 0.859717 12.5 5.04883 5.5 19.0487C4.5 22.0488 3 25.0488 2 32.5488C2.05799 34.8838 1 38.2282 1 40.5488C1 42.0488 5.5 41.0488 8.5 43.5532C10.8905 45.5488 14.0986 45.0197 17.0049 46.0577C24.0049 48.5577 25.0049 46.0577 30.5049 46.0577C36.0049 46.0577 42 42.5533 46.0049 38.5577C49.0292 35.5405 49 33.0533 50.5 28.5533C51.7 24.9533 49 19.5532 48.5 17.5532Z" fill="#FBE54D"/>
<path d="M26.5 1.05323L26.4829 1.80303L26.5 1.05323ZM48.5 17.5532L47.7514 17.5986L47.7556 17.6678L47.7724 17.7351L48.5 17.5532ZM50.5 28.5533L49.7885 28.3161L49.7885 28.3161L50.5 28.5533ZM46.0049 38.5577L45.4752 38.0268L45.4752 38.0268L46.0049 38.5577ZM17.0049 46.0577L17.2572 45.3514L17.2572 45.3514L17.0049 46.0577ZM5.5 19.0487L4.82918 18.7133L4.80534 18.761L4.78848 18.8115L5.5 19.0487ZM2 32.5488L1.25658 32.4497L1.24876 32.5083L1.25023 32.5674L2 32.5488ZM8.5 43.5532L8.98063 42.9775L8.98063 42.9775L8.5 43.5532ZM26.4829 1.80303C35.1254 1.99978 40.3392 4.69297 43.4345 7.91091C46.5441 11.1437 47.5931 14.9866 47.7514 17.5986L49.2486 17.5078C49.0736 14.6199 47.9225 10.413 44.5155 6.87104C41.0942 3.31415 35.4746 0.507344 26.5171 0.30342L26.4829 1.80303ZM47.7724 17.7351C47.9092 18.2824 48.1902 19.0429 48.4868 19.8642C48.7912 20.7073 49.1304 21.6614 49.4165 22.6599C49.9994 24.6937 50.3109 26.749 49.7885 28.3161L51.2115 28.7905C51.8891 26.7576 51.4506 24.3128 50.8585 22.2466C50.5571 21.1951 50.2025 20.1992 49.8976 19.3547C49.5848 18.4885 49.3408 17.824 49.2276 17.3713L47.7724 17.7351ZM49.7885 28.3161C48.227 33.0006 48.3327 35.1759 45.4752 38.0268L46.5346 39.0886C49.7257 35.905 49.773 33.106 51.2115 28.7905L49.7885 28.3161ZM45.4752 38.0268C41.5428 41.95 35.7273 45.3077 30.5049 45.3077V46.8077C36.2825 46.8077 42.4572 43.1566 46.5346 39.0886L45.4752 38.0268ZM30.5049 45.3077C27.6735 45.3077 25.8616 45.9679 24.19 46.2561C22.5188 46.5442 20.6497 46.563 17.2572 45.3514L16.7527 46.764C20.3601 48.0524 22.491 48.0712 24.4448 47.7343C26.3983 47.3975 27.8363 46.8077 30.5049 46.8077V45.3077ZM6.17082 19.3841C9.65802 12.4098 12.7273 7.97545 15.9189 5.30353C19.071 2.66478 22.3855 1.70975 26.4829 1.80303L26.5171 0.30342C22.1145 0.203193 18.429 1.24597 14.9561 4.15336C11.5227 7.02759 8.34198 11.6877 4.82918 18.7133L6.17082 19.3841ZM1.75 40.5488C1.75 39.4716 1.99773 38.1322 2.2597 36.6881C2.51325 35.2904 2.78105 33.7897 2.74977 32.5302L1.25023 32.5674C1.27694 33.6429 1.04474 34.9819 0.78379 36.4204C0.531268 37.8124 0.25 39.3055 0.25 40.5488H1.75ZM2.74342 32.6479C3.73141 25.238 5.19766 22.3276 6.21152 19.2859L4.78848 18.8115C3.80234 21.7701 2.26859 24.8596 1.25658 32.4497L2.74342 32.6479ZM17.2572 45.3514C15.721 44.8028 14.065 44.658 12.6838 44.425C11.2521 44.1836 10.0177 43.8432 8.98063 42.9775L8.01937 44.129C9.37286 45.2589 10.9378 45.6517 12.4343 45.9041C13.9813 46.165 15.3825 46.2747 16.7527 46.764L17.2572 45.3514ZM8.98063 42.9775C7.30956 41.5825 5.24774 41.185 3.74856 40.9346C2.95449 40.802 2.38363 40.7196 1.98726 40.5874C1.7952 40.5234 1.72644 40.4721 1.71274 40.4592C1.71129 40.4579 1.72447 40.4703 1.73645 40.4972C1.74204 40.5098 1.74573 40.5219 1.74786 40.5324C1.74888 40.5374 1.74943 40.5414 1.74971 40.5444C1.74985 40.5458 1.74993 40.5469 1.74996 40.5477C1.74998 40.548 1.74999 40.5483 1.75 40.5485C1.74998 40.5479 1.75 40.5494 1.75 40.5488C1.74999 40.5481 1.75 40.5496 1.75 40.5488H0.25C0.25 40.9547 0.414347 41.2976 0.685693 41.5525C0.929805 41.7818 1.23605 41.9181 1.51274 42.0104C2.05387 42.1908 2.79551 42.2962 3.50144 42.4141C5.00226 42.6648 6.69044 43.0196 8.01937 44.129L8.98063 42.9775Z" fill="#351771"/>
<path d="M44.4996 7.1993C40.4996 1.1993 28.8329 0.699304 23.4996 1.1993C21.9996 2.03261 18.5995 3.99922 16.9995 5.19922C14.9995 6.69922 10.9996 14.1992 9.99957 17.6992C8.99957 21.1992 10.4996 25.1992 11.9996 27.6992C13.4996 30.1992 20.4996 37.1992 23.4996 39.1992C26.4996 41.1992 34.9996 42.1992 37.4996 42.6992C39.9996 43.1992 44.4996 39.6992 47.4996 36.1992C49.8996 33.3992 50.4996 25.6992 50.4996 22.1992C50.1662 19.6992 48.4996 13.1993 44.4996 7.1993Z" fill="#FBE54D" stroke="#351771" stroke-width="2"/>
<path d="M31.5 22.0529C30.7 21.2529 22.5 26.3866 19.5 30.5532C21.5 33.5532 27 36.553 29 37.053C31 37.553 32.5 23.0529 31.5 22.0529Z" fill="#FBE54D" stroke="#351771" stroke-width="1.5"/>
<path d="M31.9999 22.0527C31.3723 21.1113 38.6132 28.8065 41.4995 33.0527C40.9186 36.0379 27.4745 37.4375 29.4999 37.0529C29.9999 36.9579 32.9999 23.5527 31.9999 22.0527Z" fill="#FBE54D" stroke="#351771" stroke-width="1.5"/>
<path d="M30.5 21.0532C31.2976 21.8557 23.5006 25.0532 19.5004 30.5533C16.5 28.0532 14.5423 21.7273 14.0484 19.7258C13.5545 17.7243 29.5031 20.0502 30.5 21.0532Z" fill="#FBE54D" stroke="#351771" stroke-width="1.5"/>
<path d="M32 21.0527C31.0436 21.6572 38.5762 26.8359 41.2496 33.0893C44.2859 33.2613 48.0001 22.553 46.0001 22.553C42.7985 22.553 33.1955 20.2972 32 21.0527Z" fill="#FBE54D" stroke="#351771" stroke-width="1.5"/>
<path d="M30.5 20.5533C29.56 21.1828 24.225 13.0581 22.0906 8.38847C23.1632 5.54275 28.941 5.1556 31 5.05322C33.059 4.95085 31.675 19.7663 30.5 20.5533Z" fill="#FBE54D" stroke="#351771" stroke-width="1.5"/>
<path d="M31.273 20.37C30.4747 21.1717 39.659 14.6344 43.3145 11.029C43.3239 7.9879 29.8192 4.39951 31.7315 5.16987C32.2035 5.36005 32.5451 19.0926 31.273 20.37Z" fill="#FBE54D" stroke="#351771" stroke-width="1.5"/>
<path d="M29.9995 20.5527C31.0438 20.9879 24.8563 14.2249 21.9995 8.05311C19.4102 10.262 14 13.553 14 19.0529C14 19.605 23.9997 18.0527 29.9995 20.5527Z" fill="#FBE54D" stroke="#351771" stroke-width="1.5"/>
<path d="M31.9997 20.0533C34.2127 19.3332 39.9997 12.5532 43.4995 11.5534C46.5115 11.9738 48.3195 22.1228 46.258 22.1227C43.4994 22.1227 30.6548 20.4909 31.9997 20.0533Z" fill="#FBE54D" stroke="#351771" stroke-width="1.5"/>
<path d="M33.0124 19.7145C33.0124 18.9145 30.0124 18.4394 30.0124 20.7145C29.8113 22.7147 32.1123 22.7147 32.5124 22.7147H32.5124C33.5122 22.7147 33.0124 20.7145 33.0124 19.7145Z" fill="#351771" stroke="#351771" stroke-width="1.5"/>
<circle cx="11.5" cy="40.5527" r="0.5" fill="#351771"/>
<circle cx="17.5" cy="42.5488" r="0.5" fill="#351771"/>
<circle cx="7.5" cy="41.5527" r="0.5" fill="#351771"/>
<circle cx="6.5" cy="41.5488" r="0.5" fill="#351771"/>
<circle cx="5.5" cy="41.5488" r="0.5" fill="#351771"/>
<circle cx="3.5" cy="35.5488" r="0.5" fill="#351771"/>
<circle cx="6.5" cy="37.5527" r="0.5" fill="#351771"/>
<circle cx="7.5" cy="36.5488" r="0.5" fill="#351771"/>
<circle cx="5.5" cy="35.5488" r="0.5" fill="#351771"/>
<circle cx="6.5" cy="34.5488" r="0.5" fill="#351771"/>
<circle cx="3.5" cy="34.5488" r="0.5" fill="#351771"/>
<circle cx="4.5" cy="33.5488" r="0.5" fill="#351771"/>
<circle cx="4.5" cy="30.5488" r="0.5" fill="#351771"/>
<circle cx="3.5" cy="36.5527" r="0.5" fill="#351771"/>
<circle cx="2.5" cy="36.5488" r="0.5" fill="#351771"/>
<circle cx="4.5" cy="37.5488" r="0.5" fill="#351771"/>
<circle cx="4.5" cy="39.5488" r="0.5" fill="#351771"/>
<circle cx="5.5" cy="40.5488" r="0.5" fill="#351771"/>
<circle cx="2.5" cy="37.5488" r="0.5" fill="#351771"/>
<circle cx="2.5" cy="35.5488" r="0.5" fill="#351771"/>
<circle cx="3.5" cy="38.5527" r="0.5" fill="#351771"/>
<circle cx="9.5" cy="33.5488" r="0.5" fill="#351771"/>
<circle cx="2" cy="40.0488" r="1" fill="#351771"/>
<circle cx="5.5" cy="38.5488" r="0.5" fill="#351771"/>
<circle cx="3.5" cy="40.5527" r="0.5" fill="#351771"/>
<circle cx="9.5" cy="35.5488" r="0.5" fill="#351771"/>
<circle cx="6.5" cy="39.5527" r="0.5" fill="#351771"/>
<circle cx="7.5" cy="38.5488" r="0.5" fill="#351771"/>
<circle cx="7.5" cy="33.5488" r="0.5" fill="#351771"/>
<circle cx="6.5" cy="32.5488" r="0.5" fill="#351771"/>
<circle cx="7.5" cy="31.5488" r="0.5" fill="#351771"/>
<circle cx="5.5" cy="31.5488" r="0.5" fill="#351771"/>
<circle cx="3.5" cy="32.5488" r="0.5" fill="#351771"/>
<circle cx="2.5" cy="38.5488" r="0.5" fill="#351771"/>
<circle cx="9.5" cy="38.5488" r="0.5" fill="#351771"/>
<circle cx="9.5" cy="39.5488" r="0.5" fill="#351771"/>
<circle cx="8.5" cy="40.5488" r="0.5" fill="#351771"/>
<circle cx="3.5" cy="39.5488" r="0.5" fill="#351771"/>
<circle cx="3.5" cy="37.5488" r="0.5" fill="#351771"/>
<circle cx="4.5" cy="38.5488" r="0.5" fill="#351771"/>
<circle cx="4.5" cy="40.5488" r="0.5" fill="#351771"/>
<circle cx="5.5" cy="39.5488" r="0.5" fill="#351771"/>
<circle cx="6.5" cy="40.5488" r="0.5" fill="#351771"/>
<ellipse cx="23.001" cy="21.5488" rx="1" ry="0.5" fill="#351771"/>
<ellipse cx="23.0003" cy="23.5492" rx="1" ry="0.5" transform="rotate(-28.2965 23.0003 23.5492)" fill="#351771"/>
<ellipse cx="26.1185" cy="21.9633" rx="1" ry="0.5" transform="rotate(-28.2965 26.1185 21.9633)" fill="#351771"/>
<ellipse cx="23.0958" cy="15.0593" rx="1" ry="0.5" transform="rotate(38.0913 23.0958 15.0593)" fill="#351771"/>
<ellipse cx="25.0958" cy="17.0593" rx="1" ry="0.5" transform="rotate(38.0913 25.0958 17.0593)" fill="#351771"/>
<ellipse cx="21.0958" cy="17.0593" rx="1" ry="0.5" transform="rotate(38.0913 21.0958 17.0593)" fill="#351771"/>
<ellipse cx="36.8794" cy="13.171" rx="1" ry="0.5" transform="rotate(-64.6969 36.8794 13.171)" fill="#351771"/>
<ellipse cx="34.8794" cy="12.171" rx="1" ry="0.5" transform="rotate(-64.6969 34.8794 12.171)" fill="#351771"/>
<ellipse cx="33.8804" cy="16.1671" rx="1" ry="0.5" transform="rotate(-64.6969 33.8804 16.1671)" fill="#351771"/>
<ellipse cx="25.8794" cy="29.171" rx="1" ry="0.5" transform="rotate(-64.6969 25.8794 29.171)" fill="#351771"/>
<ellipse cx="28.8804" cy="26.1671" rx="1" ry="0.5" transform="rotate(-64.6969 28.8804 26.1671)" fill="#351771"/>
<ellipse cx="27.8794" cy="30.171" rx="1" ry="0.5" transform="rotate(-64.6969 27.8794 30.171)" fill="#351771"/>
<ellipse cx="27.7623" cy="13.1543" rx="1" ry="0.5" transform="rotate(-106.424 27.7623 13.1543)" fill="#351771"/>
<ellipse cx="29.7633" cy="16.1494" rx="1" ry="0.5" transform="rotate(-106.424 29.7633 16.1494)" fill="#351771"/>
<ellipse cx="29.7623" cy="12.1533" rx="1" ry="0.5" transform="rotate(-106.424 29.7623 12.1533)" fill="#351771"/>
<ellipse cx="41.0997" cy="24.0537" rx="1" ry="0.5" transform="rotate(36.9788 41.0997 24.0537)" fill="#351771"/>
<ellipse cx="39.6524" cy="25.8877" rx="1" ry="0.5" transform="rotate(36.9788 39.6524 25.8877)" fill="#351771"/>
<ellipse cx="36.1006" cy="23.0498" rx="1" ry="0.5" transform="rotate(36.9788 36.1006 23.0498)" fill="#351771"/>
<ellipse cx="33.7623" cy="28.1533" rx="1" ry="0.5" transform="rotate(-106.424 33.7623 28.1533)" fill="#351771"/>
<ellipse cx="35.7623" cy="31.1543" rx="1" ry="0.5" transform="rotate(-106.424 35.7623 31.1543)" fill="#351771"/>
<ellipse cx="33.7628" cy="31.1493" rx="1" ry="0.5" transform="rotate(-84.7774 33.7628 31.1493)" fill="#351771"/>
<ellipse cx="41.0953" cy="17.7954" rx="1" ry="0.5" transform="rotate(-15 41.0953 17.7954)" fill="#351771"/>
<ellipse cx="37.0963" cy="18.7906" rx="1" ry="0.5" transform="rotate(-15 37.0963 18.7906)" fill="#351771"/>
<path fill-rule="evenodd" clip-rule="evenodd" d="M5.02256 46.3999C4.35976 46.6034 4 46.8217 4 47.0488C4 48.1534 12.5066 49.0488 23 49.0488C33.4934 49.0488 42 48.1534 42 47.0488C42 45.9443 33.4934 45.0488 23 45.0488C17.4473 45.0488 12.4509 45.2996 8.97695 45.6993C8.91308 45.9019 8.7237 46.0488 8.5 46.0488C8.32006 46.0488 8.16232 45.9538 8.07425 45.8111C8.01946 45.8184 7.96515 45.8258 7.91132 45.8332C7.82107 45.9635 7.6705 46.0488 7.5 46.0488C7.38197 46.0488 7.27349 46.0079 7.18796 45.9395C6.988 45.9711 6.79631 46.0032 6.61323 46.036C6.59735 46.0396 6.58118 46.0425 6.56476 46.0447C6.3075 46.0912 6.06758 46.139 5.84594 46.1878C5.94088 46.2788 6 46.4069 6 46.5488C6 46.825 5.77614 47.0488 5.5 47.0488C5.22386 47.0488 5 46.825 5 46.5488C5 46.497 5.0079 46.4469 5.02256 46.3999Z" fill="#351771"/>
</svg>
